<?xml version="1.0"?><svg width="1105" height="904" xmlns="http://www.w3.org/2000/svg">
 <title>island-ocean</title>
 <g>
  <title>Layer 1</title>
  <path d="m1050,385l0,0l-1,1q-1,0 -5,0q-3,0 -6,-6q-2,-5 4,0q7,4 8,5z" stroke-width="1px" stroke="#A1D6D0" fill-rule="evenodd" fill="#A1D6D0" id="svg_1"/>
  <path d="m585,590l0,-2l1,6q1,7 19,9q18,1 34,1q16,0 17,0l2,0l4,0l3,0l0,-1l0,0l1,0q0,-1 0,-1l1,0l1,0l0,0l0,1q0,1 -2,2l-3,1l0,1l1,1l0,0l0,1l-1,1l0,1l1,0q2,0 2,1q0,1 -1,1l-1,0l-1,0q-1,0 -1,-1q0,-1 -1,-1q-1,-1 -7,-1q-5,0 -9,2l-4,2l-1,1l-1,0l0,1l0,1l11,0q12,0 12,1q1,2 3,1q3,-1 3,-1l0,-1l0,0l0,0l1,2l1,2l0,0l0,-1l0,0l0,0l1,0l0,0l1,-1l0,0l0,1q0,2 -1,3l0,1l-1,0q-1,0 0,3q0,3 2,3q2,0 2,2q0,1 0,3l0,2l0,2q0,2 -2,1q-1,0 -2,0q0,1 -2,2l-2,0l0,0l0,0l0,1l0,0l-1,0l0,1l0,0l-1,0l0,0l0,0l0,1l0,0l-1,1l0,1l1,0l1,1l0,0l0,0l-1,0l-2,0l0,-1l0,-1l-1,0l0,0l0,0l0,0l-1,-1l-1,0l0,0q0,-1 1,-1q1,0 1,-2q-1,-1 -2,-2q-1,0 -1,-1l0,-1l-1,0q0,0 -6,1l-6,1l-1,1l-1,0l0,2l0,2l0,0q-1,0 -3,0q-3,-1 -5,-1q-1,0 -8,0l-7,-1l0,0q0,-1 1,-1q1,0 1,-1q0,-1 -1,-1q-1,0 -5,0q-5,1 -5,4l0,2l0,0q0,0 -4,0l-4,0l-1,0l0,0l-8,-1q-8,-1 -9,-1q-1,0 -1,-1q0,-1 -2,-4l-1,-3l0,-1q1,-1 1,-7q0,-6 1,-6q1,0 1,-8l-1,-8l0,-2l1,-1l0,-6q0,-6 1,-7z" stroke-width="1px" stroke="#758F0A" fill-rule="evenodd" fill="#758F0A" id="svg_2"/>
  <path d="m807,578l0,-2l1,0l1,0l0,2l1,1l0,1l0,1l2,5q0,4 -1,5q-2,1 -3,1l-2,0l0,1l0,0l0,0q-1,1 -3,1q-2,0 -4,-3l-2,-2l0,-1q-1,-1 -1,-2l0,-2l0,-1q0,-1 -1,-1q-1,0 -1,-1l0,-1l2,0l2,0l3,-1q3,0 4,1q1,1 1,0q0,-1 1,-2z" stroke-width="1px" stroke="#92C2CC" fill-rule="evenodd" fill="#92C2CC" id="svg_3"/>
  <path d="m844,657l0,0l-1,5q-1,6 -6,7q-4,1 -4,2l-1,1l0,0l0,0l0,1l0,0l0,3l0,3l0,1l0,1l1,0l0,0l0,0l0,1l-2,0q-2,0 -7,0q-5,0 -6,-3q-1,-3 -6,-3q-4,0 -6,-1q-3,-1 -7,-2l-4,-1l0,0l0,0l3,-1l2,-1l0,0l0,0l0,0l0,-1l0,0l0,-1l2,0q1,0 1,-1l1,-1l0,-1l0,-1l1,0l0,-1l3,-1q3,0 4,1q0,1 2,0q2,-1 4,-3q2,-3 1,-4l0,-1l2,-1q2,-2 1,0q0,3 1,3q2,-1 5,-1q3,0 6,2q2,0 6,0q3,0 4,-1z" stroke-width="1px" stroke="#59781C" fill-rule="evenodd" fill="#59781C" id="svg_4"/>
  <path d="m986,520l0,0l1,6q1,5 0,5l0,0l-4,0q-4,1 -7,1q-2,2 -2,-1q1,-2 2,-2q1,-1 2,-2q1,-2 2,-2q1,-1 2,-2q0,-1 2,-1l1,-1l0,0q1,0 1,-1z" stroke-width="1px" stroke="#D8E4D9" fill-rule="evenodd" fill="#D8E4D9" id="svg_5"/>
  <path d="m1014,688l0,-2l4,2q4,3 4,2q0,-1 2,-1q3,1 4,1l0,0l0,1q1,1 0,2q-2,1 -2,2q0,1 0,1l1,0l0,0q0,0 -3,1q-2,0 -2,1q0,1 -5,1l-4,1l-1,0l-2,0l0,-2l0,-1l1,-1l0,-1l-1,0l-1,-1l0,0l1,0l0,0l0,0l0,-1l0,0l0,-1l0,-1l1,-1q1,0 2,0l1,0l0,-2z" stroke-width="1px" stroke="#55781E" fill-rule="evenodd" fill="#55781E" id="svg_6"/>
  <path d="m620,643l0,0l7,1q7,0 8,0q2,0 5,1q2,0 3,0l0,0l5,0q5,1 7,1l2,0l1,-1l1,0l1,0l1,1l0,0l0,0l0,0l-1,0l0,1l0,1l-1,0l0,0l-1,1l-1,1l0,0l1,0l0,0l0,0l-4,1l-5,1l0,0l0,0l-11,0q-12,0 -29,-1l-17,0l0,0l0,-1l4,0l4,0l1,-1l1,-1l0,0l0,0l1,-1l0,-1l4,0q4,0 4,0l0,0l4,0q3,-1 4,-2q1,-1 1,-1z" stroke-width="1px" stroke="#AEB24F" fill-rule="evenodd" fill="#AEB24F" id="svg_7"/>
  <path d="m705,640l0,0l3,0q4,1 4,2q0,2 1,2l0,1l0,1q-1,0 0,4q0,4 0,4l0,0l-5,0q-4,0 -8,-2l-3,0l0,-1l0,0l0,-1q-1,0 -1,-2q0,-1 2,-2l1,0l1,-2q0,-2 2,-2q3,-2 3,-2z" stroke-width="1px" stroke="#6D7722" fill-rule="evenodd" fill="#6D7722" id="svg_8"/>
  <path d="m906,681l2,-1l2,0q2,1 4,3q1,1 4,1l2,0l0,0l1,0l1,0q2,1 3,6q1,5 0,5l0,1l0,0l0,0l-1,0q-1,0 -2,-2q0,-1 -3,-2q-3,0 -4,1q-1,2 -4,1l-3,0l-1,0l-1,0l0,1l0,0l-1,0l0,-1l0,0l-1,0l0,0l0,0l-1,-1l-1,0l0,-1l0,-1l0,-1l0,-2l0,0l0,0l0,0l0,0l0,-1l0,0l1,-1q1,-2 1,-3q0,-1 2,-2z" stroke-width="1px" stroke="#537D17" fill-rule="evenodd" fill="#537D17" id="svg_9"/>
  <path d="m931,627l0,-1l1,0l2,0l1,1l1,1l0,0l0,0l1,0l0,0l0,1l1,0l0,0l0,1l0,0l0,0l1,0l0,0l0,1l1,0l1,5q1,4 1,5q-2,1 -2,5q0,3 1,6l0,2l-1,0q0,0 0,1l0,0l-3,0q-3,0 -3,1l0,2l-1,2q-1,2 -1,2l0,0l-1,0q-1,0 -1,-1q0,-1 -3,-1q-2,1 -2,-2l0,-2l1,0q1,0 1,-1q-1,-1 -2,-1q-1,-1 -1,-2q0,-2 -3,-4q-2,-2 -3,-2l-2,1l-1,0q-1,-1 -2,-3l-1,-3l0,0l0,0l0,-1l0,-2l1,-2l1,-1l0,-1l0,-1l1,0l0,0l0,0l0,1l0,0l1,0l0,0l0,0l0,-1l0,0l1,-1l0,0l1,0l0,0l0,0l0,0l1,0l0,0l0,-1l1,0l0,0l0,1l0,0l0,0l0,2l0,1l0,0l0,1l0,0l0,0l-1,0l0,0l1,0l1,0l0,0l1,0l0,0l0,0l0,-1l0,0l1,0l0,-1l1,0q2,-1 3,-4q1,-2 1,-2q2,0 2,0q0,-1 1,-1z" stroke-width="1px" stroke="#53751C" fill-rule="evenodd" fill="#53751C" id="svg_10"/>
  <path d="m569,590l0,-9l5,4q5,5 8,3q2,0 2,-1l0,0l0,-1l0,0l0,0l1,0l0,1l0,1l0,2q-1,1 -1,7l0,6l-1,1l0,2l-1,0l0,0l-6,0l-5,0l-1,0l0,0l0,-1l0,0l-1,0l0,0l0,-3q-1,-2 0,-12z" stroke-width="1px" stroke="#487421" fill-rule="evenodd" fill="#487421" id="svg_11"/>
  <path d="m942,582l0,1l0,0q-1,1 -4,1l-3,0l0,1l0,0l-1,0q-1,0 -2,9q-2,8 -4,8q-2,-1 -2,-1l0,0l0,-1q0,-1 -3,-10l-2,-9l2,1q2,0 6,0q4,0 8,0q4,0 4,0q1,0 1,0z" stroke-width="1px" stroke="#32691F" fill-rule="evenodd" fill="#32691F" id="svg_12"/>
  <path d="m668,583l-1,-2l1,0q1,0 1,1q0,1 15,1q14,0 14,1q1,2 2,2q2,1 2,2q0,0 1,0l1,0l0,1q0,1 -2,1q-2,1 -2,0q0,-2 -2,-2q-1,0 -4,3q-3,3 -5,2l-2,-1l0,-1q-1,-1 -3,-1q-3,-1 -3,-3q0,-1 -1,-1q-2,1 -4,2l-4,0l0,0l0,0l0,1l0,0l-1,0l0,0l0,0l-1,0l0,-2q0,-2 -2,-4z" stroke-width="1px" stroke="#96C7D7" fill-rule="evenodd" fill="#96C7D7" id="svg_13"/>
  <path d="m1030,583l1,-1l0,0l1,0l0,4q2,4 2,5l0,1l1,0l0,0l2,-2q2,-2 5,1q4,2 4,-1q-1,-2 2,-2q3,0 3,1q0,1 2,2q2,1 5,1q2,0 3,0q1,0 1,2q1,2 2,0q2,-2 2,-4q0,-2 1,-2q1,0 2,3q1,3 5,0q3,-3 4,-5q0,-2 0,-2l1,0l1,0q1,0 2,10q0,11 1,18l1,8l0,2l0,1l4,0l5,0l0,1l0,0l-3,0q-4,1 -6,12q-2,11 -1,12l1,2l0,1q0,1 -1,1l0,0l0,0q0,0 -1,0l-1,0l0,0l0,0l0,2l-1,1l0,1l0,1l-1,1l-1,1l0,0l0,1l0,0l0,0l-1,-1l-1,-1l0,0l0,0l0,-1l0,0l-1,0l0,-1l0,0l-1,0l0,-1q0,-1 -1,-1l-1,0l0,-2q0,-1 -2,-2q0,-1 -2,-6q0,-4 0,-7l0,-3l-2,0l-3,0l0,1l-1,0l0,0l0,1l0,0l0,0l-1,0l0,0l0,1l-1,0l0,0l0,1l0,0l0,0l-1,0l0,0l0,1l-1,0l0,0l0,1l-1,0l-1,0l0,8q0,9 1,10q0,1 -2,2q-3,0 -3,4l0,4l-1,2l0,1l0,0l-1,0l0,-1l0,-1l-1,-1q-1,-1 -1,-2q-1,0 -2,0q0,1 -2,0l-2,0l0,0l0,-1l-1,0q0,-1 -1,-1q-2,0 -3,-2q-1,-2 -2,-2q-1,-1 -3,-2l-1,0l0,-1l-1,0l0,-1q0,-1 1,-2q0,-1 1,-2l2,0l0,0l0,0l0,1l0,0l0,-1l0,-1l0,0l0,-1l-3,0q-3,0 -5,2l-2,2l0,1l0,0l-1,0l0,1l-1,0l-1,0l0,-2l1,-1l0,0l0,-1l0,0q0,0 1,-2q1,-2 -1,-2l-3,0l0,0l0,0l0,-1l1,0l0,0l0,-1l0,0l0,0l0,0l0,-1l0,-1l0,-1l-1,0q0,-1 -1,-3q-2,-3 -4,-24l-4,-22l0,-1l0,-1l2,0l1,0l0,-1l1,-1l0,-1l0,-1l1,0l1,0l1,-1l1,0l1,3q1,3 1,3l0,1l0,0l0,0l1,0l0,0l0,-1l1,0l0,0l0,-1l0,0l0,0l1,0l0,0l1,-1q1,0 2,-1q0,-2 1,-4l1,-1l0,0l0,-1l0,0l0,0l1,0l0,0l1,-1z" stroke-width="1px" stroke="#748D0A" fill-rule="evenodd" fill="#748D0A" id="svg_14"/>
  <path d="m866,681l0,0l0,0q-1,1 -4,1q-2,0 -8,-2l-7,-1l0,0q0,-1 1,-4q0,-3 1,-3q1,0 1,-1q0,-1 1,-1l1,0l2,0q3,0 4,0q2,0 2,-1l0,0l2,-1q2,0 3,0q1,1 1,6q0,6 0,6q0,0 0,1z" stroke-width="1px" stroke="#7C732F" fill-rule="evenodd" fill="#7C732F" id="svg_15"/>
  <path d="m799,623l0,-1l2,0l2,0l4,2q5,2 4,3q0,1 1,2q2,0 2,1l0,1l-2,-1q-3,0 -4,4q-2,4 -4,8q-1,3 -3,4q-1,1 -3,4q0,3 0,5l0,2l0,0l0,1l0,0l0,0l1,0l0,0l1,1q2,0 2,1l0,1l1,0l0,1l0,0l1,0l0,0l0,0l0,1l1,0l0,1l-1,0l0,1l0,1l-1,1q0,1 -1,1l-2,0l0,1l0,0l0,1l0,0l0,0l0,0l-2,1l-3,1l0,0l0,0l0,0q-1,0 -1,2q0,1 -5,1q-4,1 -5,-1q0,-1 -5,-1q-5,1 -5,-1q-1,-1 -6,0l-4,0l-2,0l-1,0l0,-1l-1,0l0,0l0,-1l0,0l0,0l-1,0l0,0l0,-1l0,0l0,-1l-1,0l0,0l0,0l0,0l0,0l0,-1l0,0l1,-1l0,-1l1,0l1,-1l0,0l0,0l0,0l0,0l2,-1q3,0 3,-1q1,0 2,-1q2,-1 2,-3l0,-3l1,-1l0,-1l-2,0q-2,1 -2,-3q0,-4 -2,-3l-2,1l0,0q-1,-1 -1,-1l0,0l0,-1l0,0l-1,0l0,0l1,-1l1,0l0,-1l-1,-2l0,-1l0,-1l1,0l1,0l0,1l0,0l1,-1q0,-2 2,-3q3,-1 4,-5q1,-4 6,-6q5,-1 7,-1q2,1 4,1q1,2 4,1q3,-1 3,-1q1,0 1,0l0,-1l0,0l0,0l1,0l0,-1l0,0l1,0l0,0l0,0l0,-1l0,0l1,0z" stroke-width="1px" stroke="#52781A" fill-rule="evenodd" fill="#52781A" id="svg_16"/>
  <path d="m508,591l2,0l0,0l0,1l-1,0l-1,0l0,1l0,0l-1,0l0,1l0,0l-1,0l0,2l0,2l-2,0q-1,0 -4,0q-4,0 -4,1q-1,1 -4,1l-2,0l-1,0l-1,0l-1,-1l-1,-1l0,0l0,0l0,0l0,0l1,-1l0,-1l1,0l1,0l0,-1l1,0l0,-1q0,-1 0,-2q0,-2 0,-4q1,-3 2,-3q1,0 1,-1q0,-1 1,-1l1,0l4,-1q4,-2 6,0q1,2 2,6q0,3 1,3z" stroke-width="1px" stroke="#3D763B" fill-rule="evenodd" fill="#3D763B" id="svg_17"/>
  <path d="m1072,451l0,1l0,1l0,1l1,35q1,35 1,41q0,7 -1,7q0,-1 0,-1l0,0l-1,0q0,0 -1,4q-1,3 -6,2q-5,0 -4,1q1,2 -4,6l-4,3l-1,1l-1,1l1,0l1,0l0,1l0,1l-1,0l-1,0l-1,1l-1,0l0,-5l0,-5l-1,0l-1,0l0,1l-1,1l0,3l0,2l-1,0l-1,0l-2,-1l-1,-1l-1,0l-2,0l0,-1q0,-1 2,-2q0,-1 -1,-1q-1,-1 -1,-2l0,-2l-2,0l-1,0l0,1l-1,0l0,0l0,1l0,0q0,0 -4,4l-4,5l0,0l0,1l-2,0l-1,0l0,-1l-1,0l0,-5l0,-4l-1,0l0,0l0,1l-1,0l0,1q0,1 -1,2q0,2 -4,1l-4,-1l-1,0l-2,0l0,1l0,0l1,0l0,1l1,0q2,1 2,2q0,1 0,2l0,0l0,0l0,0l0,1l0,0l-1,0l0,1l-1,0l-1,0l-1,1l-2,1l-1,0l-1,0l0,0l0,-1l-1,-3q-1,-3 -3,-18q-2,-14 -3,-54l0,-41l0,0l1,0l0,-1l0,0l0,0l0,0l1,0l0,-1l0,-1l1,-2l0,1l0,1l1,0l0,0l1,3q2,2 4,3q3,2 4,2l1,0l0,-2q0,-3 1,-3q1,-1 2,-1l1,0l0,1l-1,0l0,0l0,1l-1,0l-1,0l2,0l1,0l1,0l2,0l0,1l0,0l-1,1l-1,1l0,0l0,1l0,0q0,0 -2,3l-2,3l-1,0l0,0l-1,1l-1,1l0,0l-1,0l0,1l0,1l3,-1q3,-1 3,-1q0,0 1,-1l1,-1l0,0l0,0l0,1l0,1l0,1l0,1l-1,2q-1,1 -1,2l0,0l-1,1l-1,1l0,2l0,1l1,0l0,-1l0,0l1,0l0,0l0,0l0,-1l0,0l1,-1l1,-1l0,0l0,-1l1,0l1,0l2,-5q2,-5 3,-5l0,-1l3,-1q2,-2 2,-2l0,0l5,-2q5,-3 7,-6q3,-2 3,0q0,3 2,2q3,-2 5,6q2,7 3,8q2,1 3,-5q2,-7 4,-9q3,-2 6,-1q2,1 4,5q2,4 2,5zm-63,17q1,0 1,1q0,1 -1,1q-1,0 -1,-1q0,-1 1,-1z" stroke-width="1px" stroke="#F4F8F9" fill-rule="evenodd" fill="#F4F8F9" id="svg_18"/>
  <path d="m978,583l0,0l-1,-3q-1,-2 -1,-4l0,-3l0,-4q0,-4 0,-5q0,0 2,3q1,3 2,5q2,1 0,2q0,1 0,5q1,4 2,4q1,0 0,1q-1,2 -2,0q-2,0 -2,-1z" stroke-width="1px" stroke="#78B0A1" fill-rule="evenodd" fill="#78B0A1" id="svg_19"/>
  <path d="m1090,624l3,0l2,0q2,0 2,1l0,1l3,0q4,0 4,1l1,0l0,17l0,17l-1,0q-1,1 -4,2l-3,1l0,-2l1,-1l0,0l0,-1l0,0q0,0 2,-2q2,-3 2,-4q-1,0 -2,-2q0,-2 -2,-1q-1,1 -5,4l-3,4l-1,0l0,-1l0,0l-1,0l0,-2q0,-3 1,-4l0,-2l-1,0q-1,0 -1,1q-1,0 -3,1l-2,0l0,0l0,0l-1,0l0,0l0,0l0,0l1,-1l2,-1l0,0l0,0l-1,-2q-1,-1 1,-12q2,-11 6,-12z" stroke-width="1px" stroke="#657D1E" fill-rule="evenodd" fill="#657D1E" id="svg_20"/>
  <path d="m1050,385l0,0l0,-1q0,-1 -1,-2l-1,-2l-1,-1q-1,-2 -5,-5q-5,-4 1,0q6,2 8,5q2,2 1,3q0,0 0,2q1,2 0,2q-2,-1 -2,-1z" stroke-width="1px" stroke="#94CDC2" fill-rule="evenodd" fill="#94CDC2" id="svg_21"/>
  <path d="m702,518l0,-20l1,2q1,1 1,2l0,1l1,0l0,1l0,0l1,0l0,1l0,1l1,-2l0,-3l1,5q1,5 0,5q-1,0 -1,7q1,6 1,20l0,13l1,1l0,0l-1,0l0,0l-2,0l-1,0l0,0l-1,0l0,2l0,3l0,0l0,0l-1,-9q-1,-9 -1,-9l0,0l0,-21z" stroke-width="1px" stroke="#A38462" fill-rule="evenodd" fill="#A38462" id="svg_22"/>
  <path d="m952,520l0,0l2,1q1,1 1,1l0,0l-1,0l-1,0l0,1l1,0l0,0l0,1l2,0q1,1 1,3l-1,2l0,0q0,1 -4,2l-3,1l-1,1l-1,1l-1,0l-1,0l0,1l0,1l3,0l3,0l1,-1l1,0l0,1l0,1l-1,0l-1,1l-1,0l-1,0l0,1q-1,0 -3,2l-3,3l0,0l-1,0l0,0l0,0l0,1l0,0l0,1l0,2l0,0l0,0l2,0q2,0 2,1q0,1 1,0q1,-1 1,0l0,0l0,5q-2,6 -3,8q-1,3 -2,4l-1,1l0,1l0,1l0,0l-1,0l-1,0l-1,-1l-1,0l-2,0l-1,0l-1,0l-2,0l-2,0l0,-1l0,0l-1,0l0,-1l0,0l1,0l0,0l0,0l0,-1l0,0l1,-1q0,-1 1,-2q2,0 2,-1q0,-1 1,-1l1,0l0,-1l0,0l1,-1l0,-1l-1,0l-1,-1l0,0l-1,0l0,0l0,0l-2,0l-1,0l0,0l-1,0l0,0l0,0l0,1l0,0l-1,1q-1,1 -2,3l-1,2l-1,0l0,1l0,0l-1,0l0,0l0,0l-2,1l-1,0l0,-4l0,-4l-1,0l-1,1l0,0l-1,0l0,0l0,0l0,1l0,0l0,0q-1,-1 -2,-3q0,-3 -2,-28q-1,-24 -2,-24q-1,0 0,-8l0,-9l0,-1l0,-2l1,0l0,0l0,-1l1,0l0,2l0,2l1,1l1,1l0,1q0,2 1,4l1,1l0,1l0,2l1,2l1,1l0,1l0,1l1,-12q0,-11 1,-11q2,0 10,12q8,11 7,12q0,2 2,3q3,1 5,-1q2,-2 0,1q-2,3 1,2q3,-1 0,3q-3,4 0,3q3,-1 4,-3q1,-1 0,4q-1,6 -1,5q1,-1 2,-1z" stroke-width="1px" stroke="#F1F5F2" fill-rule="evenodd" fill="#F1F5F2" id="svg_23"/>
  <path d="m567,584l0,-4l1,0q1,0 1,1l0,0l0,9q-1,10 0,12l0,3l2,14q1,14 2,15l0,2l-1,0l-1,0l0,0q-1,-1 -1,-1l0,0l0,-1q0,-1 -1,-2q-1,0 -2,-19l-1,-19l0,-4q0,-3 1,-6z" stroke-width="1px" stroke="#9A8D40" fill-rule="evenodd" fill="#9A8D40" id="svg_24"/>
  <path d="m736,572l0,0l0,0l0,0l0,1l0,0l1,3l0,2l-1,0l-1,0l-1,1l-2,1l1,0l1,0l0,1l0,0l1,1q1,0 2,1l1,0l0,1q0,1 -1,2q0,1 -1,1q-2,0 -2,1q0,1 -2,2l-1,0l-1,1l-1,0l-1,0q0,-1 0,-1l-1,0l0,0q-1,-1 -1,-2q0,0 0,-4q-2,-3 -3,-4q-1,0 -1,-2q1,-2 -1,-2q-2,2 -3,1q0,-1 -2,-1l-2,1l0,-1l0,0l-1,-2l-1,-1l0,-2l0,-2l3,1q3,0 3,-1q0,-1 1,-1q1,0 1,1q1,1 7,1q6,0 7,0q1,2 2,2zm-5,0q0,0 0,-1q1,0 1,1q0,0 -1,0z" stroke-width="1px" stroke="#B2D5E1" fill-rule="evenodd" fill="#B2D5E1" id="svg_25"/>
  <path d="m912,642l0,-1l0,0l0,0l1,3q1,2 2,3l1,0l-1,1q-1,2 0,7q1,5 1,6l0,1l2,0q2,-1 4,-4q1,-2 2,-2l1,0l0,2q0,3 2,2q3,0 3,1q0,1 1,1l1,0l0,0q1,0 2,1l0,0l0,1q0,1 -1,1q-1,0 -2,2q-1,2 -3,4q-3,2 -4,6q0,3 -1,4q-1,1 -2,2l0,1l-1,0l0,0l-2,0q-3,0 -4,-1q-2,-2 -4,-3l-2,0l-2,1q-2,1 -2,2q0,1 -1,3l-1,1l0,0l0,1l0,0l0,0l0,0q-1,0 -4,0l-3,0l0,-1l-1,0l0,0l0,-1l-2,0l-2,0l0,-1l0,0l-1,0l0,0l0,-1l-1,0l0,-2l0,-1l-1,-1l-1,-2l0,0l0,0l0,-1l0,0l1,0l0,-1l1,0q2,0 1,-1q-1,0 -1,-3q1,-3 6,-4q5,0 5,-1l1,-1l0,-1l0,-1l1,0l0,0l0,-1l1,0l0,-1q0,-1 1,-2q0,-1 -1,-1l-1,0l0,-1q1,-1 1,-4l1,-2l0,0l0,0l0,-1l1,0l0,-1q0,-1 3,0q3,0 4,-4q1,-4 1,-4z" stroke-width="1px" stroke="#4D731C" fill-rule="evenodd" fill="#4D731C" id="svg_26"/>
  <path d="m951,444q3,2 -2,2q-6,-1 -6,-2q0,-1 3,-1q2,-1 5,1z" stroke-width="1px" stroke="#B3D8D1" fill-rule="evenodd" fill="#B3D8D1" id="svg_27"/>
  <path d="m704,554l0,-2l1,0l0,0l1,0l2,0l0,0l1,0l1,8q2,7 2,8l0,1l0,2l0,2l1,1l1,2l0,0l0,1l0,1l0,1l2,5q2,4 2,4q0,1 1,4l1,2l0,1l0,1l1,0l1,0l0,0l0,0l-1,1l-1,0l0,1l0,1l2,7q2,8 3,14q1,5 2,10l0,5l-1,0l-1,0l0,-1l-1,0l0,0l0,0l-2,-1l-1,-1l0,0l-1,0l0,0l0,0l0,-1l0,0l-1,-3q-1,-2 -2,-8q-1,-5 -4,-15q-3,-9 -5,-9l-2,0l-1,-2l0,-2l0,0q1,0 1,0q2,0 2,-3q0,-3 -2,-17l-2,-15l0,-3z" stroke-width="1px" stroke="#967D53" fill-rule="evenodd" fill="#967D53" id="svg_28"/>
  <path d="m947,570l0,-2l1,0l1,0l1,1l1,0l0,2l-1,2l0,1l0,1l-2,0q-1,1 0,2q2,2 0,4q-2,1 -3,1l-1,0l0,0q0,-1 -2,-3l-1,-2l0,0q1,0 1,0l0,-1l0,0q0,0 0,-2l0,-1l0,0l0,0l1,0l0,-1l0,0l1,0l0,-1q1,-1 2,-1q0,1 1,0z" stroke-width="1px" stroke="#7FB4B4" fill-rule="evenodd" fill="#7FB4B4" id="svg_29"/>
  <path d="m897,653l1,-1l2,0l3,0l0,0q-1,1 -1,4l0,2l0,0q-1,0 -1,1l0,0l0,1q-1,0 -4,2q-3,2 -3,-1q1,-3 2,-3q1,0 0,-2l0,-3l1,0z" stroke-width="1px" stroke="#568017" fill-rule="evenodd" fill="#568017" id="svg_30"/>
  <path d="m811,630l2,0l0,0q0,0 1,1l0,0l2,3q2,4 3,5l0,1l1,0l1,0l-1,1l-1,0l0,1l0,1l-1,0q-1,-1 -4,-1l-2,0l0,1l0,1l0,1l0,1l0,0l0,1l0,1l0,1l0,0l0,1l0,0l0,0l1,0l0,0l0,1l1,0l0,0l0,1l2,-1q1,0 1,2q0,2 1,2l1,0l0,1q1,1 -1,4q-2,2 -4,3q-2,1 -2,0q-1,-1 -4,-1l-3,1l-1,0l0,-1l0,0l0,0l-1,0l0,0l0,-1l-1,0l0,-1q0,-1 -2,-1l-1,-1l0,0l-1,0l0,0l0,0l0,-1l0,0l0,-2q0,-2 0,-5q2,-3 3,-4q2,-1 3,-4q2,-4 4,-8q1,-4 3,-4z" stroke-width="1px" stroke="#396724" fill-rule="evenodd" fill="#396724" id="svg_31"/>
  <path d="m931,556l0,0l1,0l2,0l0,0l0,0l1,0l0,0l1,1l1,0l0,1l-1,1l0,0l0,1l-1,0q-1,0 -1,1q0,1 -2,1q-1,1 -1,2l-1,1l0,0l0,1l0,0l0,0l-1,0l0,0l0,1l1,0l0,0l0,1l2,0l2,0l1,0l1,0l2,0l1,0l1,1l1,0l1,0l0,0l0,1q0,1 0,1l0,0l-3,1q-3,0 -1,2q2,2 2,3l1,0l1,2q2,2 2,3l0,0l0,0q0,0 -1,1l-1,0l0,-1q0,0 -1,0q0,0 -4,0q-4,0 -8,0q-4,0 -6,0l-2,-1l0,-1q-1,-1 -2,-11l-1,-10l0,0l0,-1l0,0l0,0l1,0l0,0l1,-1l1,0l0,4l0,4l1,0l2,-1l0,0l0,0l1,0l0,0l0,-1l1,0l1,-2q1,-2 2,-3l1,-1l0,0l0,-1l0,0l0,0l1,0z" stroke-width="1px" stroke="#195C36" fill-rule="evenodd" fill="#195C36" id="svg_32"/>
  <path d="m760,640l2,0l0,1l0,1l1,2l0,1l-1,0l-1,1l1,0q1,0 1,1l0,1l-1,0q-1,0 -5,2l-3,3l-1,2q0,2 -1,2l-1,0l0,1l1,2l0,0l0,0l1,2q1,1 1,1q0,1 4,1l3,0l0,0l0,0l-1,1l-1,0l0,2l0,2l-1,0l-1,0l0,-1l0,-1l-5,0l-5,0l0,-3q-1,-2 -2,-2l-2,-1l0,-1q1,-2 1,-2q0,-1 1,-4q0,-2 -3,-2l-4,1l0,-3q0,-3 -3,-4l-2,0l0,0l0,0l0,-1l1,0l0,-5q1,-5 2,-6q2,0 2,-2q0,-1 6,-1q5,1 7,1q2,2 4,3q3,1 3,3q1,2 2,2z" stroke-width="1px" stroke="#627D18" fill-rule="evenodd" fill="#627D18" id="svg_33"/>
  <path d="m939,572l3,-1l0,1l0,1l0,1q0,2 0,2l0,0l0,1q0,0 -1,0l0,0l-1,0q0,-1 -2,-3q-2,-2 1,-2z" stroke-width="1px" stroke="#83B7B5" fill-rule="evenodd" fill="#83B7B5" id="svg_34"/>
  <path d="m660,647l0,-1l1,0l0,0l0,0l1,0l0,1l0,1l2,0l1,0l2,0l2,0l5,0q4,0 10,2q5,0 9,1l4,0l0,0l0,1l3,0q4,2 8,2l5,0l1,3q2,3 3,3l1,0l0,0q1,0 2,0l1,0l0,0l1,0l0,1l0,1l1,0l0,1l0,1l1,1l0,1l0,1l1,0l0,1l0,0l1,0l0,0l0,1l-2,0l-3,-1l-3,0q-3,0 -6,-1l-4,-1l0,0l0,0l-2,-1q-1,-1 -10,-3q-8,-2 -25,-6l-17,-4l-2,0l-3,0l0,0l0,0l5,-1l4,-1l0,0l0,0l-1,0l0,0l1,-1l1,-1l0,0l1,0l0,-1z" stroke-width="1px" stroke="#BCB85F" fill-rule="evenodd" fill="#BCB85F" id="svg_35"/>
  <path d="m940,654l1,0l0,4q0,4 0,4l-1,0l0,0l0,0l0,0q0,-1 -1,-1q0,-1 -3,1l-2,1l0,0q-1,1 -1,1l0,0l-1,0q-1,0 0,-1l0,-1l0,0q0,0 1,-2l1,-2l0,-2q0,-1 2,-1q3,-1 4,-1z" stroke-width="1px" stroke="#4B7421" fill-rule="evenodd" fill="#4B7421" id="svg_36"/>
  <path d="m1077,448l0,0l1,8q2,9 3,10q2,2 2,3l0,1l-1,0q-1,0 0,22q0,23 2,32q1,10 3,10q2,0 2,2q0,1 1,1l2,1l-2,2q-2,3 -2,6l0,2l0,0l0,1l0,2q0,2 1,2l1,0l-1,1q-1,0 -1,1q0,1 2,1q1,0 1,1l0,0l-1,0l-1,0l3,19q2,18 3,20l0,1l1,9q0,9 1,13l0,4l-2,0l-2,0l-5,0l-4,0l0,-1l0,-2l-1,-8q-1,-7 -1,-18q-1,-10 -2,-10l-1,0l0,0q0,0 0,-1q1,0 -1,-17q-2,-16 -2,-18q0,-2 -1,-2q-1,0 -1,-5l-1,-5l0,0q0,0 0,-41l-1,-41l0,-1l0,-1l2,-2q2,-2 3,-2z" stroke-width="1px" stroke="#9E7C52" fill-rule="evenodd" fill="#9E7C52" id="svg_37"/>
  <path d="m550,579l2,0l0,1q0,2 3,3q3,2 3,3q0,2 1,2q1,1 0,2q0,1 -5,2q-6,0 -6,1l-1,0l0,0q0,1 -1,1l0,0l0,0l-1,0l0,-1q1,-1 1,-1l0,0l1,-1q1,0 1,-3q0,-3 -2,-2q-1,0 -1,-1l0,-1l1,0q0,0 0,-1l-1,0l0,-1q0,-2 1,-2q2,0 4,-1z" stroke-width="1px" stroke="#4A9CA6" fill-rule="evenodd" fill="#4A9CA6" id="svg_38"/>
  <path d="m940,662l0,0l0,0l-1,0l0,1l-1,0l0,1l0,1l0,1l0,1l0,0l0,1l0,0l0,0l1,0l0,0l0,-1l1,0l0,0l0,-1l0,0l0,0l1,0l0,0l2,-2q1,-1 2,-1l0,-1l1,0l2,0l0,-1l0,0l0,1l0,1l0,1l0,1l-2,1q0,1 -1,3l-1,2l0,0l0,1l0,0l0,0l1,0l0,0l0,1l1,0l0,0l0,-1l3,1q3,0 3,1l0,1l2,0l1,0l1,1q2,1 2,6q0,6 0,8l0,2l0,0l0,0l0,1l0,0l1,1l0,1l-1,0l-1,1l-9,0q-10,0 -14,-1q-5,-1 -7,0l-2,1l0,0l0,0l0,-1q1,0 0,-5q-1,-5 -3,-6l-1,0l0,-1q1,-1 2,-2q1,-1 1,-4q1,-4 4,-6q2,-2 4,-5l1,-2l0,0q1,0 1,0l0,-1l2,-1q3,-2 3,-1q1,0 1,1z" stroke-width="1px" stroke="#41721A" fill-rule="evenodd" fill="#41721A" id="svg_39"/>
  <path d="m1041,691l0,3l0,0l0,1l-3,0q-2,1 -6,1l-5,0l-1,0q0,0 0,-1q0,-1 2,-2q1,-1 0,-2l0,-1l5,-1q5,-1 6,-1q1,0 2,3z" stroke-width="1px" stroke="#3E711C" fill-rule="evenodd" fill="#3E711C" id="svg_40"/>
  <path d="m924,696l1,0l2,-1q2,-1 7,0q4,1 14,1l9,0l1,-1l1,0l3,0q4,0 4,2q0,2 2,2q2,1 4,0q1,-1 4,-1l3,0l0,0l1,0l0,0l0,0l0,-1l1,0l0,0l0,1l0,0l1,0l0,0l0,0l8,0q8,-2 9,-2q1,0 1,2q1,2 3,2q2,0 3,0l2,0l1,0l1,0l2,0l1,0l4,-1q5,0 5,-1q0,-1 2,-1q3,-1 3,-1l0,0l5,0q4,0 6,-1l3,0l0,0l0,1l1,0l1,0l0,-1q0,-1 3,-1q2,0 2,1q1,1 3,2q2,0 2,-1q0,-1 3,-1q2,1 3,0l1,0l1,-1q1,0 2,2q1,2 5,3q5,1 7,2q2,1 4,2q2,0 3,4q0,4 1,4l0,1l3,-1q3,-1 4,-1q2,-2 3,0q1,0 5,0q4,0 4,-1q1,-1 1,-1l1,0l0,-3l0,-3l1,0l0,0l0,55l0,55l-1,0l-1,0l0,-1l-1,0l0,0l0,-1l0,0l0,0l-1,0l0,0l-1,-1l-1,-1l-1,0q-1,0 -7,-4q-7,-4 -21,-14q-14,-9 -14,-10q0,-1 -20,-14q-19,-12 -38,-22q-19,-10 -41,-16q-22,-8 -49,-12q-26,-4 -50,-6l-25,-4l-2,0l-2,0l-1,-1l-2,-1l0,0l0,0l11,1q11,1 13,0q1,0 1,-1q0,-1 4,-2q3,0 4,-2q0,-3 1,-4q2,0 1,0q0,0 -1,-1l-1,-1l21,2q21,0 21,1l1,0l0,0l0,-1l0,0l0,0l1,0l0,0l1,0l1,0l1,0l1,0l0,-1l1,0l0,-1l0,0l3,0q3,1 4,-1q1,-1 4,-1q3,1 3,2q1,2 2,2zm-71,9q0,-1 0,-1q1,0 1,0q0,1 -1,1z" stroke-width="1px" stroke="#DEC583" fill-rule="evenodd" fill="#DEC583" id="svg_41"/>
  <path d="m998,441l1,0l-1,1q0,2 0,42q0,40 2,54q2,15 3,18l1,3l0,1l0,0l0,2q0,1 2,2q2,0 1,1q-2,1 -1,8q1,7 3,7q1,0 2,1q0,1 -1,1q-2,1 -2,3q0,2 1,3l1,2l0,1l0,1l0,1l0,1l4,22q2,21 4,24q1,2 1,3l1,0l0,1l0,1l0,1l0,0l0,0l0,0l0,1l0,0l-1,0l0,1l0,0l0,0l-1,0l-2,0l0,1l0,0l-1,0l0,1l0,0l-1,0l0,0l0,0l0,1l0,0l-1,0l0,-1l0,0l-1,0l0,0l0,0l0,-1l0,0l0,-3q0,-3 -1,-5q-1,-2 -1,-5q2,-2 -4,-4l-5,-2l0,0q-1,-1 -1,-14q-2,-14 -3,-22l-2,-7l0,-1l0,-1l-1,0q-1,0 -2,-5l0,-4l0,0q0,0 1,-1q1,0 1,-3q0,-2 -2,-6l-2,-3l0,0q0,0 0,-2q0,-2 -1,-7q-2,-4 0,-4q2,1 2,-1q-1,-2 -3,-5q-2,-4 -4,-5l-3,-1l0,-1l0,-1l3,-1q4,-1 3,-2q0,-1 0,-2l0,0l0,0q1,0 0,-5q0,-5 -1,-5l-1,0l0,-1q1,-1 1,-1l0,0l0,0q0,-1 2,-37l2,-37l0,0l0,0l1,1l0,2l1,0l1,0l0,1l1,0l0,0l0,-1l0,0l0,0l2,-3q1,-3 2,-4z" stroke-width="1px" stroke="#A28057" fill-rule="evenodd" fill="#A28057" id="svg_42"/>
  <path d="m670,624l1,0l1,2q0,1 1,0q0,-2 2,-2q2,0 2,1q0,1 1,1q2,0 2,4q1,3 4,2q3,0 4,-1q0,-1 0,-1l1,0l1,4q0,4 6,5q7,1 8,1l1,0l0,0q0,0 -3,2q-2,0 -2,2l-1,2l-1,0q-2,1 -2,2q0,2 1,2l0,1l-4,0q-4,-1 -9,-1q-6,-2 -10,-2l-5,0l-2,0l-2,0l0,0l0,0l-1,-1l-1,0l0,-1l1,-1l0,0l0,-1l0,0l0,0l1,0l0,0l0,-1l1,0l0,0l0,-1l0,0l0,0l2,0q2,-1 2,-2q1,0 2,0q2,1 2,-1l0,-2l0,-2q0,-2 0,-3q0,-2 -2,-2q-2,0 -2,-3q-1,-3 0,-3z" stroke-width="1px" stroke="#58791B" fill-rule="evenodd" fill="#58791B" id="svg_43"/>
  <path d="m748,578l-2,-3l5,4q5,3 6,3q1,0 1,1q1,1 4,-1q2,-2 2,-2l0,0l0,2q0,1 1,4l0,3l-3,0l-3,-1l0,0l-1,0l0,0l0,0l0,-1l0,0l-1,0l0,-1l0,0q-1,0 -3,-2l-2,-2l0,0l0,0l-1,0q0,0 -3,-4z" stroke-width="1px" stroke="#5BA1A4" fill-rule="evenodd" fill="#5BA1A4" id="svg_44"/>
  <path d="m706,666l2,0l4,1q3,1 6,1l3,0l3,1l2,0l0,0l0,0l1,0l0,1l6,2q6,2 15,2q8,0 10,0l2,0l2,-1q2,-1 2,-1l0,0l4,0q5,-1 6,0q0,2 5,1q5,0 5,1q1,2 5,1q5,0 5,-1q0,-2 1,-2l0,0l4,1q4,1 7,2q2,1 6,1q5,0 6,3q1,3 6,3q5,0 7,0l2,0l0,-1l0,0l1,0l2,-1l2,0l2,0l0,-1l0,0l2,0q0,0 2,0q2,1 2,0l1,0l7,1q6,2 8,2q3,0 4,-1l0,0l0,0l0,1l0,0l0,0l1,0l0,0l5,1q6,1 8,1q2,0 6,1l3,0l0,0l1,0l0,0l0,1l2,0l2,0l0,1l0,0l1,0l0,1l3,0q3,0 4,0l0,0l0,0l0,0l0,2l0,1l0,1l0,1l1,0l1,1l0,0l0,0l1,0l0,0l0,1l1,0l0,0l0,-1l1,0l1,0l0,0l0,1l-1,0l0,1l-1,0l-1,0l-1,0l-1,0l0,0l-1,0l0,0l0,0l0,1l0,0l-1,0q0,-1 -21,-1l-21,-2l1,1q1,1 1,1q1,0 -1,0q-1,1 -1,4q-1,2 -3,3q-2,1 -5,2q-3,1 -14,0l-11,-1l-3,0q-3,0 -15,-3l-13,-2l0,0l0,-1l-2,0l-2,0l-3,-1q-4,-1 -21,-3q-17,-2 -37,-10q-19,-7 -20,-8q0,-2 0,-3l0,-2l-1,0q-1,-1 -2,-2q-1,-1 -2,-2q-1,-1 1,-1z" stroke-width="1px" stroke="#D9C37E" fill-rule="evenodd" fill="#D9C37E" id="svg_45"/>
  <path d="m977,424l0,0l3,0l2,0l0,0l0,0l1,2q1,1 1,4l0,2l1,0l0,0l0,1l1,0l0,0l0,-1l1,-1q1,-1 1,-3l0,-1l1,7q1,8 1,10l0,1l-2,37q-2,36 -2,37l0,0l-2,0q-1,0 -1,-1q0,-2 -2,-2q-2,0 -5,6l-4,5l-1,0l-1,1l-1,0l-1,0l0,-2q0,-2 0,-6l0,-3l-1,0l-1,1l0,0l0,0l-1,2q-1,1 -1,2q0,2 -4,1l-5,-1l0,0q0,0 -1,-1l-2,-1l0,-1q0,-1 3,-7q3,-6 3,-17q0,-11 1,-11q1,1 3,2q2,2 0,-5q-2,-7 -7,-13q-4,-6 -4,-7q0,-2 5,1q4,2 4,0q0,-1 2,0l3,0l1,1l2,1l1,0l1,0l1,1l1,0l0,-1l0,-1l-1,0l0,-1l-1,0l-1,0l0,-1l-1,-1l0,0l0,0l0,-1l0,0l-1,0l0,-1l0,0q-1,0 -5,-4l-4,-4l0,-1l0,-1l-1,-4l0,-3l0,0l0,-1l3,0l4,0l0,1l0,0l1,0l0,1l1,0l1,0l0,-1l-1,0l0,0l0,-1l0,0l0,0l-1,0l0,0l0,-1q-1,0 -1,-3l-2,-2l0,-1l0,-1l0,-2l0,-1l0,0l0,1l0,0l0,0l1,0l0,0l0,1l1,0l0,0l0,1l0,0l0,0l1,0l0,0l0,1l1,0l0,0l0,1l1,0l1,0l0,-1l0,0l-1,-1l-1,-1l0,-1l0,-1l0,-1l0,-1l0,0l0,1l1,0l1,0l0,1l0,1l1,1q1,1 1,2l0,1l1,1l1,1l0,0l0,0l0,1l0,0l1,-3q1,-3 2,-6l1,-4l1,0z" stroke-width="1px" stroke="#EAF4F5" fill-rule="evenodd" fill="#EAF4F5" id="svg_46"/>
  <path d="m966,92l1,0l1,0l1,0l0,1l1,0l0,0l0,-1l2,0l1,0l0,1l-1,1l0,0l0,0l0,1l0,0l-1,0l0,1l0,0l-1,0l0,0l0,0l0,1l0,0l0,1q0,1 -5,8q-5,6 -7,10q-2,5 -1,10q1,4 6,7q4,3 11,2q7,-1 27,-7q20,-6 31,-5q11,1 12,1q1,0 3,8q2,8 13,10q11,2 16,4q4,2 5,6q1,3 0,10q-1,6 -1,8q1,2 12,5q12,3 12,33q0,30 1,30l0,0l0,68l0,68l-1,0q-2,0 -4,1q-3,1 -4,-2q0,-3 -2,-3q-2,0 -4,1q-2,2 -7,5q-5,2 -5,3q0,1 -5,5q-4,4 -10,0q-6,-2 -10,-7q-3,-5 -11,-9q-7,-4 -17,-6q-10,0 -11,-2q-1,-2 -6,-2q-4,0 -4,-8q0,-7 -3,-3l-3,4l0,0l0,1l-1,0l-1,0l0,-1q0,-1 -1,-3l-1,-2l0,0l0,0l-1,0l0,0l0,-1l-1,0l0,3q0,3 -1,6l-1,4l0,0l0,0l0,-1l0,0l-1,0q0,-1 -1,-2l0,-2l-1,0l0,-1l0,0l-1,0l0,3q0,3 0,5l0,1l0,0l0,-1l-1,0l-1,0l0,-1q0,-1 -2,-3l0,-1l-1,0l0,-1l0,0l-1,0l0,1q0,1 -1,3q0,3 -1,3l-2,-1l0,0q0,0 -5,-3q-5,-3 -15,-3q-11,0 -16,2l-6,4l0,0l0,0l-1,0l0,0l0,1l-1,0l0,0l0,1l0,0l0,0l-1,0l0,0l0,1l-1,0l0,1l0,1l1,0l0,-1l1,0l1,0l0,-1l1,0l0,0l0,-1l0,0l0,0l1,0l0,0l1,-1l1,0l0,1l-1,1l0,0l0,1l0,0l0,0l-1,0l0,0l0,1l-1,0l0,1l0,1l0,1l0,2l0,0l0,0l0,-1l0,0l1,0l0,-1l0,0l1,0l0,0l0,0l0,-1l0,0l2,-1q1,-2 2,-2l1,0l0,-1l1,0l0,0l0,-1l1,0l1,0l0,1l0,0l-1,1l-1,1l0,1q0,1 -1,3l-1,2l0,3l0,3l1,-1l1,-2l0,0l0,0l0,-1l0,0l1,-1q1,-1 1,-2l0,-1l1,0l0,-1l0,0l1,0l0,0l0,0l0,-1l0,0l1,0l0,-1l0,0l1,0l0,1l0,1l-1,0l0,0l0,1l-1,0l0,1l0,1l0,1q0,2 2,1q1,-1 0,2q0,3 4,5q5,2 6,3q2,0 2,1q0,1 1,1l1,1l0,0l0,0l1,0l0,0l0,1l1,0l0,3l0,2l-1,0l0,0l-1,1q-1,1 -6,3l-4,4l-1,0l-1,0l-1,1l-1,1l0,0l0,0l-1,0l0,0l0,1l-1,0l0,0l0,1l0,0l0,0l-1,0l0,0l1,0l1,0l3,0q3,0 4,-1l2,-1l1,0l1,0l1,-1l1,0l0,1l0,1l-1,0l0,1l-1,0l-1,0l0,1l-1,0l-1,3q-2,3 -1,2q2,0 0,8q-2,8 -2,12l0,5l-1,0l-1,0l-2,0l-1,-1l-3,0l-2,0l-4,-1l-4,-1l0,0l0,0l1,-1l0,-1l-1,0l-1,0l2,-4q3,-3 3,-4l0,-1l1,0l0,-1l0,0l1,0l0,0l0,0l0,-1l0,0l0,-1l0,-1l0,0l0,1l-1,0l-1,0l-2,1l-1,1l-1,0q-1,0 -6,4l-6,3l0,0l0,1l0,0l0,0l-1,-1l-1,-1l0,-1l0,-1l-1,-1q-1,-1 -1,-3l-1,-1l0,-1q-1,-2 -2,-4q-1,-2 1,-2l1,0l0,-1l-1,-1l0,0l0,0l0,-1l0,0l-1,0l0,1l-1,0q-2,0 -4,1q-1,1 -6,0q-6,-1 -6,0q-1,1 -8,0q-7,-1 -8,-1q0,-1 -13,-2q-13,0 -15,0q-1,2 -7,2l-6,0l0,-1l-1,0l0,0l0,-1l0,0l0,0l-1,1l0,1l-1,0q0,0 -6,-4l-6,-4l0,0l0,-1l-1,-3l-1,-3l0,0l0,0l0,-1l0,0l-1,-1l-1,-1l0,-1l0,-1l-1,-1l0,-1l1,0l1,0l0,1l1,0l0,0l0,1l0,0l0,0l1,0l0,0l0,1l1,0l0,0l0,1l0,0q1,0 2,-1l0,0l0,0q0,0 1,1l0,0l4,1q4,1 12,-1q9,-3 15,-9q8,-6 8,-7q0,-1 4,-3q5,-1 16,0q10,1 14,-1q4,-2 5,-3q1,-2 1,-2l0,-1l0,0l0,0l1,0l0,0l0,-1l1,0l0,0l0,-1l0,0l0,0l1,0l0,0l0,-1l1,0l0,-2l0,-2l-1,-1l0,-1l-1,0l-1,-1l-217,0q-218,0 -221,2q-3,1 -4,4l-1,4l-1,0l-1,0l0,-2l0,-1l-1,0l0,-1l0,0l-1,0l0,0l0,0l-1,-1q-1,-1 -8,-4q-7,-3 -10,-6l-3,-3l0,-4l0,-4l0,0l0,0l1,0l0,0l3,-2q2,-2 4,-3q2,0 3,-1q1,-2 4,-2q3,0 1,0q-3,0 -1,-1l2,-1l17,0q18,0 18,-1l0,0l20,4q19,3 26,3q8,0 26,-10q18,-10 18,-11l0,0l14,-3q13,-2 24,-9q12,-7 14,-9q3,-2 12,-2q8,0 18,-4q10,-2 22,-2q12,2 20,3q9,1 23,1q14,0 15,-2q2,0 3,-1l1,-1l0,0l0,0l1,0l0,0l0,-1l1,0l0,0l0,-1l0,0l0,0l1,-1l1,-1l0,-1l0,-1l0,0l0,-1l0,-1l0,-1l-1,-1l-1,-1l0,0l0,-1l0,0l0,0l-1,0l0,0l-1,-1q-2,-1 -4,-1q-3,-2 -21,-4l-18,-4l-2,0l-2,0l0,-1l1,0l0,0l0,-1l0,0l0,0l1,0l0,0l0,-1l1,0l0,0l0,-1l1,0l1,0l6,-4q5,-2 5,-3l1,0l0,0l0,-1l0,0l0,0l1,-1l1,-1l0,-2l0,-2l-1,-1l-1,-1l0,0l0,0l0,-1l0,0l-1,0l0,-1l0,0l-1,0l0,0l0,0l-2,-1q-1,-1 -15,-4l-14,-3l0,-1l-1,0l0,-2l0,-2l11,-20q11,-20 9,-21q-1,0 0,-2q1,-2 11,-9q10,-7 21,-13q10,-8 16,-8q6,-2 11,1q5,3 9,8q4,5 8,15q4,10 8,14q4,4 5,4l1,0l3,0q3,-1 9,-8q5,-6 7,-7q1,-1 2,1q1,2 8,2q7,0 14,-5q7,-4 13,-9q6,-6 6,-8q2,-2 1,-6q-1,-4 -1,-5q-1,-1 -6,-3q-4,-2 -9,-3q-5,-1 -17,-1l-12,0l0,-1l0,0l-1,0l0,-1l-1,0l-2,0l0,-1l0,0l-1,0l0,-1l0,0l1,0l0,0l0,-1l0,-1l0,-1l0,0l0,-1l0,0l0,0l0,0l0,-1l0,0l0,-1l0,0l0,0l1,0l0,0l1,-1q1,0 1,-1q0,-1 15,-9q16,-7 40,-15q25,-6 30,-8q5,-2 12,-2q8,0 15,0q7,2 19,-2q12,-4 17,-6q5,0 5,0q1,0 2,0z" stroke-width="1px" stroke="#8AD3FB" fill-rule="evenodd" fill="#8AD3FB" id="svg_47"/>
  <path d="m974,680l2,-1l1,1q1,1 1,2q0,2 1,2l1,0l0,2q0,1 0,1l0,0l0,0q-1,-1 -4,-2q-3,-1 -3,-3q-1,-2 1,-2z" stroke-width="1px" stroke="#507F18" fill-rule="evenodd" fill="#507F18" id="svg_48"/>
  <path d="m881,570q1,-2 3,-2q2,1 1,2q0,2 -3,2q-2,1 -1,-2z" stroke-width="1px" stroke="#8EC5B3" fill-rule="evenodd" fill="#8EC5B3" id="svg_49"/>
  <path d="m724,638l0,0l0,0q0,1 1,0l0,0l1,0q2,0 2,2l0,1l-1,0l0,1l0,0l1,0l0,2l0,1l2,0l1,1l0,0l0,0l0,0q-1,0 -2,4q-1,3 -4,4l-3,0l-1,1l-1,0l-1,2q-1,3 -1,3l0,0l-1,0q-1,0 -3,-3l-1,-3l0,0q0,0 0,-4q-1,-4 0,-4l0,-1l2,-1q3,0 3,0l0,0l0,-1l0,0l1,0l0,-1l0,0l1,0l0,-1l0,-1l2,-1q1,-1 2,-1z" stroke-width="1px" stroke="#4A6E21" fill-rule="evenodd" fill="#4A6E21" id="svg_50"/>
  <path d="m658,574l0,0l0,0l0,0l0,1l0,0l1,0l0,-1l0,0l1,0l0,0l0,0l0,-1l0,0l1,0l0,-1l0,0l1,0l0,0l0,0l2,0l1,0l0,0l1,0l-2,2q-2,2 1,4q3,0 2,1q-1,0 -1,1q0,1 1,1l0,0l0,0q0,1 1,1l0,0l1,2q1,1 1,3l0,2l1,0l0,0l0,1l-1,0l0,0l0,0l0,0q0,0 -1,-1q0,-1 -1,-1q-2,0 -4,4q-2,3 -3,3q-1,0 -1,1l0,1l-1,0l0,1l-1,0l-1,0l0,0q-1,0 -1,-3q-1,-3 -2,-2q0,1 -5,2l-4,1l0,0l-1,0l0,0l0,0l0,-2l0,-1l1,0l0,-1l0,0l1,0l0,0l0,0l0,-1l0,0l1,-1q1,-2 1,-3q0,-1 -2,-1l-1,0l0,0q0,0 0,-2l0,-1l0,0q0,-1 1,-2l1,-2l0,0q1,0 1,-1l0,0l0,0l0,0l1,0l0,0l0,-1l1,0l0,0l0,-1l0,0l0,0l0,-1l0,-1l0,0l0,0l1,-1l1,0l2,1q1,0 2,-2q0,-1 1,0q1,2 1,2z" stroke-width="1px" stroke="#3496AB" fill-rule="evenodd" fill="#3496AB" id="svg_51"/>
  <path d="m643,588l2,-2l1,0q2,0 2,1q0,1 -1,3l-1,1l0,0l0,1l0,0l0,0l-1,1l0,1l0,0q-1,0 -1,1l0,1l0,0l-1,0l0,-1l-1,0l0,0l0,-1l0,0l0,0l-1,0l0,0l0,-1l-1,0l0,-1l0,-1l1,0q0,-1 2,-3z" stroke-width="1px" stroke="#86BDC1" fill-rule="evenodd" fill="#86BDC1" id="svg_52"/>
  <path d="m1049,668l1,1l0,1l0,1l1,0l0,0l0,3q-1,2 -1,2l0,0l-1,1l-1,1l0,0l0,0l0,0q-1,0 -2,1l-1,1l0,0l-1,0l1,4q0,3 -1,3q-1,0 -1,3l-1,2l0,1l0,1l-1,0l0,0l0,-3q-1,-3 -2,-3q-1,0 -6,1l-5,1l0,0q-1,0 -4,-1q-2,0 -2,1q0,1 -4,-2l-4,-2l-1,0l-1,0l-2,0l-1,0l0,0l-1,0l0,-2l0,-3l1,0l0,-1l1,0l2,0l0,1l1,0l0,0l0,1l0,0l1,0l0,0l0,-1l4,-1q4,-2 5,-2q2,-1 2,-2q0,-1 5,0q4,0 4,-1q1,-1 2,-2q2,0 2,-3l0,-3l1,0l0,-1l1,0l2,0l3,0q3,0 3,1q0,0 1,1z" stroke-width="1px" stroke="#5C7E16" fill-rule="evenodd" fill="#5C7E16" id="svg_53"/>
  <path d="m769,653l2,0l0,1l-1,1l0,3q0,2 -2,3q-1,1 -2,1q0,1 -3,1l-2,1l0,0l0,0l-3,0q-4,0 -4,-1q0,0 -1,-1l-1,-2l0,0l0,0l-1,-2l0,-1l1,0q1,0 1,-2l1,-2l3,-3q3,-2 4,-3l1,0l0,0q0,1 0,1l1,0l2,-1q2,-1 2,3q0,4 2,3z" stroke-width="1px" stroke="#4A6429" fill-rule="evenodd" fill="#4A6429" id="svg_54"/>
  <path d="m743,660l0,1l-1,0q0,1 -3,1l-3,0l0,0l0,-1l-1,0l0,-1l0,0l-1,0l0,-2q0,-3 2,-4l2,-1l4,-1q3,0 3,2q-1,3 -1,4q0,0 -1,2z" stroke-width="1px" stroke="#47721A" fill-rule="evenodd" fill="#47721A" id="svg_55"/>
  <path d="m256,321l0,0l0,0l0,1l0,0l0,0l1,0l0,0l1,1l1,0l0,0l0,1l0,0l1,0l0,0l0,0l0,1l0,0l1,0l0,1l0,0l1,0l0,0l0,0l0,1l0,0l1,0l0,1l0,0l1,0l0,0l0,0l0,1l0,0l4,5q4,4 5,4l0,1l0,0q0,1 1,1l0,0l0,0q0,0 0,1l1,0l5,12q6,12 8,25q2,12 3,13l0,1l25,-2q26,-2 36,-2q9,0 19,-5q10,-5 17,-4q6,1 10,3q3,2 16,2q13,0 14,-3q0,-2 15,-6q15,-5 16,-5l1,0l1,-1l1,-1l0,0l0,0l1,0l0,0l0,-1l1,0l0,-1l0,0l0,0q0,0 1,0l0,-1l1,-3q2,-4 5,-4q3,-2 221,-2l217,0l1,1l1,0l0,1l1,1l0,2l0,2l-1,0l0,1l0,0l-1,0l0,0l0,0l0,1l0,0l-1,0l0,1l0,0l-1,0l0,0l0,0l0,1q0,0 -1,2q-1,1 -5,3q-4,2 -14,1q-11,-1 -16,0q-4,2 -4,3q0,1 -8,7q-6,6 -15,9q-8,2 -12,1l-4,-1l0,0q-1,-1 -1,-1l0,0l0,-1q0,-1 0,-2q0,-2 -3,-4q-4,-2 -11,-2q-7,0 -14,2q-6,4 -9,7q-3,4 -5,10l-2,6l0,0l0,1l-2,0l-2,0l0,-1q0,0 -1,-1q-1,0 -7,-4q-6,-4 -14,-4q-8,0 -14,4l-6,4l0,0l0,0l-1,0l0,0l0,1l-1,0l0,0l0,1l0,0l0,0l-1,0l0,0l0,1l-1,0l0,1l0,1l-1,0l0,1l0,0l-1,0l0,0l0,0l1,0l1,0l0,0l0,0l1,-1l1,-1l0,0l0,0l2,-2q1,0 2,-1l1,-1l0,0l1,0l0,0l0,0l2,0l1,0l0,0l-1,0l0,0l0,0l0,1l0,0l-1,0l0,1l0,0l-1,0l0,0l0,0l-1,1q-1,0 -1,1l-1,2l0,0l-1,0l0,0l0,0l0,1l0,0l-1,1l-1,1l0,0l0,1l1,0l1,0l0,-1l0,-1l1,0l0,0l0,-1l1,0l0,0l0,-1l2,0q1,-2 1,-2l1,0l0,0l0,0l1,-1l1,-1l2,0l1,0l0,1l-1,0l0,0l0,1l0,0l0,0l-1,1q-1,1 -1,3l0,1l0,1l0,2l0,-1l0,-1l1,-1l1,-1l1,-1q1,-1 1,-2l0,0l1,0l0,-1l0,0l1,0l0,0l0,0l1,-1l1,0l0,3q0,3 1,3q0,1 1,1l2,0l2,0q1,0 1,0l1,0l0,-2l0,-3l1,0l0,-1l0,0l1,0l0,2l0,1l0,2l0,2l0,0l0,-1l0,0l0,0l1,0l0,0l0,-1l1,0l0,1l0,2l-2,0l-2,0l-2,1q-1,1 -4,2q-4,1 -9,6q-5,5 -7,12l-3,7l0,2l0,3l-4,0q-4,-1 -11,-1l-6,0l0,-1l0,-1l-1,0l-1,0l0,-1l0,0l2,-3q2,-2 3,-3l1,-1l0,-1l0,-1l1,0l0,0l-1,0l-1,0l-1,0l-1,0l-1,1l-1,1l-1,0q-2,0 -6,4l-4,2l-1,1l-1,0l0,-1q0,-1 -2,-4q-1,-2 -2,-2l-1,0l0,-1l-1,0l0,0l0,-1l-1,0l-1,0l0,-1l0,0l0,2l0,2l1,5q1,4 2,6l0,3l-4,0l-4,-1l0,0l-1,0l0,0q0,0 -7,-4q-7,-4 -11,-5l-5,-1l0,1l-1,0l0,1l0,1l1,2l0,2l-2,0l-2,1l0,0l-1,0l0,0l0,0l1,1l1,1l4,0q3,1 3,2q0,2 3,2q4,0 4,1q0,1 2,1q1,0 3,1l2,1l1,0l1,0l0,2l0,1l1,0l1,1l0,0l1,0l0,0l0,0l0,1l0,0l1,0l0,1l-3,0l-2,0l-6,0q-7,0 -10,1l-3,1l0,1l-1,0l0,0l0,1l0,0l0,0l-1,0l0,0l0,1l-1,0l0,0l0,1l0,0l0,0l-1,0l0,0l-1,1l-1,1l0,0l-1,0l0,1l0,1l2,0l3,0l2,-1q2,-1 5,-1l2,0l4,0l3,0l0,0l1,0l0,1l0,1l-1,0l-1,0l-2,1l-2,1l-3,2q-3,2 -5,10q-4,7 -4,12l0,6l1,0l1,0l0,-1l0,0l1,-1l1,-1l0,0l0,-1l0,0l0,0l1,0l0,0l0,-1l1,0l0,0l0,-1l2,-2q2,-2 3,-1q1,1 3,-3q1,-4 3,-4l2,0l0,-1l1,-1l0,0l0,0l0,-1l0,0l1,0l0,-1l0,0l1,0l0,-1l0,-1l1,7l0,7l1,0l1,0l0,-1l1,-1l0,-2l0,-3l1,-1l1,-1l0,13l0,12l1,-1l1,-1l0,-2l0,-2l1,-2q1,-1 2,-6l1,-4l1,-2l1,-1l0,-1l0,-2l1,0l1,0l0,1l0,0l1,1l1,1l0,1l0,0l0,20l0,21l0,7q0,8 -1,9q-1,1 -5,4q-4,3 -10,5q-7,2 -12,2q-4,0 -4,1q0,1 -5,1l-4,1l0,1l-1,1l0,0l0,1l0,0l0,0l-1,0l0,0l0,1l-1,0l0,0l0,1l0,0l0,0l0,0q0,0 -1,-2q-1,-1 -1,0q-1,2 -2,2l-2,-1l0,0l0,-1l-2,0l-1,0l-2,0q-2,0 -8,-2q-5,-2 -17,-10q-11,-8 -18,-12q-7,-4 -7,-5q-1,-1 -12,-8q-11,-7 -19,-7q-7,0 -22,11q-16,10 -22,15q-7,4 -11,9q-5,4 -7,5q-2,2 -12,2q-9,0 -20,0l-10,-1l0,0l-1,-1l-1,0l-1,0l0,-1l-1,0l0,0l0,-1l-2,0q-2,0 -3,-1q-1,-1 -9,-9q-8,-8 -13,-11q-5,-3 -12,-4q-7,-1 -10,1q-3,0 -11,8q-8,6 -23,14q-15,8 -22,8q-7,2 -10,0q-3,-2 -7,-8q-5,-8 -11,-18q-5,-10 -11,-12q-6,-2 -10,0q-4,2 -7,7q-3,5 -8,11q-5,6 -9,7q-5,1 -17,-5q-12,-4 -23,-5q-10,-1 -22,1q-11,2 -18,2q-8,0 -12,-3q-5,-3 -10,-3q-6,0 -20,4q-15,4 -26,10q-12,8 -21,8q-9,0 -41,-12q-31,-12 -36,-12q-6,0 -15,8q-9,8 -11,10l-3,1l0,1l0,1l-1,0l-1,0l0,-1l-1,-1l0,0l0,1l0,0l0,0l-1,0l0,0l-1,1l0,0l0,-75l0,-76l0,0l0,0l1,-1l1,-1l0,0q0,0 5,-1q5,-1 55,-1q51,0 54,-3q2,-3 6,-20q2,-17 6,-27q4,-10 10,-19q6,-9 15,-16l8,-7l9,-5q10,-5 17,-6q7,-1 21,-1q14,0 21,2q7,2 15,6q8,4 10,6q1,0 2,1zm574,68q0,-1 1,-1q1,0 1,1q0,1 -1,1q-1,0 -1,-1z" stroke-width="1px" stroke="#F4FAFD" fill-rule="evenodd" fill="#F4FAFD" id="svg_56"/>
  <path d="m823,503l1,-1l2,0l1,0l0,2l0,2l3,0l2,0l0,1l0,1l-1,0l0,0l-1,1l-1,1l0,0l-1,0l0,0q0,0 -1,1q-1,0 -1,1q0,2 -3,4l-3,3l-1,0l0,1l0,0l-1,0l0,0l0,0l-1,1l-1,1l0,0l0,0l0,1l0,1l0,1l0,1l-1,0l0,0l1,0l1,0l0,0l1,0l0,0l0,0l1,-1l1,-1l2,0q2,-2 6,-2l3,0l1,1l1,1l1,0l2,0l0,1l0,0l1,0l0,1l0,0l1,0l0,0l0,0l-2,1l-2,1l-3,0q-3,0 -5,1l-1,1l-1,0l-1,0l5,3q5,3 8,6q2,4 3,5l0,0l0,0q0,0 1,1l0,0l0,1q0,2 1,3l1,1l0,2l0,1l-1,0l-1,-1l-1,0l-1,0l0,-1l0,0l-1,0q0,-1 -1,-1q0,0 -3,-1l-3,-1l0,0l0,0l-1,0l0,0l0,-1l-1,0l0,0l0,-1l-1,0l-1,0l0,1l0,0l1,1l1,1l0,0l0,1l0,0l0,0l1,0l0,0l0,1l1,0l0,0l0,-1l0,0l0,0l1,1l0,1l3,1q2,1 3,3q1,1 1,2l0,1l1,0l0,1l1,0l0,0l0,1q0,1 -1,1q-1,-1 -1,1q0,2 -1,2l0,0l0,0q-1,0 -2,-2q-1,-1 -2,1q-1,3 -1,0l-2,-3l0,0l0,-1l0,0l0,0l-1,2l-1,1l0,0l0,1l-2,0l-1,0l0,2l1,1l0,0l0,1l0,0l0,0l2,4q2,5 2,12l0,6l0,1l0,1l0,0q-1,0 -6,1q-5,0 -6,2q-1,3 -2,1q-2,-2 -3,-2l-1,0l0,1l0,0l-1,0l0,1l0,0l-1,0l0,0l0,0l0,1l0,0l-1,-1l0,-1l-1,0l-2,0l0,-1l0,-1l0,0l0,-1l2,0q1,0 3,-1q1,-1 1,-5l-2,-5l0,-1l0,-1l-1,-1l0,-2l-1,0l-1,0l0,2q-1,1 -1,2q0,1 -1,0q-1,-1 -4,-1l-3,1l-2,0l-2,0l0,0l-1,0l0,-1l-1,0l0,-1l0,-1l-1,-2q-1,-2 -1,-5q0,-2 2,-3q0,-1 0,-2q-1,-1 -1,-2q1,-1 0,-1q-1,0 -2,-4q-1,-3 1,-4q1,0 1,-2q0,-3 -1,-3q-2,0 -2,-12l0,-12l0,-1q0,-2 2,-2q2,-1 2,-2q0,-2 -1,-4l-1,-2l-1,-1l0,-1l1,0l2,0l2,0l1,0l1,1l2,1l2,0q2,0 2,-2q0,-3 1,-4l1,-1l0,-1l0,-1l1,0l1,0l0,7l0,6l1,0l0,0l0,1l1,0l0,0l0,-1l2,0l1,0l0,-1l1,0l0,0l0,-1l0,0l0,0l5,-6q5,-6 5,-6l0,0l1,-1zm-2,81l0,3l1,1q2,0 2,0q2,0 2,1l0,1l-1,0l0,0l-3,0l-2,0l0,0l0,0l-1,-2q-1,-2 -2,-6l-1,-5l0,-5q2,-5 2,-3q1,3 2,3q1,0 1,2q0,2 1,1q1,0 0,2q-1,1 1,1q3,-1 2,0q0,2 -2,2q-2,1 -2,4z" stroke-width="1px" stroke="#185E37" fill-rule="evenodd" fill="#185E37" id="svg_57"/>
  <path d="m990,562l0,1l2,3q2,4 2,6q0,3 -1,3q-1,1 -1,1l0,0l0,0q0,0 -1,2l-1,1l0,1l0,2l-1,0l-1,0l-1,-1l-1,0l0,-5q0,-4 -3,-9q-2,-5 0,-7q1,-1 3,0q0,2 1,1q0,-1 1,-1q1,0 2,2z" stroke-width="1px" stroke="#AED1D1" fill-rule="evenodd" fill="#AED1D1" id="svg_58"/>
  <path d="m984,646l1,0l0,0l0,0l0,1l1,0l0,1l0,1l1,1l0,1l1,0l1,0l0,-1q1,-1 1,-2l0,-2l1,0l0,0l0,-1l1,0l0,0l0,1l0,0l0,0l1,0l0,0l1,4q0,3 1,2q1,-2 1,-2l0,0l2,1q0,1 0,7q0,5 0,6q2,1 2,2l0,1l-1,0l0,1l0,0l0,0l-1,0q0,0 -2,1q-1,1 -1,0q-1,-1 -2,1l-1,2l0,0q-1,0 -2,-1q-1,-1 -2,0q0,0 -6,1q-6,2 -7,3l-1,1l-1,0l0,0l-1,0l0,0l-2,0l-1,0l0,0l1,0l0,-4q0,-3 0,-4q0,-2 0,-4l-1,-1l-1,-5q0,-6 0,-8q1,-2 4,-3q4,-1 5,-4q1,-3 3,-3q1,-1 2,2q1,4 2,4z" stroke-width="1px" stroke="#4D731E" fill-rule="evenodd" fill="#4D731E" id="svg_59"/>
  <path d="m539,584l1,0l0,2q0,2 1,3l1,1l0,2l0,2l-1,2l0,2l1,0q2,0 2,-2l1,-2l0,0q1,-1 1,-1l0,0l0,0l1,0l0,1q0,1 3,2q4,0 4,0l0,0l5,1q5,1 5,1l1,0l0,0q0,0 -1,2q-2,0 -28,1l-27,1l0,-1l-1,0l0,0l0,-1l-1,0l-1,0l0,-1l0,-1l0,-2l0,-2l1,0l0,0l0,-1l1,0l0,0l0,-1l1,0l1,0l0,-1l0,0l1,0l1,-1l0,0l0,0l2,2q1,2 4,2q3,0 6,-1q4,-1 5,1q1,0 2,-3q1,-3 1,-5q1,-1 4,-1q2,-1 3,-1z" stroke-width="1px" stroke="#487A28" fill-rule="evenodd" fill="#487A28" id="svg_60"/>
  <path d="m1104,593l1,0l0,17l0,17l-1,0q0,-1 -4,-1l-3,0l0,-1q0,-1 -2,-1l-2,0l0,0l0,-1l2,0l2,0l0,-4q-1,-4 -1,-13l-1,-9l3,-1q2,0 3,-1q0,-1 1,-1q1,0 2,-1z" stroke-width="1px" stroke="#748D0D" fill-rule="evenodd" fill="#748D0D" id="svg_61"/>
  <path d="m596,556l2,0l0,2q0,1 -1,2q-1,0 -1,1q0,1 1,2q1,1 3,1l1,0l0,1l0,1l-1,0q-1,0 -1,-1l-1,0l0,1l0,1l-2,0q-2,1 -2,2q0,2 -1,4q-1,1 -2,1q-1,-1 -2,-2l-2,0l0,2l1,2l0,2l0,2l1,0l0,1l-1,0l-1,1l-1,0l-1,0l0,2l0,2l0,0l0,0l-1,1l0,0l0,0l0,0l-1,-4q-1,-4 -1,-5q-1,0 -4,0q-2,1 -2,-1q0,-2 -2,-2q-2,1 -3,-1q-1,-2 -2,-2l-2,1l0,-3l0,-2l-1,0l-1,0l0,-1q-1,-1 -1,-1q0,0 -2,0q-2,2 -3,0q-1,-1 -2,-4q0,-2 -2,-2q-2,0 -2,-1q0,-1 -1,-1l-1,0l-1,0l-1,0l0,0l1,0l0,0l0,0l1,-1q1,-1 3,-2q2,-1 1,-2q-1,-1 -1,-3l-1,-2l3,0q3,1 3,0q0,-1 3,0q3,0 6,-2q2,-2 5,-1q3,1 8,6q5,5 8,5q3,0 4,0q1,0 3,0z" stroke-width="1px" stroke="#2C8556" fill-rule="evenodd" fill="#2C8556" id="svg_62"/>
  <path d="m418,579l1,0l0,1q0,2 1,2l1,0l0,1l-1,0l0,0l0,1l0,0l0,0l0,1l0,1l0,1l0,1l0,1l0,1l0,0l0,0l0,0l1,0l0,0l1,0l0,0l0,0l0,-1l0,0l1,0l1,0l0,0q0,1 0,1l1,0l1,0q1,1 3,6q3,6 3,6q0,0 0,1l1,0l0,1l0,2l-4,0q-4,0 -21,3l-18,3l-2,0l-3,0l0,1l-1,0l0,1l0,0l-1,0q-1,0 -8,0q-7,0 -31,2l-24,1l-11,0q-11,-1 -159,-1l-147,0l-1,0l-1,0l-1,0l0,0l0,-5l0,-5l0,0l0,0l1,0l0,0l19,0q19,0 19,-2q0,-3 9,-4q10,0 17,1q7,1 14,1q7,0 7,-1q0,-1 32,-2q32,-1 42,-4q10,-3 18,-2q8,1 16,5q9,4 26,3q18,-1 26,-4q8,-3 16,-3q7,2 14,4q7,2 28,2q20,0 30,0l10,0l2,-1l3,-1l-1,0l-1,0l0,-1l0,-1l-1,0q-1,0 -2,-1l-2,-1l-1,0l-1,0l0,-1l0,0l-1,0l0,-1l19,0q18,0 21,-2q3,0 19,-1q16,-1 18,-3q2,-3 1,-5q0,-2 1,-2z" stroke-width="1px" stroke="#A5CFE3" fill-rule="evenodd" fill="#A5CFE3" id="svg_63"/>
  <path d="m786,526l1,0l1,-1l0,0l0,12q0,12 2,12q1,0 1,3q0,2 -1,2q-2,1 -1,4q1,4 2,4q1,0 0,1q0,1 1,2q0,1 0,2q-2,1 -2,3q0,3 1,5l1,2l0,1l0,1l1,0l0,1l1,0l0,0l0,1q0,1 1,1q1,0 1,1l0,1l0,2q0,1 1,2l0,1l0,2q-1,2 3,15q2,12 3,14l0,2l-2,0l-2,0l0,1l-1,0l0,0l0,1l0,0l0,0l-1,0l0,0l0,1l-1,0l0,0l0,0l-1,0l-1,1l0,0l0,0l-1,0l0,0l0,-1l-1,0l0,-1l0,-2l-1,-2q-1,-2 -3,-12l-2,-9l0,-3q0,-2 -2,-7q0,-5 -2,-5q-1,1 -1,0q0,-1 1,-1q1,0 0,-3q0,-2 -1,-2l-1,0l0,0q0,-1 -1,-1l0,0l0,-1l0,0l0,-2l0,-2l0,0q1,0 1,0q0,0 0,-5q0,-6 -1,-6l-1,0l0,0q0,-1 1,-5q1,-5 -1,-8l-2,-2l0,0q0,0 1,0q1,0 3,-5q1,-5 0,-5l-1,0l0,0q0,0 1,-1l0,0l0,0q0,0 1,-1l0,0l1,0q1,0 1,-1l1,-1l0,0l0,0l0,-1l0,0l1,-2q1,-2 1,-3z" stroke-width="1px" stroke="#987E52" fill-rule="evenodd" fill="#987E52" id="svg_64"/>
  <path d="m566,596l0,-2l1,19q1,19 2,19q1,1 1,2l0,1l0,0q0,0 -2,1q-1,0 -1,1q0,1 -4,1l-4,0l0,0l-1,-1l0,0l0,-1l-1,0l-1,0l-2,0q-2,0 -4,0q-1,0 -27,-6q-26,-6 -37,-6l-11,0l-1,0l0,0l-2,0q-1,0 -14,-3q-14,-3 -41,-5l-27,-2l-3,0l-3,0l0,0l0,-1l1,0l0,-1l3,0l2,0l18,-3q17,-3 21,-3l4,0l0,-2l0,-1l1,0q1,0 1,1q0,1 1,0q2,0 1,-1q-1,-1 0,-4l0,-3l1,0l1,0l0,0l0,0l0,1l1,0l0,0l0,1l0,0l0,0l1,0l0,0l4,0q4,0 6,0q2,2 5,2q2,0 3,0l1,0l0,0l0,0l1,0l0,0l1,0l1,0l1,0q1,0 1,1l1,1l3,-1q3,-1 5,-1q2,0 5,0q3,0 3,-2q-1,-2 0,-1q2,1 3,1l1,0l0,0l0,0l1,1l1,1l1,0l1,0l2,0q3,0 4,-1q0,-1 4,-1q3,0 4,0l2,0l0,1l0,1l1,0l1,0l0,1l0,0l1,0l0,1l27,-1q26,-1 28,-1q1,-2 1,-2l0,0l0,0q1,-1 1,-2z" stroke-width="1px" stroke="#718F0D" fill-rule="evenodd" fill="#718F0D" id="svg_65"/>
  <path d="m584,586l0,0l0,0q-1,0 0,1l0,0l0,0q0,1 -2,1q-3,2 -8,-3l-5,-4l0,0q0,-1 -1,-1l-1,0l0,-1l-1,-1l0,0q0,0 0,-1l0,0l0,0l0,0l1,-2l0,-2l2,-1q1,0 2,2q1,2 3,1q2,0 2,2q0,2 2,1q3,0 4,3q2,4 2,5z" stroke-width="1px" stroke="#BBD8D7" fill-rule="evenodd" fill="#BBD8D7" id="svg_66"/>
  <path d="m620,643l0,0l0,0q0,0 -1,1q-1,1 -4,2l-4,0l0,-2q0,-3 5,-4q4,0 5,0q1,0 1,1q0,1 -1,1q-1,0 -1,1z" stroke-width="1px" stroke="#477618" fill-rule="evenodd" fill="#477618" id="svg_67"/>
  <path d="m828,391l0,0l0,0q0,0 1,1l0,0l0,0q0,0 -1,0l-2,0l0,-1l0,0l-1,0l0,-1l0,0l-1,0l0,0l0,0l0,-1l0,0l-1,0l0,-1l-1,0l-1,0l0,1l1,1l0,1l0,1l1,1l1,1l0,0l0,1l0,1q0,2 -2,-1q-2,-3 -2,-1q0,1 -2,1l0,0l-1,2l-1,2l0,1l0,1l4,0q4,1 5,1l1,0l6,4q6,4 6,4l1,0l0,1l1,1l0,1q2,1 2,2l0,1l1,1l1,1l0,1l0,1l-1,0l0,0l0,-1l-1,0l0,0l0,-1l0,0l0,0l-1,0l0,0l0,-1l-1,0l0,0l0,-1l0,0q0,0 -2,-2l-2,-1l0,0l0,-1l0,0l0,0l-1,0l0,0l-1,-1l-1,0l0,1q1,2 1,5l0,3l-1,-2l-1,-1l0,-1q0,-2 -1,-3l-1,-1l0,0l0,0l-1,2q-1,3 -1,2q-2,-2 -2,0l0,3l-2,0l-1,-1l-1,0l-1,0l-1,-1q-1,0 -1,-4l-1,-4l0,0l0,-1l0,0l0,0l-1,4l-1,3l0,0l0,-1l0,0l0,0l-1,0q0,0 -1,-2q-1,0 -1,2l0,2l-1,0l-2,0l0,-1q0,-1 -2,-2l-2,-1l0,1q0,0 1,1q1,1 -1,1l-2,1l0,-1l0,0l-1,0l0,-1l-1,0l-1,0l0,1l1,0l0,0l0,1l0,0l0,0l1,0l0,0l0,1l1,0l0,0l0,1l0,0l0,0l1,0l0,0l0,1l1,0l8,3q8,3 12,7q4,4 6,11q4,8 3,14q-1,5 -1,6q0,2 -1,4l-1,1l0,1l0,1l-1,0l0,1l0,0l-1,0l0,1l0,1l-1,0l0,0l0,1l-1,0l0,0l0,1l0,0l0,0l-1,0l0,0l0,1l-1,0l0,-1l0,-1l1,0l0,-1l0,0l1,0l0,0l0,0l0,-1l0,0l1,-1l1,-2l0,-2l0,-1l-1,1q-1,1 -3,2l-2,0l0,0l0,0l1,-1l1,-1l0,-1q0,-1 -1,-1q-1,0 -1,-1q0,-1 -3,-1q-3,0 -3,-1q1,-1 0,-2l0,-1l0,-1l0,0l1,-3q0,-4 2,-5l2,-1l0,0l1,0l0,-2l0,-1l-1,0q0,1 -1,1q-2,2 -2,0l0,-2l0,0l0,-1l-1,-1l0,-1l-5,0q-4,1 -5,1q-1,0 -5,1q-3,0 -2,1q0,2 0,2q-1,1 -1,2q0,2 -1,2q-1,0 -2,3l0,2l-1,0l0,1l0,0l-1,0l0,-1q0,-1 -2,-3q0,-2 -1,-1l-1,1l0,0l0,0l-1,0l0,0l0,-1l-1,0l0,0l0,-1l0,0l0,0l-1,2l0,1l-1,0l0,1l-1,0q-1,1 -2,4l-1,3l0,0l0,1l-1,0l-1,0l0,-1q0,-1 -2,-2q-1,-1 -4,1l-2,2l-1,0l-1,0l0,-4q0,-3 1,-4l0,-1l-1,0l-2,1l0,0q0,0 -2,2l-2,1l0,-1l0,-1l-1,0l0,1l-1,0l-1,0l0,-4q1,-3 2,-6l2,-4l0,0l1,0l0,0l0,0l0,-1l0,0l1,0l0,-1l-3,0q-2,0 -3,1l-1,0l0,-1q0,-2 2,-4l0,-1l1,0l0,-1l0,0l1,0l0,-1l0,-1l-1,0l-1,0l-1,0l-1,0l0,0l0,0l-1,-1l0,-1l-1,0l-1,0l0,4l-1,4l0,0q0,0 -1,-2q-1,-2 -1,1l0,3l-1,0l0,0l0,-1l-1,0l0,0l0,-1l0,0l0,0l-1,0q0,0 -1,-1l-1,-1l0,0l-1,0l0,1l0,1l1,0l0,0l0,1l1,0l0,1q0,1 1,2q1,0 1,2l0,1l0,1l0,1l-1,1l-1,1l0,0l0,1l0,0l0,0l-1,0l0,0l0,-1l-1,0l0,-1q0,-1 -2,-2q-1,0 0,2q0,2 0,2q-1,1 -2,-1l-1,-1l0,-1l-1,0l0,1l0,1l1,1q1,2 1,4l0,1l1,0l0,1l-1,0l-1,0l0,-1l-1,0l0,0l0,-1l0,0l0,0l-1,0l0,0l0,-1l-1,-1l0,-2l0,-1l-1,1l-1,1l0,0l0,0l0,-1q0,-1 -2,-2l-1,0l3,-7q2,-7 7,-12q5,-5 9,-6q3,-1 4,-2l2,-1l2,0l2,0l0,-2l0,-1l-1,0l0,1l0,0l-1,0l0,0l0,0l0,1l0,0l-1,-2l-1,-2l0,1l0,2l-1,0q0,0 -1,0l-2,0l-2,0q-1,0 -1,-1q-1,0 -1,-3l0,-3l-1,0l-1,1l0,0l0,0l-1,0l0,0l0,1l-1,0l0,0q0,1 -1,2l-1,1l-1,1l-1,1l0,1l0,1l0,-2l0,-1l0,-1q0,-2 1,-3l1,-1l0,0l0,0l0,-1l0,0l1,0l0,-1l-1,0l-2,0l-1,1l-1,1l0,0l0,0l-1,0q0,0 -1,2l-2,0l0,1l0,0l-1,0l0,1l0,0l-1,0l0,1l0,1l-1,0l-1,0l0,-1l0,0l1,-1l1,-1l0,0l0,-1l0,0l0,0l1,0l0,0l1,-2q0,-1 1,-1l1,-1l0,0l0,0l1,0l0,0l0,-1l1,0l0,0l0,-1l0,0l0,0l1,0l0,0l-1,0l-2,0l0,0l0,0l-1,0l0,0l-1,1q-1,1 -2,1l-2,2l0,0l0,0l-1,1l-1,1l0,0l0,0l-1,0l-1,0l0,0l0,0l1,0l0,0l0,-1l1,0l0,-1l0,-1l1,0l0,-1l0,0l1,0l0,0l0,0l0,-1l0,0l1,0l0,-1l0,0l1,0l0,0l0,0l6,-4q6,-4 14,-4q8,0 14,4q6,4 7,4q1,1 1,1l0,1l2,0l2,0l0,-1l0,0l2,-6q2,-6 5,-10q3,-3 9,-7q7,-2 14,-2q7,0 12,3q6,3 6,4q0,1 -2,1q-2,0 -2,0q0,0 0,1zm-65,20l0,-1l0,0l1,0l0,0q0,1 -1,1z" stroke-width="1px" stroke="#1A603C" fill-rule="evenodd" fill="#1A603C" id="svg_68"/>
  <path d="m580,315l2,0l0,0q0,1 -18,11q-18,10 -26,10q-7,0 -26,-3l-20,-4l-2,0q-2,-1 -17,-4l-15,-3l0,-1q0,-1 -3,-1q-3,0 -12,-2l-9,-1l0,0l0,-1l-2,0l-1,0l0,0l0,0l1,-1l1,-1l25,-1q24,-1 66,-1q43,0 42,1q0,1 6,1q7,0 8,1z" stroke-width="1px" stroke="#56BCF4" fill-rule="evenodd" fill="#56BCF4" id="svg_69"/>
  <path d="m1001,630l0,0l5,2q6,2 4,4q0,3 1,5q1,2 1,5l0,3l0,0l0,1l0,0l0,0l1,0l0,0l0,1l1,0l0,0l0,-1l0,0l0,0l1,0l0,0l0,-1l1,0l0,0l0,-1l2,0l1,0l-1,3q-1,3 -2,3q-1,0 -4,6q-3,6 -4,6q-1,0 -1,1q-1,1 -1,1l0,0l0,1l0,0l-1,1l0,1l0,1l-1,0l0,0l0,0l-1,-1l-1,-1l-2,0l-1,0l0,-1l0,-1l0,0l0,0l0,-1l1,0l0,-1q0,-1 -2,-2q0,-1 0,-6q0,-6 0,-7l-2,-1l0,0q0,0 -1,2q-1,1 -1,-2l-1,-4l0,0l-1,0l0,0l0,0l0,-1l0,0l-1,0l0,1l0,0l-1,0l0,2q0,1 -1,2l0,1l-1,0l-1,0l0,-1l-1,-1l0,-1l0,-1l-1,0l0,-1l0,0l0,0l0,0l0,0l0,-1l1,0l0,-4q1,-3 5,-4q4,-1 5,-3q0,-3 2,-3q3,-1 3,-1z" stroke-width="1px" stroke="#5F791E" fill-rule="evenodd" fill="#5F791E" id="svg_70"/>
  <path d="m422,318l7,0l7,1q8,1 10,2q2,1 7,1l5,0l15,3q15,3 17,4l2,0l0,0q0,1 -18,1l-17,0l-2,1q-2,1 3,1q4,0 -1,0q-5,0 -6,2q-1,1 -3,1q-2,1 -4,3l-3,2l0,0l-1,0l0,0l0,0l0,0q-1,0 -4,2q-3,2 -73,3q-70,1 -75,1q-4,0 -8,-2l-5,-3l0,-1q-1,0 -1,0l0,0l0,0q0,-1 -1,-1l0,0l0,-1q-1,0 -5,-4l-4,-5l0,0l0,-1l0,0l0,0l-1,0l0,0l0,-1l-1,0l0,0l0,-1l0,0l0,0l-1,0l0,0l0,-1l-1,0l0,0l0,-1l0,0l0,0l-1,0l0,0l0,-1l0,0l3,0l2,1l0,0l1,0l0,-1l1,0l0,0l0,1l2,0q3,0 3,-1q0,-1 63,-1q62,-1 72,-2q9,-2 16,-2z" stroke-width="1px" stroke="#75C8F7" fill-rule="evenodd" fill="#75C8F7" id="svg_71"/>
  <path d="m694,439l0,-2l0,0l0,1l1,0l1,0l0,1l0,0l1,0l0,1l1,0q1,0 2,2q2,3 2,4l0,1l1,0l1,-1l4,-2q4,-4 6,-4l1,0l1,-1l1,-1l1,0l1,0l1,0l1,0l0,0l-1,0l0,1l0,1l-1,1q-1,1 -3,3l-2,3l0,0l0,1l1,0l1,0l0,1l0,1l6,0q7,0 11,1l4,0l0,-3l0,-2l1,0q2,1 2,2l0,1l0,1l0,1l1,0l0,1l1,0l1,0l0,0q0,0 -1,1l-1,1l0,0l-1,0l1,4q0,5 3,7q4,3 4,3l0,0l1,0l0,0l0,1l1,0l0,0l0,1l0,0l0,0l1,0l0,0l1,1l1,0l0,1l0,1l-1,0l-1,-1l-2,0l-2,0l-3,-1q-2,0 -2,1q0,2 -2,1l-1,-1l0,0l-1,0l0,0l0,0l-2,-1l-1,-1l-1,0l-1,0l0,1l1,1l0,1l0,1l1,0l1,0l1,1q1,0 3,3q2,4 3,5l1,1l0,0l0,0l0,1l0,0l1,1l1,1l0,1l0,2l0,2l0,1l0,0l0,-1l0,0l0,0l-1,0l0,0l0,-1l-1,0l0,0l0,-1l-1,0l-1,0l0,-1l0,0l-1,0l0,-1l0,0l-1,0l0,0q0,0 -4,-3l-3,-3l0,0l-1,0l0,0l0,0l0,-1l0,0l-1,0l0,-1l-1,0l-1,0l-2,-1l-2,0l0,1l1,1l0,1l0,1l1,0l0,1l0,0l1,0l0,1q0,1 1,1l0,0l0,1l1,0l0,1l0,1l1,0l0,1l-1,0q-1,0 -2,-2l-2,-2l0,0l0,0l0,1l0,1l2,6q2,6 2,8l0,3l0,3l0,2l0,0l0,0l0,1l0,0l-1,0l0,-1l0,0l-1,0l0,0l0,0l0,-1l0,0l-1,0q0,-1 -2,-2l-1,-2l-1,-1l0,-1l-1,0l-1,0l0,3q-1,3 -1,4l0,2l-1,-2l-1,-1l0,0l0,-1l-2,0l-1,0l0,-2q-1,-2 -1,-7q-2,-5 -2,-4q0,1 -2,1l-2,0l0,-1l0,-1l0,-2l0,-2l0,0l0,0l0,-1l0,0l-1,6l0,6l0,3l-1,2l0,-1l0,-1l-1,0l0,0l0,-1l-1,0l0,-1q0,-1 -1,-2l-1,-2l0,0l0,-1l-1,-1l-1,-1l0,0l0,-1l-1,0l-1,0l0,2l0,1l-1,1l-1,2l-1,4q-1,5 -2,6l-1,2l0,2l0,2l-1,1l-1,1l0,-12l0,-13l-1,1l-1,1l0,3l0,2l-1,1l0,1l-1,0l-1,0l0,-7l-1,-7l0,1l0,1l-1,0l0,0l0,1l-1,0l0,0l0,1l0,0l0,0l-1,1l0,1l-2,0q-2,0 -3,4q-2,4 -3,3q-1,-1 -3,1l-2,2l0,1l0,0l-1,0l0,1l0,0l-1,0l0,0l0,0l0,1l0,0l-1,1l-1,1l0,0l0,1l-1,0l-1,0l0,-6q0,-5 4,-12q2,-8 5,-10l3,-2l2,-1l2,-1l1,0l1,0l0,-1l0,-1l-1,0l0,0l-3,0l-4,0l-2,0q-3,0 -5,1l-2,1l-3,0l-2,0l0,-1l0,-1l1,0l0,0l1,-1l1,-1l0,0l1,0l0,0l0,0l0,-1l0,0l1,0l0,-1l0,0l1,0l0,0l0,0l0,-1l0,0l1,0l0,-1l3,-1q3,-1 10,-1l6,0l2,0l3,0l0,-1l-1,0l0,0l0,-1l0,0l0,0l-1,0l0,0l-1,-1l-1,0l0,-1l0,-2l-1,0l-1,0l-2,-1q-2,-1 -3,-1q-2,0 -2,-1q0,-1 -4,-1q-3,0 -3,-2q0,-1 -3,-2l-4,0l-1,-1l-1,-1l0,0l0,0l1,0l0,0l2,-1l2,0l0,-2l-1,-2l0,-1l0,-1l1,0l0,-1l5,1q4,1 11,5q7,4 7,4l0,0l1,0l0,0l4,1l4,0l0,-3q-1,-2 -2,-6l-1,-5l0,-2zm44,22l-2,-1l-2,0q-1,0 -5,-1q-4,-1 -3,-1l1,0l5,-2q5,-2 6,2q1,3 0,3z" stroke-width="1px" stroke="#185D39" fill-rule="evenodd" fill="#185D39" id="svg_72"/>
  <path d="m900,630l3,-4l2,0q2,0 2,2q1,3 1,3l0,0l0,0l0,0l1,0l0,1l0,0l1,0l1,1q1,1 2,-1q1,-2 2,-2l1,0l0,1l0,0l0,1q-1,0 -1,1l0,0l0,0l-1,0l0,1l0,1l-1,1l-1,2l0,2l0,1l-1,3q-1,4 -1,6l0,2l-1,0q-1,0 -1,-1q0,-1 -2,-1q-2,-1 -2,0l0,1l-1,0l0,1l0,0l0,0l-3,0l-2,0l-1,1l-1,0l0,0l-1,0l0,0l0,-1l0,0l1,0l0,0l0,0l0,-1l0,0l0,-1l0,-1l0,-3q0,-3 1,-8q1,-4 3,-8z" stroke-width="1px" stroke="#4F761B" fill-rule="evenodd" fill="#4F761B" id="svg_73"/>
  <path d="m456,582l3,0l0,0q0,0 2,1l2,0l1,1q2,2 1,6q-1,4 -2,2q-1,-1 -2,0l0,0l-1,0q-1,0 -3,0q-2,0 -2,-1q1,-1 0,-5q-1,-3 1,-4z" stroke-width="1px" stroke="#407E72" fill-rule="evenodd" fill="#407E72" id="svg_74"/>
  <path d="m679,611l1,-1l2,0l2,0l1,1l1,1l0,0l0,0l1,1l1,1l0,0l0,0l0,1l0,0l2,3q0,4 0,5q0,1 -1,4l0,3l-1,0q0,0 0,1q-1,1 -4,1q-3,1 -4,-2q0,-4 -2,-4q-1,0 -1,-1q0,-1 -2,-1q-2,0 -2,2q-1,1 -1,0l-1,-2l0,-1q1,-1 1,-3l0,-1l0,0l0,0l1,0l0,-1l2,0q2,0 3,-4q0,-3 1,-3z" stroke-width="1px" stroke="#3A6F19" fill-rule="evenodd" fill="#3A6F19" id="svg_75"/>
  <path d="m1099,553l1,0l0,1l0,0l0,2l0,3l1,1l0,2l2,0l2,0l0,16l0,15l-1,0q-1,1 -2,1q-1,0 -1,1q-1,1 -3,1l-3,1l0,-1q-1,-2 -3,-20l-3,-19l1,0l1,0l0,0l1,0l0,0l0,1l1,0l1,0l2,1q1,0 2,-3q0,-3 1,-3z" stroke-width="1px" stroke="#1D5E2C" fill-rule="evenodd" fill="#1D5E2C" id="svg_76"/>
  <path d="m625,581l-2,-3l11,1q12,1 12,0q0,-1 1,-1l1,0l-2,2q-1,2 -1,3l0,0l-1,0q0,1 -7,3q-7,4 -8,1q-1,-3 -4,-6z" stroke-width="1px" stroke="#A0CBD3" fill-rule="evenodd" fill="#A0CBD3" id="svg_77"/>
  <path d="m1088,551l0,-2l4,1q4,0 4,1l1,0l0,1q-1,0 -4,0l-3,1l-1,0q-1,0 -1,-2z" stroke-width="1px" stroke="#38684F" fill-rule="evenodd" fill="#38684F" id="svg_78"/>
  <path d="m910,491l1,-3l1,-1l0,0l0,9q-1,8 0,8q1,0 2,24q2,25 2,28q1,2 2,3l0,0l1,10q1,10 2,11l0,1l2,9q3,9 3,10l0,1l1,6q1,6 2,10l1,4l0,1l0,0l-1,0l0,0l-1,1l-2,1l-1,0l-1,0l0,1l0,0l-1,0l0,1l0,0l-1,0l0,0l0,0l-1,0l-1,0l0,0l0,0l0,-2l0,-2l-1,0l-1,0l0,0q0,-1 -3,-14l-3,-14l0,0l0,0l0,-1l0,0l0,-3l0,-2l0,-2q0,-3 -1,-8q-1,-5 -4,-5l-3,1l0,0l0,0l-1,-1l0,-1l3,0q3,0 3,-2q0,-2 -1,-2q-1,0 -1,-1q1,-1 1,-4q0,-3 -1,-3l-1,0l0,0q0,0 1,-1q1,0 0,-29l-1,-30l0,-1q0,-1 1,-2l1,-1l0,-1q0,-1 2,-4z" stroke-width="1px" stroke="#9F7E53" fill-rule="evenodd" fill="#9F7E53" id="svg_79"/>
  <path d="m0,616l1,0l1,0l1,0l147,0q148,0 159,1l11,0l0,0q0,1 -4,1q-3,2 -2,2q2,2 -6,3q-7,1 -6,2q1,1 -2,1l-4,2l-2,0l-2,0l-2,1l-1,1l1,0l1,0l3,1l3,1l47,9q48,9 68,14q21,5 22,5l2,0l0,0l0,0l2,1l3,1l25,6q26,6 27,7l1,1l2,0l1,0l3,1l2,1l0,0l0,0l-2,0l-2,0l-1,1l-1,1l-1,0l-1,0l-3,1q-3,1 -6,1q-3,0 -85,1q-82,1 -125,1q-43,2 -44,2q-1,0 -15,0q-13,0 -32,0q-19,0 -20,0q-1,0 -8,0q-8,0 -80,-1q-72,-1 -74,-1l-1,0l0,-1l-1,-1l0,0l0,0l0,-33l0,-33l0,0z" stroke-width="1px" stroke="#BEE0F9" fill-rule="evenodd" fill="#BEE0F9" id="svg_80"/>
  <path d="m1063,635l0,-1l3,0l2,0l0,3q0,3 0,7q2,5 2,6q2,1 2,2l0,2l1,0q1,0 1,1l0,1l1,0l0,0l0,1l1,0l0,0l0,1l0,0l0,0l1,1l1,1l0,0l0,0l0,-1l0,0l1,-1l1,-1l0,-1l0,-1l1,-1l0,-2l1,0l1,0l1,0q2,0 2,-1q1,-1 2,-1l1,0l0,2q-1,1 -1,4l0,2l1,0l0,0l0,1l1,0l3,-4q4,-3 5,-4q2,-1 2,1q1,2 2,2q0,1 -2,4q-2,2 -2,2l0,0l0,1l0,0l-1,1l0,2l3,-1q3,-1 4,-2l1,0l0,21l0,20l0,0l-1,0l0,3l0,3l-1,0q0,0 -1,1q0,1 -4,1q-4,0 -5,0q-1,-2 -3,0q-1,0 -4,1l-3,1l0,-1q-1,0 -1,-4q-1,-4 -3,-4q-2,-1 -4,-2q-2,-1 -7,-2q-4,-1 -5,-3q-1,-2 -2,-2l-1,1l0,0q0,-1 0,-5q0,-4 -2,-6q-2,-1 -2,-4q1,-3 0,-3q-2,1 -5,1l-3,0l0,0l0,0l1,-1l1,-1l0,0q0,0 1,-2l0,-3l0,-1l1,-2l0,-4q0,-4 3,-4q2,-1 2,-2q-1,-1 -1,-10l0,-8l1,0l1,0l0,-1l0,0l1,0l0,-1l0,0l1,0l0,0l0,0l0,-1l0,0l1,0l0,-1l0,0l1,0l0,0l0,0l0,-1l0,0l1,0z" stroke-width="1px" stroke="#4A7617" fill-rule="evenodd" fill="#4A7617" id="svg_81"/>
  <path d="m426,316l5,0l1,0l2,0l0,1l0,0l-2,0q-3,1 -3,1l0,0l-7,0q-7,0 -14,1q-8,1 -8,2q0,1 -1,1q-1,0 -1,-1q0,-1 -1,-1q-1,1 -63,2q-63,0 -63,1q0,1 -3,1l-2,0l0,-1l0,0l-1,0l0,1l-1,0l0,0l-2,-1l-3,0l-1,0l-1,-1l0,0l-1,0l0,0l0,0l0,-1l0,0l0,0l0,-1l2,0l1,0l0,-1l0,-1l1,0l1,0l2,0q3,0 6,-1q4,-1 69,-1q66,0 66,-1q0,-1 1,-1q1,0 1,1q1,1 8,1q6,0 12,0z" stroke-width="1px" stroke="#55BBF4" fill-rule="evenodd" fill="#55BBF4" id="svg_82"/>
  <path d="m476,592l-2,0l0,-2q0,-3 -1,-4q-1,-1 5,-1q6,0 5,4q-1,4 -2,5q-2,0 -3,-1q0,-1 -2,-1z" stroke-width="1px" stroke="#407F72" fill-rule="evenodd" fill="#407F72" id="svg_83"/>
  <path d="m604,577l2,-1l0,0l0,0l0,1l0,1l-1,2q-1,3 1,4q2,2 3,2l0,0l1,1l0,0l2,3q2,2 3,3l1,1l2,0q1,0 3,1q2,0 1,-8l0,-8l0,0q0,-1 0,-1l1,0l2,3q3,3 4,6q1,3 8,-1q7,-2 7,-3l1,0l0,1q0,2 0,2l0,0l-2,2q-2,2 -2,3l-1,0l0,1l0,1l1,0l0,1l0,0l1,0l0,0l0,0l0,1l0,0l1,0l0,1l1,0l0,0l0,0l0,0l1,-1l0,-1l4,0q5,0 5,-1q1,-1 2,2q0,3 1,3l0,0l0,0q0,0 1,1l2,1l0,0l0,0l1,0l0,0l0,1l1,0l0,1l0,1l2,0l1,0l0,0l0,1l-3,0l-4,0l-2,0q-1,0 -17,0q-16,0 -34,-1q-18,-2 -19,-9l-1,-6l0,-1l0,-1l0,-2l0,-2l1,0l1,0l1,-1l1,0l0,1l0,2l1,0l1,0l0,-1l1,0l0,0l0,-1l1,0q1,0 1,-1q1,-1 4,-2q3,-1 4,-1l1,0l1,-1z" stroke-width="1px" stroke="#3F7321" fill-rule="evenodd" fill="#3F7321" id="svg_84"/>
  <path d="m383,614l1,0l3,0l3,0l31,7q31,7 33,8l2,0l2,3q3,2 4,3l1,1l4,1q4,1 5,2q0,1 3,2q3,1 3,2q1,1 2,1q2,0 1,0q-1,0 2,1q3,0 3,1q2,1 2,1l0,1l0,0l0,0l1,0l0,0l1,1l1,1l1,0l0,0l0,2l0,1l1,0l0,1l-2,0l-2,0l0,1l0,1l-1,0l-2,0l-2,-1q-2,-1 -9,-1q-7,0 -20,3l-13,3l-3,0l-3,0l-2,0q-1,0 -22,-5q-20,-5 -68,-14l-47,-9l-3,-1l-3,-1l-1,0l-1,0l1,-1l2,-1l2,0l2,0l4,-2q3,0 2,-1q-1,-1 6,-2q8,-1 6,-3q-1,0 2,-2q4,0 4,-1l0,0l24,-1q24,-2 31,-2q7,0 8,0z" stroke-width="1px" stroke="#FADCBA" fill-rule="evenodd" fill="#FADCBA" id="svg_85"/>
  <path d="m647,572l2,0l1,0l2,0l0,1l0,0l-1,0l-1,1l0,0l0,0l0,1l0,1l0,0l0,0l0,1l0,0l-1,0l0,1l0,0l-1,0l0,0l0,0l0,0l-1,0l0,1l0,0l-1,0l0,1l-2,0q-1,0 -11,-1l-10,-1l-1,0q0,0 0,1l0,0l0,0q0,0 -1,1q0,1 -1,1q-2,1 -1,3q1,2 -4,2l-5,1l0,0l-1,-1l0,0q-1,0 -3,-2q-2,-1 -1,-4l1,-2l0,-1l0,-1l0,0l0,0l-2,1l-1,1l-1,0q-1,0 -4,1q-3,1 -4,2q0,1 -1,1l-1,0l0,1l0,0l-1,0l0,1l-1,0l-1,0l0,-2l0,-1l0,-1l-1,0l0,-2l0,-2l-1,-2l0,-2l2,0q1,1 2,2q1,0 2,-1q1,-2 1,-4q0,-1 2,-2l2,0l0,-1l0,-1l0,-1l0,0l0,0q0,0 -1,-1q-1,-1 -1,-2q0,-1 1,-1q1,-1 1,-2l0,-2l-2,0q-2,0 -3,0q-1,0 -4,0q-3,0 -8,-5q-5,-5 -8,-6q-3,-1 -5,1q-3,2 -6,2q-3,-1 -3,0q0,1 -3,0l-3,0l1,2q0,2 1,3q1,1 -1,2q-2,1 -3,2l-1,1l0,0l0,0l-1,0l0,0l1,0l1,0l1,0q1,0 1,1q0,1 2,1q2,0 2,2q1,3 2,4q1,2 3,0q2,0 2,0q0,0 1,1l0,1l1,0l1,0l0,2l0,3l0,2l-1,2l0,0l0,0l0,0l-1,-1l0,0l-1,0l0,0l0,0l-1,-1q-1,-1 -5,-1q-3,-1 -2,2q0,2 -2,2l-2,1l-2,0q-2,1 -4,1q-1,0 -1,2l0,1l0,1l0,0l0,0q-1,0 -1,1q0,1 -2,0l-2,-1l-1,0q-1,0 -3,1q-3,0 -4,1q0,2 -1,5q-1,3 -2,3q-1,-2 -5,-1q-3,1 -6,1q-3,0 -4,-2l-2,-2l0,0l0,0l-1,1l-1,0l-2,0q-1,0 -1,-3q-1,-4 -2,-6q-2,-2 -6,0l-4,1l0,-1q-1,0 -1,0q-1,0 -4,0q-2,0 -12,-1l-11,-1l0,0q0,0 -9,-1q-10,-1 -12,-2l-3,-1l0,0q0,0 -1,0l-2,0l-1,0q-1,1 -1,2l0,1l-2,0l-1,-1l-3,0l-2,0l0,0l0,0l1,-1l1,-1l1,0l1,0l1,-1l1,-1l1,0l1,0l5,-1q5,-1 5,-1q1,0 4,0l4,0l0,0l1,0l0,-1l1,0l0,0l0,-1l1,0l1,0l2,0l1,0l0,0l-1,0l0,0l0,0l0,-1l0,0l10,1q11,0 20,0q10,0 12,-2q2,-1 7,-5q4,-5 11,-9q6,-5 22,-15q15,-11 22,-11q8,0 19,7q11,7 12,8q0,1 7,5q7,4 18,12q12,8 17,10q6,2 8,2z" stroke-width="1px" stroke="#CCE4EC" fill-rule="evenodd" fill="#CCE4EC" id="svg_86"/>
  <path d="m687,591l0,1l-1,0q0,0 -1,1q-1,1 -4,2q-3,1 -3,3q0,2 -5,3l-5,1l0,0l-1,0l-1,0q-1,0 -1,-2q1,-1 3,-4q2,-2 2,-4l0,-2l0,0l0,0l1,0l0,-1l0,0l1,0l0,0l0,-1l0,0l0,0l4,0q2,-1 4,-2q1,0 1,1q0,2 3,3q2,0 3,1z" stroke-width="1px" stroke="#3B9398" fill-rule="evenodd" fill="#3B9398" id="svg_87"/>
  <path d="m1034,555l1,-1l2,0q1,1 1,3q0,1 -2,2l-2,1l-1,0q-1,0 -2,1q-1,0 -1,-2q0,-2 2,-3q2,0 2,-1z" stroke-width="1px" stroke="#C3DECF" fill-rule="evenodd" fill="#C3DECF" id="svg_88"/>
  <path d="m773,580l0,-1l1,0l0,0l0,0q0,1 2,1l1,0l0,-1q1,0 1,-1l0,-2l0,0l1,0l0,0l0,1l0,0q1,0 1,1l0,0l1,0q1,0 3,8q2,8 2,10l0,3l0,1q0,2 -18,2q-18,0 -18,-1l-1,-1l1,0q1,0 2,1q0,1 1,-3q1,-3 -2,-5q-3,-1 -5,-3l-2,-2l0,0q0,0 -2,-1q-2,0 -3,-2l-1,-2l-1,0q-1,-1 -2,-1l-1,-1l0,0l0,-1l-1,0l-1,0l2,-1l1,-1l1,0l1,0l0,-2l-1,-3l0,0l0,-1l0,0l0,0l4,0l3,0l1,2q1,0 2,1l0,0l0,0q0,1 0,1l1,0l0,0q0,0 1,1l0,0l0,0q0,1 0,1l1,0l0,0q0,0 1,1l0,0l0,0q0,1 0,1l1,0l0,0q0,0 1,1l0,0l0,0q0,1 0,1l1,0l0,0q0,0 1,1l0,0l1,1q1,2 2,2l0,0l0,1l1,0l0,0l0,1l0,0l0,0l1,0l0,0l3,1l3,0l0,-3q-1,-3 -1,-4l0,-2l0,-4q-1,-5 1,-4q1,0 3,5q2,5 4,5q1,0 1,-2z" stroke-width="1px" stroke="#316B28" fill-rule="evenodd" fill="#316B28" id="svg_89"/>
  <path d="m528,639l1,0l11,2q10,1 11,2l1,1l1,0l1,0l0,0l0,0l1,1l1,1l8,2q8,2 14,2q7,0 10,1l4,0l17,0q17,1 29,1l11,0l3,0l2,0l17,4q17,4 25,6q9,2 10,3l2,1l0,0l0,0l-2,0q-2,0 -1,1q1,1 2,2q1,1 2,2l1,0l0,2q0,1 0,3q1,1 20,8q20,8 37,10q17,2 21,3l3,1l2,0l2,0l0,1l0,0l-14,0q-14,1 -26,1q-12,0 -27,-4q-15,-4 -24,-6q-9,-2 -12,-4q-2,-3 -8,-4q-5,0 -6,-1q-2,-1 -5,-2q-4,-1 -7,-1q-2,0 -2,0q0,-1 -8,-3q-9,-1 -46,-3q-37,0 -44,-2q-7,-2 -16,-5q-10,-3 -24,-6l-14,-3l0,-1l0,0l0,-1q0,-2 2,-3q3,-1 1,-2q-1,-2 -3,-3l-1,0l0,-1l-1,0l0,0l0,-1l0,0l0,0l-1,0l0,0l0,-1l1,0l0,0l0,-1l2,0l3,0l6,-2q6,0 7,-1z" stroke-width="1px" stroke="#EDCB94" fill-rule="evenodd" fill="#EDCB94" id="svg_90"/>
  <path d="m467,580l0,0l-3,0l-2,0l1,1q1,0 1,1q0,1 -1,1l0,0l-1,0q0,-1 -2,-1l-1,0l-3,0q-2,1 -1,4q1,4 0,5q0,1 2,1q2,0 3,0l1,0l0,3l-1,3l0,1l0,1l-1,0q-1,0 -3,0q-3,0 -5,-2q-2,0 -6,0l-4,0l0,0l-1,0l0,0l0,0l0,-1l0,0l-1,0l0,-1l0,0l0,0l0,0l-1,-1l0,-4l0,-4l0,0l1,-1l0,0l0,0l1,-1q2,-1 2,1q0,1 1,1l1,0l0,-2q0,-2 0,-4q0,-2 -2,-3l-2,-2l2,0q2,-1 2,0q1,2 12,2q11,2 11,2z" stroke-width="1px" stroke="#98C5D0" fill-rule="evenodd" fill="#98C5D0" id="svg_91"/>
  <path d="m0,363l0,-51l5,1q5,1 74,2q69,1 73,1q3,2 6,2q3,0 3,0l0,0l-8,7q-9,7 -15,16q-6,9 -10,19q-4,10 -6,27q-4,17 -6,20q-3,3 -54,3q-50,0 -55,1q-5,1 -5,1l0,0l-1,1l-1,1l0,0l0,0l0,-51z" stroke-width="1px" stroke="#8CD1F7" fill-rule="evenodd" fill="#8CD1F7" id="svg_92"/>
  <path d="m738,584l0,-1l1,2q1,2 3,2q2,1 2,1l0,0l0,1q0,1 -1,1q-1,0 -1,1l0,0l0,0q-1,1 -1,1l0,0l-1,0q-1,0 -3,4l-2,3l-1,0l-1,1l-1,0l-1,0l-1,-1q-1,-1 0,-3q0,-2 -1,-2l-1,0l0,-1l0,-1l1,0l0,-1l1,0l1,-1l1,0q2,-1 2,-2q0,-1 2,-1q1,0 1,-1q1,-1 1,-2z" stroke-width="1px" stroke="#358F91" fill-rule="evenodd" fill="#358F91" id="svg_93"/>
  <path d="m797,591l0,-2l2,2q2,3 4,3q2,0 3,-1l0,0l0,1l0,1l2,0l1,0l0,1l1,1l0,0l0,-1l0,0l0,0l1,0l0,0l0,-1l1,0l0,0l0,-1l1,0q1,0 3,2q1,2 2,-1q1,-2 6,-2q5,-1 6,-1l0,0l0,2q0,1 2,1l2,0l2,0l1,1l0,0l1,0l0,0l0,0l30,0q29,0 32,0q3,0 6,0q2,0 3,0l1,0l0,-1l0,0l1,0l0,-1l1,0l0,0l3,14q3,13 3,14l0,0l-2,0q-2,0 -4,1q-1,1 -2,4l-2,3l0,0l0,0l0,1l0,0l0,0q0,0 -1,-3q0,-2 -2,-2l-2,0l-3,4q-2,4 -3,8q-1,5 -1,8l0,3l0,1l0,1l0,0l0,1l0,0l0,0l-1,0l0,0l0,1l0,0l-1,0l0,1l0,0l0,0l-1,0l0,0l-1,1l-1,0l0,-3l0,-3l-1,0l-1,0l0,1l-1,1l0,0l0,1l0,0l0,0l-1,0l0,0l0,1l-1,0l0,-1l0,-2l-1,0l0,0l0,-1l1,0l0,-1l0,-2l0,-4q0,-4 2,-6q2,-1 2,-2l1,-2l1,0l1,0l0,-1l-1,-1l0,0l0,0l0,-1l0,0l-1,0l0,-1l-1,0l-1,0l-3,-1l-2,-1l-2,0l-1,0l-3,1q-3,1 -4,1l-2,1l0,1l0,2l0,0q0,0 -2,2q0,3 0,4q0,2 -5,2q-5,0 -5,1q0,1 -3,0l-3,-1l-1,-1l-1,0l0,1l0,1l0,1l0,2l0,2l0,2l2,0q1,0 1,2q-1,1 -1,1l0,1l0,0l0,0l0,0l-1,0l0,1l0,0l-1,0l0,1l0,0l0,0l0,0l-1,0l0,1l0,0l0,1l0,1l-1,0q-1,0 -1,-3q0,-2 -1,-2q-1,0 -2,3l-2,2l0,0q-1,1 -4,1q-4,0 -6,0q-3,-2 -6,-2q-3,0 -5,1q-1,0 -1,-3q1,-2 -1,0l-2,1l-1,0q-1,0 -1,-2q0,-2 -1,-2l-2,1l0,-1l0,0l-1,0l0,-1l0,0l-1,0l0,0l0,0l0,-1l0,0l0,-1l0,-1l0,-1l0,0l0,-1l0,-1l0,-1l0,-1l2,0q3,0 4,1l1,0l0,-1l0,-1l1,0l1,-1l-1,0l-1,0l0,-1q-1,-1 -3,-5l-2,-3l0,-1q0,0 -1,0l0,0l0,0q0,0 -1,-1q-1,-1 -1,-2q1,-1 -4,-3l-4,-2l0,-2q-1,-2 -3,-14q-4,-13 -3,-15z" stroke-width="1px" stroke="#6D8B0B" fill-rule="evenodd" fill="#6D8B0B" id="svg_94"/>
  <path d="m702,546l0,-7l0,0q0,0 1,9l1,9l0,0l0,0l2,15q2,14 2,17q0,3 -2,3q0,0 -1,0l0,0l0,-2q-1,-2 -1,-2l0,0l0,0q-1,0 -1,1l0,0l-1,0q0,1 0,1l0,0l0,0q0,0 0,-2q0,-1 -2,-2q-1,0 -2,-2q0,-1 -15,-2l-15,0l0,0q0,-1 -1,-1l0,0l0,0q-1,0 -1,-1q0,-1 1,-1q1,-1 -2,-1q-3,-2 -1,-4l2,-2l-1,0l0,0l-1,0l-2,0l0,0l0,0l-1,0l0,0l0,1l-1,0l0,0l0,1l0,0l0,0l-1,0l0,0l0,1l-1,0l0,0l0,-1l0,0l0,0l0,0l0,0l0,-1l0,0l1,0l0,-1l0,0l1,0l0,0l0,0l0,-1l0,0l1,-1l0,-1l4,-1q5,0 5,-1q0,-1 4,-1q5,0 12,-2q6,-2 10,-5q4,-3 5,-4q1,-1 1,-9z" stroke-width="1px" stroke="#D8E9F0" fill-rule="evenodd" fill="#D8E9F0" id="svg_95"/>
  <path d="m474,624l1,0l11,0q11,0 37,6q26,6 27,6q2,0 4,0l2,0l1,0l1,0l0,1l0,0l1,1l0,0l0,2l0,2l-1,0l-2,0l-1,1l-1,1l0,0l0,0l-1,0l-1,0l-1,-1q-1,-1 -11,-2l-11,-2l0,0q0,-1 -3,-1q-2,0 -2,-1q0,-1 -3,-2q-3,-1 -15,-3l-13,-3l0,0l0,-1l-3,0l-2,0l-2,-1l-2,-1l-2,0q-3,0 -6,-1l-2,-1l0,0z" stroke-width="1px" stroke="#A4AE3F" fill-rule="evenodd" fill="#A4AE3F" id="svg_96"/>
  <path d="m850,657l1,0l0,-1l0,-1l0,0q1,0 1,-1l0,0l0,0q0,0 1,0l0,-1l0,0q1,0 1,-1l0,0l1,0l1,0l0,-1l0,0l1,0l0,-1l0,0l1,0l-1,4q-1,3 -1,5q0,3 2,3q1,0 1,2q1,3 1,4l0,1l0,0q0,1 -2,1q-1,0 -4,0l-2,0l-1,0q-1,0 -1,1q0,1 -1,1q-1,0 -1,3q-1,3 -1,4l0,0l-1,0q0,1 -2,0q-2,0 -2,0l-2,0l0,0l0,1l-2,0l-2,0l-2,1l-1,0l0,0l-1,0l0,-1l0,-1l0,-3l0,-3l0,0l0,-1l0,0l0,0l1,-1q0,-1 4,-2q5,-1 6,-7l1,-5l2,-3q2,-4 3,-4q1,0 1,4q-1,3 0,3z" stroke-width="1px" stroke="#336B1E" fill-rule="evenodd" fill="#336B1E" id="svg_97"/>
  <path d="m497,679l1,-1l2,0l2,0l17,6q17,6 19,8q1,0 1,1l1,0l0,0l0,1l0,0l0,0l1,0l0,0l0,1l1,0l0,0l0,1l0,0l0,0l1,0l0,0l0,1l1,0l0,1l0,1l-1,0l0,1l0,0l-1,0l0,0l0,0l0,1l0,0l-1,0l0,1l0,0l-1,0l0,0l0,0l-1,1q-1,1 -11,5q-11,4 -54,14q-42,10 -57,16l-15,4l-1,1l-1,1l0,0l0,0l-1,0l0,0l0,1l-1,0l0,2l0,2l1,0l1,1l0,0l0,0l1,0l0,0l8,4q9,3 11,4q4,2 4,3q0,1 3,3q3,3 3,4l0,2l1,3l1,3l0,1l0,1l-1,0l-1,0l0,-1l0,-1l-1,0q-1,0 -3,0q-2,0 -212,1q-210,1 -210,2q0,1 -2,1l-1,-1l0,1l-1,1l0,0l0,0l0,-49l0,-50l0,0l0,0l1,1l0,1l1,0q2,0 74,1q72,1 80,1q7,0 8,0q1,0 20,0q19,0 32,0q14,0 15,0q1,0 44,-2q43,0 125,-1q82,-1 85,-1q3,0 6,-1l3,-1l1,0l1,0l1,-1z" stroke-width="1px" stroke="#62B7F5" fill-rule="evenodd" fill="#62B7F5" id="svg_98"/>
  <path d="m458,632l-2,-3l3,1q3,0 13,0q10,0 16,-1l5,0l13,3q12,2 15,3q3,1 3,2q0,1 2,1q3,0 3,1l0,0l-1,0q-1,1 -7,1l-6,2l-3,0l-2,0l0,1l0,0l-1,0l0,1l0,0l1,0l0,0l0,0l0,1l0,0l1,0l0,1l1,0q2,1 3,3q2,1 -1,2q-2,1 -2,3l0,1l-2,0q-2,-1 -10,-3l-8,-2l0,0l-1,0l-1,-1l-1,-1l0,0l-1,0l0,0l0,0l0,-1q0,0 -4,-1q-4,-2 -3,-2q1,0 -1,0q-1,0 -2,-1q0,-1 -3,-2q-3,-1 -3,-2q-1,-1 -5,-2l-4,-1l-1,-1q-1,-1 -4,-3zm27,12q1,0 1,0q0,0 0,0q-1,0 -1,0z" stroke-width="1px" stroke="#E7CA8E" fill-rule="evenodd" fill="#E7CA8E" id="svg_99"/>
  <path d="m1060,695l0,0l-1,0q-1,1 -3,0q-3,0 -3,1q0,1 -2,1q-2,-1 -3,-2q0,-1 -2,-1q-3,0 -3,1l0,1l-1,0l-1,0l0,-1l0,0l0,-1l0,0l0,0l1,0l0,-1l0,-1l1,-2q0,-3 1,-3q1,0 1,-3l-1,-4l1,0l0,0l1,-1q1,-1 2,-1l0,0l3,0q3,0 5,-1q1,0 0,3q0,3 2,4q2,2 2,6q0,4 0,5z" stroke-width="1px" stroke="#5B8012" fill-rule="evenodd" fill="#5B8012" id="svg_100"/>
  <path d="m563,575l1,1l0,0l0,0l1,0l0,0l1,1l0,0l0,0q0,1 0,1l0,0l1,1l0,1l0,4q-1,3 -1,6l0,4l0,2q0,1 -1,2l0,0l-1,0q0,0 -5,-1l-5,-1l0,0q0,0 -4,-1l-4,-1l0,0q1,0 1,-1l0,0l0,-1l0,0l3,0q2,0 6,-1q3,0 3,-1q1,-1 0,-2q-1,0 -1,-2q0,-1 -3,-3q-3,-1 -3,-3l0,-1l2,-1q2,0 2,-2q-1,-3 2,-2q4,0 5,1z" stroke-width="1px" stroke="#2E692E" fill-rule="evenodd" fill="#2E692E" id="svg_101"/>
  <path d="m1026,434q0,-5 2,-4q2,0 1,1q-1,1 1,1q2,1 -1,4q-3,2 -3,-2z" stroke-width="1px" stroke="#ACD7CC" fill-rule="evenodd" fill="#ACD7CC" id="svg_102"/>
  <path d="m778,574l1,-2l0,2l0,2l0,0q1,0 1,1l0,1l0,0q-1,0 -2,1l-1,1l-1,0q-2,0 -2,-1l0,0l0,-2q0,-2 1,-3q0,-2 1,-2q1,0 1,2q1,1 1,0z" stroke-width="1px" stroke="#84B8AC" fill-rule="evenodd" fill="#84B8AC" id="svg_103"/>
  <path d="m570,635l0,0l0,0q0,0 1,1l0,0l0,0l0,0l4,2q4,1 5,0q0,-2 1,-2l0,0l1,3q2,3 2,4q0,1 1,1q1,0 9,1l8,1l0,0l1,0l0,1l-1,1l0,0l0,0l-1,1l-1,1l-4,0l-4,0l0,1l0,0l-4,0q-3,-1 -10,-1q-6,0 -14,-2l-8,-2l-1,-1l-1,-1l0,0l0,0l0,0l0,0l1,-1l1,-1l2,0l1,0l0,-2l0,-2l4,0q4,0 4,-1q0,-1 1,-1q2,-1 2,-1z" stroke-width="1px" stroke="#ABAF38" fill-rule="evenodd" fill="#ABAF38" id="svg_104"/>
  <path d="m663,613l1,0l2,0q2,-1 4,-1l1,0l0,2q0,1 -1,2q-2,0 -2,1l0,0l0,1q0,0 -3,1q-2,1 -3,-1q0,-1 -12,-1l-11,0l0,-1l0,-1l1,0l1,-1l4,-2q4,-2 9,-2q6,0 7,1q1,0 1,1q0,1 1,1z" stroke-width="1px" stroke="#20710C" fill-rule="evenodd" fill="#20710C" id="svg_105"/>
  <path d="m492,652l0,-2l8,2q8,2 10,3l2,0l0,0l0,1l14,3q14,3 24,6q9,3 16,5q7,2 44,2q37,2 46,3q8,2 8,3q0,0 2,0q3,0 7,1q3,1 5,2q1,1 6,1q6,1 8,4q3,2 12,4q9,2 24,6q15,4 27,4q12,0 26,-1l14,0l13,2q12,3 15,3l3,0l0,0l0,0l2,1l1,1l2,0l2,0l25,4q24,2 50,6q27,4 49,12q22,6 41,16q19,10 38,22q20,13 20,14q0,1 14,10q14,10 21,14q6,4 7,4l1,0l1,1l1,1l0,0l1,0l0,0l0,0l0,1l0,0l1,0l0,1l1,0l1,0l0,46l0,46l-270,0l-270,0l0,0l0,0l-263,-1l-264,-1l2,0l2,0l2,-1l1,-1l2,0q2,0 39,-8q38,-8 94,-17q56,-9 104,-15q49,-6 82,-11q32,-5 52,-11q19,-6 28,-10q9,-4 11,-7q2,-2 3,-2q1,0 2,-5q0,-5 -2,-7q-2,-2 -2,-3q0,-1 -6,-4q-7,-4 -12,-8q-4,-5 -6,-10l-2,-4l0,0q0,-1 -1,-1l0,0l0,-3l-1,-4l0,-2q0,-1 -3,-4q-3,-2 -3,-3q0,-1 -4,-3q-2,-1 -11,-4l-8,-4l0,0l-1,0l0,0l0,0l-1,-1l-1,0l0,-2l0,-2l1,0l0,-1l0,0l1,0l0,0l0,0l1,-1l1,-1l15,-4q15,-6 57,-16q43,-10 54,-14q10,-4 11,-5l1,-1l0,0l0,0l1,0l0,0l0,-1l1,0l0,0l0,-1l0,0l0,0l1,0l0,0l0,-1l1,0l0,-1l0,-1l-1,0l0,-1l0,0l-1,0l0,0l0,0l0,-1l0,0l-1,0l0,-1l0,0l-1,0l0,0l0,0l0,-1l0,0l-1,0q0,-1 -1,-1q-2,-2 -19,-8l-17,-6l0,0l0,0l-2,-1l-3,-1l-1,0l-2,0l-1,-1q-1,-1 -27,-7l-25,-6l-3,-1l-2,-1l0,0l0,0l3,0l3,0l8,-2q7,-2 6,-2q-2,0 12,-1q14,-1 16,0l2,1l2,0l1,0l0,-1l0,-1l2,0l2,0l0,-1l-1,0l0,-1z" stroke-width="1px" stroke="#FCD7B2" fill-rule="evenodd" fill="#FCD7B2" id="svg_106"/>
  <path d="m969,664l0,-1l1,1q0,2 0,4q0,1 0,4l0,4l-1,0l0,0l1,0l2,0l0,0l1,0l1,1q2,1 2,2l0,0l-2,1q-2,0 -1,2q0,2 1,3q2,1 4,1l2,0l0,0l0,1l0,1q0,0 -1,0l0,0l0,1l-1,0l0,0l0,1l0,0l0,0l1,1l1,1l0,0l0,0l0,1l0,0l1,0l0,1l1,0l1,0l0,1l1,0l0,1l0,0l-1,0l0,0l-1,1l-1,0l-1,0l0,1l0,0l0,0l-1,0l0,0l-3,0q-3,0 -4,1q-2,1 -4,0q-2,0 -2,-2q0,-2 -4,-2l-3,0l0,-1l-1,-1l0,0l0,-1l0,0l0,0l0,-2q0,-2 0,-8q0,-5 -2,-6l-1,-1l0,0l0,-1l5,0q6,-1 7,-5q1,-4 2,-5z" stroke-width="1px" stroke="#547A17" fill-rule="evenodd" fill="#547A17" id="svg_107"/>
  <path d="m439,576l1,0l2,0l1,0l0,4q1,3 1,5l0,2l-1,0q-1,0 -1,-1q0,-2 -2,-1l-1,1l0,0q-1,0 -1,0l0,1l-1,0q-1,-1 -3,-1q-1,0 -2,1q0,1 -2,1q-1,0 -2,1l-1,1l0,-1q-1,0 -1,1l-1,0l0,0q-1,-1 -1,-1l0,0l0,0q0,-1 -1,-1l-1,0l0,1l0,0l0,0l0,1l0,0l0,0l-1,0l0,0l-1,0l0,0l0,0l0,0l0,-1l0,-1l0,-1l0,-1l0,-1l0,-1l0,0l0,0l0,-1l0,0l1,0l0,-1l-1,0l-2,0l0,-1l0,-1l0,0l1,0l0,-1l0,0l1,0l1,1l1,0q1,0 1,-1q0,-1 3,-1q2,0 3,0l1,0l2,0l3,0l1,1l2,0l0,-1q0,-1 1,-2z" stroke-width="1px" stroke="#438176" fill-rule="evenodd" fill="#438176" id="svg_108"/>
  <path d="m1072,536l1,0l1,5q0,5 1,5q1,0 1,2q0,2 2,18q2,17 1,17q0,1 0,1l0,0l-1,0q0,0 0,2q-1,2 -4,5q-4,3 -5,0q-1,-3 -2,-3q-1,0 -1,2q0,2 -2,4q-1,2 -2,0q0,-2 -1,-2q-1,0 -3,0q-3,0 -5,-1q-2,-1 -2,-2q0,-1 -3,-1q-3,0 -2,2q0,3 -4,1q-3,-3 -5,-1l-2,2l0,0l-1,0l0,-1q0,-1 -2,-5l0,-4l-1,0l0,0l-1,1l-1,1l0,0l-1,0l0,0l0,0l0,1l0,0l-1,1q-1,2 -1,4q-1,1 -2,1l-1,1l0,0l-1,0l0,0l0,0l0,1l0,0l-1,0l0,1l0,0l-1,0l0,0l0,0l0,-1q0,0 -1,-3l-1,-3l-1,0l-1,1l-1,0l-1,0l0,1l0,1l-1,1l0,1l-1,0l-2,0l0,-1l0,-1l-1,-2q-1,-1 -1,-3q0,-2 2,-3q1,0 1,-1q-1,-1 -2,-1q-2,0 -3,-7q-1,-7 1,-8q1,-1 -1,-1q-2,-1 -2,-2l0,-2l1,0l1,0l2,-1l1,-1l1,0l1,0l0,-1l1,0l0,0l0,-1l0,0l0,0l0,0q0,-1 0,-2q0,-1 -2,-2l-1,0l0,-1l-1,0l0,0l0,-1l2,0l1,0l4,1q4,1 4,-1q1,-1 1,-2l0,-1l1,0l0,-1l0,0l1,0l0,4l0,5l1,0l0,1l1,0l2,0l0,-1l0,0l4,-5q4,-4 4,-4l0,0l0,-1l0,0l1,0l0,-1l1,0l2,0l0,2q0,1 1,2q1,0 1,1q-2,1 -2,2l0,1l2,0l1,0l1,1l2,1l1,0l1,0l0,-2l0,-3l1,-1l0,-1l1,0l1,0l0,5l0,5l1,0l1,-1l1,0l1,0l0,-1l0,-1l-1,0l-1,0l1,-1l1,-1l4,-3q5,-4 4,-6q-1,-1 4,-1q5,1 6,-2q1,-4 1,-4zm-38,19l1,-1l2,0q1,1 1,3q0,1 -2,2l-2,1l-1,0q-1,0 -2,1q-1,0 -1,-2q0,-2 2,-3q2,0 2,-1z" stroke-width="1px" stroke="#175C2F" fill-rule="evenodd" fill="#175C2F" id="svg_109"/>
  <path d="m894,424l0,0l1,2q1,1 -1,1q-2,1 1,2q3,1 4,2l1,1l1,0l1,0l0,1l0,1l1,1l1,1l0,0l0,0l0,1l0,0l1,1l0,1l-2,0l-2,-1l0,0l-1,0l0,0l0,0l0,-1l0,0l-1,0l0,-1l0,0l-1,0l0,0l0,0l-1,-1q-1,-1 -5,-4l-4,-3l3,-2q3,-1 3,-2z" stroke-width="1px" stroke="#B3DBD0" fill-rule="evenodd" fill="#B3DBD0" id="svg_110"/>
  <path d="m916,622l2,0l1,0l1,0l0,2l0,2l0,0q0,0 -1,1q0,1 -1,1l-1,0l0,1q1,1 1,2l0,1l0,0l-1,0l0,0l-1,1l0,0l0,1l0,0l0,0l-1,0l0,0l0,-1l0,0l0,0q0,-1 -1,0q-2,1 -3,0l-1,-1l-1,0l0,0l0,-1l-1,0l0,0l0,0l0,0l0,-1l0,0l0,0l2,-3q1,-3 2,-4q2,-1 4,-1z" stroke-width="1px" stroke="#527716" fill-rule="evenodd" fill="#527716" id="svg_111"/>
  <path d="m736,662l0,0l3,0q3,0 3,-1l1,0l2,1q1,0 2,2l0,3l5,0q5,1 6,1l0,0l0,0q0,0 0,1l1,0l0,0l0,1l0,0l1,0l0,0l0,0l0,1l0,0l1,0l0,1l1,0l2,0l0,0q0,0 -2,1l-2,1l-2,0q-2,0 -10,0q-9,0 -15,-2l-6,-2l0,-1l-1,0l0,0l0,0l0,-1l0,0l-1,0l0,0l0,-1l-1,0l0,-1l0,-1l-1,-1l0,-1l4,-1q4,0 7,0q2,0 2,0z" stroke-width="1px" stroke="#B9B55B" fill-rule="evenodd" fill="#B9B55B" id="svg_112"/>
  <path d="m870,557l1,0l3,1q2,0 3,1l1,1l0,0l0,0l-1,0l0,0l-3,2q-4,2 0,2q4,1 6,0q2,-1 2,0q0,1 4,2q5,1 6,-1q1,-3 2,-3q1,0 1,4q0,4 1,4q2,0 6,-5q3,-5 4,-5l0,0l1,0q1,0 1,3q0,3 -1,4q0,1 1,1q1,0 1,2q0,2 -3,2l-3,0l0,1l1,1l0,0l0,0l3,-1q3,0 4,5q1,5 1,8l0,2l0,2l0,3l0,0l0,1l0,0l0,0l0,0l-1,0l0,1l-1,0l0,0l0,1l-1,0q-1,0 -3,0q-3,0 -6,0q-3,0 -32,0l-30,0l0,0l0,0l-1,0l0,0l-1,-1l-2,0l0,-1l0,-1l1,0l0,-1l0,0l1,0l0,0l0,0l0,-1q0,0 2,-4q2,-4 3,-9q1,-5 -2,-5q-3,-1 -3,-4l1,-4l0,0q1,0 1,-2q0,-2 1,-1q1,0 1,-1l0,-1l0,0l0,0l1,0l0,0l1,-1l1,-1l1,0q1,0 2,-1q2,-1 2,-2q0,-2 -1,-3q-1,0 -1,-1l0,-1l4,1q5,1 5,-1q1,-1 1,-2l0,-1l1,0l0,-1l0,0l1,0l0,4l0,4l1,0l0,0l1,0l1,0l0,0l1,0l0,0l0,0l0,-1l0,0l1,-2q1,-2 5,-4q3,-3 4,-1q0,1 1,1q1,0 1,1q0,1 -1,1q-1,0 -4,4q-3,4 -3,5q0,2 2,0q2,0 2,-1zm11,13q1,-2 3,-2q2,1 1,2q0,2 -3,2q-2,1 -1,-2z" stroke-width="1px" stroke="#21632F" fill-rule="evenodd" fill="#21632F" id="svg_113"/>
  <path d="m1104,467l1,0l0,47l0,48l-2,0l-2,0l0,-2l-1,-1l0,-3l0,-2l0,0q0,0 0,0l0,-1l0,0q0,-1 -2,-1l-1,-1l-1,0q0,-1 -4,-1l-4,-1l0,-1l0,0l0,-2q0,-3 2,-6l2,-2l-2,-1q-1,0 -1,-1q0,-2 -2,-2q-2,0 -3,-10q-2,-9 -2,-32l0,-23l0,0q0,1 0,1l1,0l1,0q2,-1 3,-4q1,-4 3,-4q1,0 2,-2q1,-2 6,2q4,4 6,5z" stroke-width="1px" stroke="#F7FAF9" fill-rule="evenodd" fill="#F7FAF9" id="svg_114"/>
  <path d="m670,590l0,0l0,2q0,2 -2,4q-2,3 -3,4q0,2 1,2l1,0l0,0l0,1l-1,0l-1,0l-1,0l-2,0l0,-1l0,-1l-1,0l0,-1l0,0l-1,0l0,0l0,0l-2,-1q-1,-1 -1,-1l0,0l1,0l1,0l0,-1l1,0l0,-1q0,-1 1,-1q1,0 3,-3q2,-4 4,-4q1,0 1,1q1,1 1,1z" stroke-width="1px" stroke="#3D7A3B" fill-rule="evenodd" fill="#3D7A3B" id="svg_115"/>
  <path d="m742,592l0,-1l0,3q1,4 3,5q2,1 3,1l1,0l0,0q0,0 1,1l0,0l0,0q0,1 0,1l1,0l17,0q18,0 18,-2l0,-1l2,9q2,10 3,12l1,2l0,2l0,1l1,0l0,1l0,0l1,0l0,0l0,0l1,-1l1,0l0,1q0,0 -1,0q0,0 -3,1q-3,1 -4,-1q-2,0 -4,-1q-2,0 -7,1q-5,2 -6,6q-1,4 -4,5q-2,1 -2,3l-1,1l0,0l0,-1l-1,0l-1,0l-2,0q-1,0 -2,-2q0,-2 -3,-3q-2,-1 -4,-3q-2,0 -7,-1q-6,0 -6,1q0,2 -2,2q-1,1 -2,6l0,5l-1,0l0,1l0,0l0,0l-1,0l-1,0l0,0l0,0l-1,-1l-2,0l0,-1l0,-2l-1,0l0,0l0,-1l1,0l0,-1q0,-2 -2,-2l-2,0l0,0q0,-1 0,-2l1,-1l1,0l1,0l0,-5q-1,-5 -2,-10q-1,-6 -3,-14l-2,-7l0,-1l0,-1l1,0l1,-1l0,0l0,0l0,0l0,0l1,0l0,0l1,1l0,0l2,0q1,0 1,-1q1,-1 1,-2l0,0l1,0q1,0 1,2q-1,2 0,3l1,1l1,0l1,0l1,-1l1,0l2,-3q2,-4 3,-4l1,0l0,0q1,0 1,0z" stroke-width="1px" stroke="#6A890B" fill-rule="evenodd" fill="#6A890B" id="svg_116"/>
  <path d="m702,590l0,0l0,0q0,0 1,0l0,-1l0,0q1,0 1,-1l0,0l0,0q0,0 1,2l0,2l0,2l1,2l2,0q2,0 5,9q3,10 4,15q1,6 2,8l1,3l0,0l0,1l0,0l0,0l1,0l0,0l1,1l2,1l0,0l0,0l1,0l0,1l-1,1q-1,0 0,1q1,1 1,1l0,0l-1,0l0,0l0,0q-1,0 -2,1l-2,1l0,1l0,1l-1,0l0,0l0,1l-1,0l0,0l0,1l0,0q0,0 -3,0l-2,1l0,-1q-1,0 -1,-2q0,-1 -4,-2l-3,0l-1,0q-1,0 -8,-1q-6,-1 -6,-5l-1,-4l0,-3q1,-3 1,-4q0,-1 0,-5l-2,-3l0,0l0,-1l0,0l0,0l-1,-1l-1,-1l0,0l0,0l-1,-1l-1,-1l-2,0l-2,0l-1,1q-1,0 -1,3q-1,4 -3,4l-2,0l0,1l-1,0l0,0l0,0l0,0l-1,1l0,0l-1,0l0,0l0,0l0,1l0,0l-1,-2l-1,-2l0,0l0,0l0,0q0,-1 2,-1q1,-1 1,-2l0,-2l-1,0q-2,0 -4,1l-2,0l1,0q1,0 1,-1q0,-1 -2,-1l-1,0l0,-1l1,-1l0,-1l0,0l-1,-1l0,-1l2,-1q1,-1 2,-1l0,-1l0,0q1,0 1,-1l0,0l5,-1q5,-1 5,-3q0,-2 3,-3q3,-1 4,-2q1,-1 1,-1l1,0l2,1q2,1 5,-2q3,-3 4,-3q2,0 2,2q0,1 1,1q1,-1 1,-1z" stroke-width="1px" stroke="#658513" fill-rule="evenodd" fill="#658513" id="svg_117"/>
  <path d="m1104,374l1,0l0,46l0,47l-1,0q-2,-1 -6,-5q-5,-4 -6,-2q-1,2 -2,2q-2,0 -3,4q-1,3 -3,4l-1,0l0,0q-1,-1 -1,-1l0,0l0,-1q0,0 -2,-2q0,-1 -2,-10l-1,-8l0,0q-1,0 -3,2l-2,2l0,-1q0,-1 -2,-5q-2,-4 -4,-5q-3,-1 -6,1q-2,2 -4,9q-1,6 -3,5q-1,-1 -3,-8q-2,-8 -5,-6q-2,1 -2,-2q0,-2 -3,0q-2,3 -7,6l-5,2l0,0q-1,0 1,-3q3,-3 3,-5q1,-2 -2,-1q-4,1 -5,3l-1,3l0,1l0,2l-1,2l0,1l0,1q-1,0 -3,5l-2,5l-1,0l-1,0l0,1l0,0l-1,1l-1,1l0,0l0,1l0,0l0,0l-1,0l0,0l0,1l-1,0l0,0q0,1 -2,2q-2,1 -2,0q0,-1 2,-2q2,-1 2,-2l0,-1l1,-1l1,-1l0,0q0,-1 1,-2l1,-2l0,-1l0,-1l0,-1l0,-1l0,0l0,0l-1,1q-1,1 -1,1q0,0 -3,1l-3,1l0,-1l0,-1l1,0l0,0l1,-1l1,-1l0,0l1,0l2,-3q2,-3 2,-3l0,0l0,-1l0,0l1,-1l1,-1l0,0l0,-1l-2,0l-1,0l-1,0l-2,0l1,0l1,0l0,-1l0,0l1,0l0,-1l-1,0q-1,0 -2,1q-1,0 -1,3l0,2l-1,0q-1,0 -4,-2q-2,-1 -4,-3l-1,-3l0,0l-1,0l0,-1l0,-1l-1,2l0,1l-1,0q0,1 0,1l0,0l0,0q-1,0 -1,1l0,0l-1,0q0,1 -1,3l-1,2l0,0l0,0l0,1l0,0l-1,0l0,-1l-1,0l-1,0l0,-2l-1,-1l0,0l0,0l0,-1q0,-2 -1,-10l-1,-7l0,1q0,2 -1,3l-1,1l0,1l0,0l-1,0l0,-1l0,0l-1,0l0,-2q0,-3 -1,-4l-1,-2l0,0l0,0l-2,0l-3,0l0,0l-1,0l-1,4q-1,3 -2,6l-1,3l0,0l0,-1l0,0l0,0l-1,-1l-1,-1l0,-1q0,-1 -1,-2l-1,-1l0,-1l0,-1l-1,0l-1,0l0,-1l0,0l0,1l0,1l0,1l0,1l1,1l1,1l0,0l0,1l-1,0l-1,0l0,-1l0,0l-1,0l0,-1l0,0l-1,0l0,0l0,0l0,-1l0,0l-1,0l0,-1l0,0l-1,0l0,0l0,0l0,-1l0,0l0,1l0,2l0,1l0,1l2,2q0,3 1,3l0,1l0,0l1,0l0,0l0,0l0,1l0,0l1,0l0,1l-1,0l-1,0l0,-1l-1,0l0,0l0,-1l-4,0l-3,0l0,1l0,0l-1,0l0,-1l0,0l0,0l-1,0l0,0l0,-1l-1,0l0,-1q0,-1 -1,-1q-1,1 -2,-1l-1,-1l1,0l1,0l0,-5q0,-4 2,-12q2,-8 0,-8q-1,1 1,-2l1,-3l1,0l0,-1l1,0l1,0l0,-1l-1,0l0,0l0,-1l-1,0l-1,0l-2,1q-1,1 -4,1l-3,0l-1,0l-1,0l0,0l1,0l0,0l0,0l0,-1l0,0l1,0l0,-1l0,0l1,0l0,0l0,0l1,-1l1,-1l1,0l1,0l4,-4q5,-2 6,-3l1,-1l0,0l1,0l0,-2l0,-3l-1,0l0,-1l0,0l-1,0l0,0l0,0l-1,-1q-1,0 -1,-1q0,-1 -2,-1q-1,-1 -6,-3q-4,-2 -4,-4q0,-2 -1,-2q-1,0 -1,-2l0,-1l0,-1l0,-1l1,0l0,-1l0,0l1,0l0,-1l0,-1l-1,0l0,0l0,1l-1,0l0,0l0,1l0,0l0,0l-1,0l0,0l0,1l-1,0l0,1q0,1 -1,2l-1,1l0,0l0,1l0,0l0,0l-1,2l-1,1l0,-3l0,-3l1,-2q1,-2 1,-3l0,-1l1,-1l1,-1l0,0l0,-1l-1,0l-1,0l0,1l0,0l-1,0l0,1l-1,0q-1,0 -2,2l-2,1l0,0l0,1l0,0l0,0l-1,0l0,0l0,1l-1,0l0,0l0,1l0,0l0,0l0,-2l0,-1l0,-1l0,-1l1,0l0,-1l0,0l1,0l0,0l0,-1l-1,0l0,-1l0,0l-1,0l0,0l0,0l0,1l0,0l-1,0l0,1l-1,0l-1,0l0,1l-1,0l0,-1l0,-1l1,0l0,-1l0,0l1,0l0,0l0,0l0,-1l0,0l1,0l0,-1l0,0l1,0l0,0l0,0l6,-4q5,-2 16,-2q10,0 15,3q5,3 5,3l0,0l2,1q1,0 1,-3q1,-2 1,-3l0,-1l1,0l0,0l0,1l1,0l0,1q2,2 2,3l0,1l1,0l1,0l0,1l0,0l0,-1q0,-2 0,-5l0,-3l1,0l0,0l0,1l1,0l0,2q1,1 1,2l1,0l0,0l0,1l0,0l0,0l1,-4q1,-3 1,-6l0,-3l1,0l0,1l0,0l1,0l0,0l0,0l1,2q1,2 1,3l0,1l1,0l1,0l0,-1l0,0l3,-4q3,-4 3,3q0,8 4,8q5,0 6,2q1,2 11,2q10,2 17,6q8,4 11,9q4,5 10,7q6,4 10,0q5,-4 5,-5q0,-1 5,-3q5,-3 7,-5q2,-1 4,-1q2,0 2,3q1,3 4,2q2,-1 4,-1zm-56,8l0,-2l-1,-1q-1,-2 -5,-5q-5,-4 1,0q6,2 8,5q2,2 1,3q0,0 0,2q1,2 -2,2q-3,0 -6,0q-4,-1 -6,-6q-2,-5 4,-1q6,5 6,3zm-27,31l0,-1l0,0l-1,0l-1,-3q-2,-3 1,-3q3,0 4,0q1,2 4,1q3,0 3,1q0,1 -1,1q-1,0 -4,3q-2,2 -3,3q-1,0 -1,-1q0,-1 -1,-1zm-8,26l-1,1l0,0l0,0l-1,0l0,0l0,-1l-1,0l0,-6q-1,-5 0,-5q1,0 3,2q1,3 1,6q0,2 -1,3zm13,-5q0,-5 2,-4q2,0 1,1q-1,1 1,1q2,1 -1,4q-3,2 -3,-2z" stroke-width="1px" stroke="#115B36" fill-rule="evenodd" fill="#115B36" id="svg_118"/>
  <path d="m432,317l2,0l9,1q9,2 12,2q3,0 3,1l0,1l-5,0q-5,0 -7,-1q-2,-1 -10,-2l-7,-1l0,0q0,0 3,-1z" stroke-width="1px" stroke="#67C3F4" fill-rule="evenodd" fill="#67C3F4" id="svg_119"/>
  <path d="m915,417l2,2l1,1q0,2 1,3l1,1l0,1l0,1l1,1l1,1l0,0l0,0l0,-1l0,0l6,-3q5,-4 6,-4l1,0l1,-1l2,-1l1,0l1,0l0,-1l0,0l0,1l0,1l0,0l0,1l0,0l0,0l-1,0l0,0l0,1l-1,0l0,1q0,1 -3,4l-2,4l1,0l1,0l0,1l-1,1l0,0l0,0l4,1l4,1l2,0l3,0l1,1l2,0l1,1q1,2 2,1q1,0 1,1l0,1l1,0l0,1l0,0l1,0l0,0l0,0l0,1l1,0l0,3l1,4l0,1l0,1l4,4q4,4 5,4l0,0l0,1l1,0l0,0l0,1l0,0l0,0l1,1l0,1l1,0l1,0l0,1l1,0l0,1l0,1l-1,0l-1,-1l-1,0l-1,0l-2,-1l-1,-1l-3,0q-2,-1 -2,0q0,2 -4,0q-5,-3 -5,-1q0,1 4,7q5,6 7,13q2,7 0,5q-2,-1 -3,-2q-1,0 -1,11q0,11 -3,17q-3,6 -3,7l0,1l0,0q-1,0 -2,1q0,1 1,-5q1,-5 0,-4q-1,2 -4,3q-3,1 -1,-2q2,-3 0,-3q-2,0 0,-3q2,-3 0,-1q-2,2 -5,1q-2,-1 -2,-3q1,-1 -7,-12q-8,-12 -10,-12q-1,0 -1,11l-1,12l0,-1l0,-1l-1,-1l-1,-2l0,-2l0,-1l-1,-1q-1,-2 -1,-4l0,-1l-1,-1l-1,-1l0,-2l0,-2l-1,0l0,1l0,0l-1,0l0,2l0,1l0,0l-1,1l-1,3q-2,3 -2,4l0,1l-1,1q-1,1 -1,2l0,1l0,1q0,1 -1,2l-1,1l0,1l0,1l-1,2l-1,1l0,1l0,1l0,-3l0,-2l0,-8l0,-8l0,-4l0,-5l0,1l0,1l-1,1q-1,2 -1,4l0,1l-1,1l-1,2l0,-6l0,-7l0,-3l0,-2l0,0l0,0l-1,0l-1,0l0,0l0,0l0,1l0,1l0,1l0,1l-1,1l-1,1l0,0q0,0 -1,-3l-1,-2l-1,0l-1,0l0,2q0,2 1,3l0,2l-1,0q-1,0 -2,-1l0,-1l-1,0l0,0l0,-1l-1,0l0,0l0,-1l0,0l0,0l0,2l0,1l2,3q2,2 2,4l0,2l-1,1l-1,1l0,0l0,0l0,1q0,0 -1,1l-1,2l0,0l0,0l0,-1q0,0 -2,-1q-1,-2 -1,1q-1,3 -2,1l-1,-2l-1,0l0,0l0,-1l-1,0l0,3q0,2 1,4l1,2l0,1l0,1l1,0l0,0l-1,1l-1,0l0,-1l-1,-1l0,0l0,-1l0,0q0,0 -2,-2l0,-2l-1,-1l-1,-1l0,0l0,0l0,1l0,0l-1,2l-1,2l0,4q0,4 1,7l1,3l0,1l0,2l-1,0l0,0l0,-1l-1,0l0,-2l0,-2l-1,-3q-1,-2 0,-13q1,-11 3,-18l4,-7l0,-1l0,-1l-1,0l0,0l0,-1l1,0l0,-1l0,-2l0,-2l0,-1l0,0l0,1l0,0l0,0l-1,0l0,0l0,1l-1,0l0,0l0,1l-1,0l-1,0l0,1l0,0l-1,0q0,1 -5,4l-4,3l0,1l0,0l-1,-1l-1,-2l0,-1l0,-1l-2,0l-1,0l-2,1l-2,0l0,-1l1,-1l0,-1l0,-1l4,-6q4,-6 6,-7q2,-1 2,-1l0,-1l0,0l0,0l1,0l0,0l1,-1l1,-1l0,0l1,0l0,0l0,0l1,-1l1,-1l-6,0l-5,0l-1,1l-1,0l0,-1l0,-1l1,0q1,0 2,-1q0,-2 1,-3l0,-1l-3,0q-2,0 -10,-2l-7,-2l-1,0l-1,0l-1,-1l-2,0l0,-1l0,-1l2,0l1,-1l1,0l1,0l1,-1l1,-1l11,-2q12,-4 20,-3q7,1 8,1l2,0l4,3q4,3 5,4l1,1l0,0l0,0l1,0l0,0l0,1l1,0l0,0l0,1l0,0l0,0l1,0l0,0l2,1l2,0l0,-1l-1,-1l0,0l0,-1l0,0l0,0l-1,-1l-1,-1l0,-1l0,-1l-1,0l-1,0l-1,-1q-1,-1 -4,-2q-3,-1 -1,-2q2,0 1,-1l-1,-2l-1,0q-1,0 -3,-1l-2,-1l-2,0l-1,0l-1,-1l-2,-1l1,0l1,0l4,-1l4,-1l5,2q5,1 8,4q3,2 3,3l0,0l1,0l0,1l0,0l1,0l0,0l0,0l0,1l0,0l1,0l0,1l0,0l1,0l0,0l0,0l0,1l0,0l1,0l0,1l0,0l1,0l0,-1l0,-1l-1,-4q-1,-4 -1,-8q-1,-3 0,-3q1,1 3,2zm36,27q3,2 -2,2q-6,-1 -6,-2q0,-1 3,-1q2,-1 5,1z" stroke-width="1px" stroke="#145C37" fill-rule="evenodd" fill="#145C37" id="svg_120"/>
  <path d="m934,585l1,0l0,0l0,1l1,0l1,0l0,1l1,0l0,1l0,1l1,1l0,1l1,0l1,0l0,1l1,1l0,0l0,1l0,0l0,0l1,0l0,0l0,1l1,0l3,1q4,0 5,-1q0,-1 3,-2q3,-1 5,-3q3,-1 4,2q0,2 1,-1q1,-3 4,-1q3,1 3,2q0,1 4,3q4,1 7,1q3,0 4,-2q1,-3 5,-3q3,0 3,-2l0,-2l2,7q1,8 3,22q0,13 1,14l0,0l0,0q0,0 -3,1q-2,0 -2,3q-1,2 -5,3q-4,1 -5,4l0,4l-1,0l0,1l0,0l0,0l-1,0q-1,0 -2,-4q-1,-3 -2,-2q-2,0 -3,3q-1,3 -5,4q-3,1 -4,3q0,2 0,8l1,5l0,1q-1,1 -2,5q-1,4 -7,5l-5,0l0,1l0,0l-1,0l-2,0l0,-1q0,-1 -3,-1l-3,-1l0,1l0,0l-1,0l0,-1l0,0l-1,0l0,0l0,0l0,-1l0,0l1,-2q1,-2 1,-3l2,-1l0,-1l0,-1l0,-1l0,-1l0,0l0,1l-2,0l-1,0l0,1q-1,0 -2,1l-2,2l0,0l-1,0l0,0l0,0l0,1l0,0l-1,0l0,1l0,0l-1,0l0,0l0,0l0,-1l0,0l0,-1l0,-1l0,-1l0,-1l1,0l0,-1l1,0l0,0l0,0l0,0l1,0q0,0 -1,-4l0,-3l0,0q0,0 1,-1l0,0l0,-2q-1,-3 -1,-6q0,-4 2,-5q0,-1 -1,-5l-1,-5l-1,0l0,-1l0,0l-1,0l0,0l0,0l0,-1l0,0l-1,0l0,-1l0,0l-1,0l0,0l0,0l-1,-1l-1,-1l-2,0l-1,0l0,1q-1,0 -1,1q0,0 -2,0q0,0 -1,2q-1,3 -3,4l-1,0l0,1l-1,0l0,0l0,1l0,0l0,0l-1,0l0,0l-1,0l-1,0l0,0l1,0l0,0l0,0l0,-1l0,0l0,-1l0,-2l0,0l0,0l0,-1l0,0l-1,0l0,1l0,0l-1,0l0,0l0,0l0,0l-1,0l-1,0l0,0l0,-1l0,0l0,0l0,-1l0,0l0,0l1,-1l0,-1l1,0q1,0 1,-1q1,-1 1,-1l0,0l0,0l0,0l1,0l1,0l0,0l0,0l1,0l0,0l0,-1l1,0l0,0l0,-1l1,0l1,0l2,-1l1,-1l0,0l1,0l0,0l0,-1l-1,-4q-1,-4 -2,-10l-1,-6l0,0q0,0 2,1q2,0 4,-8q1,-9 2,-9z" stroke-width="1px" stroke="#758D0A" fill-rule="evenodd" fill="#758D0A" id="svg_121"/>
  <path d="m776,564l2,-3l1,0q1,0 1,6q0,5 0,5q0,0 -1,0l0,0l0,0q-1,0 -1,2l0,2l0,0q0,0 -1,-2q0,-2 -1,-2q-1,0 -2,4l0,3l0,0l-1,0l0,-4l1,-4l0,-2q0,-2 2,-5z" stroke-width="1px" stroke="#316649" fill-rule="evenodd" fill="#316649" id="svg_122"/>
  <path d="m873,632l1,0l0,-1l0,0l1,0l0,1l1,0q1,0 2,1q0,1 1,2q1,0 2,3q1,4 2,6q1,2 2,2l1,0l0,2l0,1l-1,0l0,1l0,0l1,0l0,2l0,1l1,0l0,-1l0,0l1,0l0,0l0,0l0,-1l0,0l1,-1l0,-1l1,0l1,0l0,3l0,3l1,0l1,-1l0,0l1,0l0,0l0,0l0,-1l1,0l1,0l0,0l0,3q1,2 0,2q-1,0 -2,3q0,3 3,1q3,-2 4,-2l0,-1l0,0q1,0 1,-1l0,0l0,2q0,1 0,2l0,1l-1,0l0,1l0,0l-1,0l0,1l0,1l-1,1q0,1 -5,1q-5,1 -6,4q0,3 1,3q1,1 -1,1l-1,0l0,1l-1,0l0,0l0,1l0,0l0,0l1,2l1,1l0,1l0,2l1,0l0,1l-3,0q-4,-1 -6,-1q-2,0 -8,-1l-5,-1l0,0l-1,0l0,0l0,0l0,-1l0,0l0,0q0,-1 0,-1q0,0 0,-6q0,-5 -1,-6q-1,0 -3,0l-2,1l0,-1q0,-1 -1,-4q0,-2 -1,-2q-2,0 -2,-3q0,-2 1,-5l1,-4l-1,0l0,0l0,1l-1,0l0,0l0,1l0,0q0,0 -2,1l0,1l-1,0l0,0l-1,1l-1,0l0,-1l1,-1l0,0l0,-1l0,0l0,0l1,0l0,0l1,-1q1,0 1,-1q0,-2 -1,-2l-2,0l0,-2l0,-2l0,-2l0,-1l0,-1l0,-1l1,0l1,1l3,1q3,1 3,0q0,-1 5,-1q5,0 5,-2q0,-1 0,-4q2,-2 2,-2l0,0l1,0z" stroke-width="1px" stroke="#4D7618" fill-rule="evenodd" fill="#4D7618" id="svg_123"/>
  <path d="m545,583l0,0l0,1q0,2 1,1q2,0 2,3q0,3 -1,4l0,0l0,0q-1,0 -1,0l0,1l0,0q0,0 -1,1l0,0l-1,2q0,2 -2,2l-1,0l0,-2l1,-2l0,-2l0,-2l-1,-1q-1,-1 -1,-3l0,-2l2,1q2,1 2,-1q0,-1 1,-1z" stroke-width="1px" stroke="#81B8C0" fill-rule="evenodd" fill="#81B8C0" id="svg_124"/>
  <path d="m992,672l0,0l0,0q0,0 0,4q-1,4 -3,5q-1,1 -5,2l-4,1l-1,0q-1,0 -1,-2q0,-1 -1,-2l-1,-1l0,0q0,-1 -2,-2l-1,-1l0,0l1,0l1,-1q1,-1 7,-3q6,-1 6,-1q1,-1 2,0q1,1 2,1z" stroke-width="1px" stroke="#326A1D" fill-rule="evenodd" fill="#326A1D" id="svg_125"/>
  <path d="m984,519l2,0l0,1l0,0l0,0q-1,0 -1,1l0,0l-1,1q-2,0 -2,1q-1,1 -2,2q-1,0 -2,2q-1,1 -2,2q-1,0 -2,2q0,3 2,1q3,0 7,-1l4,0l0,0q0,1 0,2q1,1 -3,2l-3,1l0,1l0,1l3,1q2,1 4,5q2,3 3,5q0,2 -2,1q-2,0 0,4q1,5 1,7q0,2 0,2l0,0l0,-1q-1,-2 -2,-2q-1,0 -1,1q-1,1 -1,-1q-2,-1 -3,0q-2,2 0,7q3,5 3,9l0,5l1,0l1,1l1,0l1,0l0,-2l0,-1l1,-1q1,-2 1,-2l0,0l0,4q1,5 2,5l1,0l0,1l0,1l0,2q0,2 -3,2q-4,0 -5,3q-1,2 -4,2q-3,0 -7,-1q-4,-2 -4,-3q0,-1 -3,-2q-3,-2 -4,1q-1,3 -1,1q-1,-3 -4,-2q-2,2 -5,3q-3,1 -3,2q-1,1 -5,1l-3,-1l-1,0l0,-1l0,0l-1,0l0,0l0,0l0,-1l0,0l-1,-1l0,-1l-1,0l-1,0l0,-1l-1,-1l0,-1l0,-1l-1,0l0,-1l-1,0l-1,0l0,-1l0,0l0,0l0,-1l3,0q3,0 4,-1l0,0l1,0q1,-1 1,-1l0,0l1,0q1,0 3,-1q2,-2 0,-4q-1,-1 0,-2l2,0l0,-1l0,-1l1,-2l0,-2l-1,0l-1,-1l-1,0l-1,0l0,2q-1,1 -1,0q-1,0 -2,1l0,1l-1,0l0,0l0,1l-1,0l0,0l0,0l0,-1l0,-1l0,0l0,0l-1,-1l0,-1l1,0l0,0l0,-1l0,-1l1,-1q1,-1 2,-4q1,-2 3,-8l0,-5l0,0q0,-1 -1,0q-1,1 -1,0q0,-1 -2,-1l-2,0l0,0l0,0l0,-2l0,-1l0,0l0,-1l0,0l0,0l1,0l0,0l3,-3q2,-2 3,-2l0,-1l1,0l1,0l0,-1l0,-1l-3,0l-3,0l0,-1l0,-1l1,0l1,0l1,-1l1,-1l3,-1q4,-1 4,-2l0,0l1,-2q0,-2 -1,-3l-2,0l0,-1l0,0l-1,0l0,-1l1,0l1,0l5,1q4,1 4,-1q0,-1 1,-2l1,-2l0,0l0,0l1,-1l1,0l0,3q0,4 0,6l0,2l1,0l1,0l1,-1l1,0l4,-5q3,-6 5,-6q2,0 2,2q0,1 1,1zm-6,64l0,0l-1,-3q-1,-2 -1,-4l0,-3l0,-4q0,-4 0,-5q0,0 2,3q1,3 2,5q2,1 0,2q0,1 0,5q1,4 2,4q1,0 0,1q-1,2 -2,0q-2,0 -2,-1z" stroke-width="1px" stroke="#1E6237" fill-rule="evenodd" fill="#1E6237" id="svg_126"/>
  <path d="m821,584l0,3l1,1q2,0 2,0q2,0 2,1l0,1l-1,0l0,0l-3,0l-2,0l0,0l0,0l-1,-2q-1,-2 -2,-6l-1,-5l0,-5q2,-5 2,-3q1,3 2,3q1,0 1,2q0,2 1,1q1,0 0,2q-1,1 1,1q3,-1 2,0q0,2 -2,2q-2,1 -2,4z" stroke-width="1px" stroke="#8ABBB6" fill-rule="evenodd" fill="#8ABBB6" id="svg_127"/>
  <path d="m622,579l0,0l0,8q1,8 -1,8q-2,-1 -3,-1l-2,0l-1,-1q-1,-1 -3,-3l-2,-3l5,-1q5,0 4,-2q-1,-2 1,-3q1,0 1,-1q1,-1 1,-1z" stroke-width="1px" stroke="#91C2D5" fill-rule="evenodd" fill="#91C2D5" id="svg_128"/>
  <path d="m759,432l0,-4l1,0l1,0l0,1l1,1l0,0l0,0l1,0l1,0l1,0l1,0l0,1l0,1l-1,0l0,0l0,1l-1,0l0,1q-2,2 -2,4l0,1l1,0q1,-1 3,-1l3,0l0,1l-1,0l0,0l0,1l0,0l0,0l-1,0l0,0l-2,4q-1,3 -2,6l0,4l1,0l1,0l0,-1l1,0l0,1l0,1l2,-1q2,-2 2,-2l0,0l2,-1l1,0l0,1q-1,1 -1,4l0,4l1,0l1,0l2,-2q3,-2 4,-1q2,1 2,2l0,1l0,28q0,28 -2,33q0,5 -1,6q-1,1 -1,1l0,0l-1,0l0,0l2,1l2,0l0,3l0,2l-1,0q0,0 0,1l0,0l0,0q-1,1 -1,1l0,0l-3,2q-2,2 -3,6q-1,4 1,3q1,-1 2,-1l0,0l2,2q2,3 1,8q-1,4 -1,5l0,0l-2,3q-2,3 -2,5l0,2l-1,4l0,4l0,1q0,2 -1,2q-2,0 -4,-5q-2,-5 -3,-5q-2,-1 -1,4l0,4l0,0q0,0 -2,2q-3,2 -4,1q0,-1 -2,-1l-2,1l0,-1q0,0 -1,0l0,0l0,0q-1,-1 -1,-1l0,0l0,-1q0,0 -1,0l0,0l0,0q-1,-1 -1,-1l0,0l0,-1q0,0 -1,0l0,0l0,0q-1,-1 -1,-1l0,0l0,-1q0,0 -1,0l0,0l0,0q-1,-1 -1,-1l0,0l0,0q-1,-1 -2,-1l-1,-2l-3,0l-4,0l0,0q-1,0 -3,0q-2,0 -2,-2q0,-1 -5,0q-5,0 -6,-1q0,-1 -1,-1q-1,0 -1,1q0,1 -3,1l-3,-1l0,-1q0,-1 -2,-8l-1,-8l0,0l-1,-1l0,-13q0,-14 -1,-20q0,-7 1,-7q1,0 0,-5l-1,-5l0,-6l1,-6l0,0l0,1l0,0l0,0l0,2l0,2l0,1l0,1l2,0q2,0 2,-1q0,-1 2,4q0,5 1,7l0,2l1,0l2,0l0,1l0,0l1,1l1,2l0,-2q0,-1 1,-4l0,-3l1,0l1,0l0,1l1,1l1,2q2,1 2,2l1,0l0,0l0,1l0,0l0,0l1,0l0,0l0,1l1,0l0,0l0,-1l0,0l0,0l0,-2l0,-3l0,-3q0,-2 -2,-8l-2,-6l0,-1l0,-1l0,0l0,0l2,2q1,2 2,2l1,0l0,-1l-1,0l0,-1l0,-1l-1,0l0,-1l0,0q-1,0 -1,-1l0,-1l-1,0l0,0l0,-1l-1,0l0,-1l0,-1l-1,-1l0,-1l2,0l2,1l1,0l1,0l0,1l1,0l0,0l0,1l0,0l0,0l1,0l0,0l3,3q4,3 4,3l0,0l1,0l0,0l0,1l1,0l0,0l0,1l1,0l1,0l0,1l0,0l1,0l0,1l0,0l1,0l0,0l0,0l0,1l0,0l0,-1l0,-2l0,-2l0,-1l-1,-1l-1,-1l0,0l0,-1l0,0l0,0l-1,-1q-1,-1 -3,-5q-2,-3 -3,-3l-1,-1l-1,0l-1,0l0,-1l0,-1l-1,-1l0,-1l1,0l1,0l1,1l2,1l0,0l0,0l1,0l0,0l1,1q2,1 2,-1q0,-1 2,-1l3,1l2,0l2,0l1,1l1,0l0,-1l0,-1l-1,0l-1,-1l0,0l-1,0l0,0l0,0l0,-1l0,0l-1,0l0,-1l0,0l-1,0l0,0q0,0 -4,-3q-3,-2 -3,-7l-1,-4l1,0l0,0l0,-1l1,0l0,-1l0,0l-1,0l0,0l0,-1l-1,0l0,-1l0,-1l0,0l0,0l1,-1l1,-1l0,1l0,2l1,0q1,1 1,2l0,1l1,0l0,1l1,0l1,0l0,-1l-1,0l0,-1q0,-2 -1,-4l-1,-1l0,-1l0,-1l1,0l0,1l1,1q1,2 2,1q0,0 0,-2q-1,-2 0,-2q2,1 2,2l0,1l1,0l0,1l0,0l1,0l0,0l0,0l0,-1l0,0l1,-1l1,-1l0,-1l0,-1l0,-1q0,-2 -1,-2q-1,-1 -1,-2l0,-1l-1,0l0,-1l0,0l-1,0l0,-1l0,-1l-1,-1l0,-1l1,0l1,0l0,2l0,1l1,0q1,1 1,1l1,0l0,0l0,0l0,1l0,0l1,0l0,1l0,0l1,0l0,-3q0,-3 1,-1q1,2 1,2l0,0l1,-4z" stroke-width="1px" stroke="#EBF4F5" fill-rule="evenodd" fill="#EBF4F5" id="svg_129"/>
  <path d="m1013,439l-1,1l0,0l0,0l-1,0l0,0l0,-1l-1,0l0,-6q-1,-5 0,-5q1,0 3,2q1,3 1,6q0,2 -1,3z" stroke-width="1px" stroke="#B8DED5" fill-rule="evenodd" fill="#B8DED5" id="svg_130"/>
  <path d="m998,668l1,0l0,1l0,1l1,0l2,0l1,1l1,1l0,0l0,0l1,0l0,-1l1,1q2,0 2,1l0,1l1,2l0,1l1,0l1,1l0,0l1,0l0,0l0,0l0,1l0,0l1,1q1,0 1,0l0,1l0,0q0,1 -1,1q-1,0 -1,-1q0,-1 -2,-1l-1,0l0,1l-1,0l0,3l0,2l1,0l0,0l1,0l2,0l1,0l1,0l0,2l0,2l-1,0q-1,0 -2,0l-1,1l0,1l0,1l0,0l0,1l0,0l0,0l-1,0l0,0l1,1l1,0l0,1l-1,1l0,1l0,2l-1,0l-1,0l-2,0q-1,0 -3,0q-2,0 -3,-2q0,-2 -1,-2q-1,0 -9,2l-8,0l0,0l0,0l-1,0l0,0l0,-1l0,0l1,0l1,-1l0,0l1,0l0,0l0,-1l-1,0l0,-1l-1,0l-1,0l0,-1l-1,0l0,0l0,-1l0,0l0,0l-1,-1l-1,-1l0,0l0,0l0,-1l0,0l1,0l0,-1l0,0q1,0 1,0l0,-1l0,0q0,0 0,-1l0,0l0,-1l0,-1l4,-1q4,-1 5,-2q2,-1 3,-5q0,-4 0,-4l0,0l1,-2q1,-2 2,-1q0,1 1,0q2,-1 2,-1z" stroke-width="1px" stroke="#567918" fill-rule="evenodd" fill="#567918" id="svg_131"/>
  <path d="m1028,448l0,0l0,0q0,0 -2,2l-3,1l0,-1l1,-2l0,-2l0,-1l1,-3q1,-2 5,-3q3,-1 2,1q0,2 -3,5q-2,3 -1,3z" stroke-width="1px" stroke="#B3D7CE" fill-rule="evenodd" fill="#B3D7CE" id="svg_132"/>
  <path d="m725,590l2,0l1,0q0,0 0,1l1,0l0,1l-1,0l0,1l0,1l0,0q0,1 -1,2q0,1 -1,1l-2,0l0,-2q0,-2 0,-3q0,-1 1,-2z" stroke-width="1px" stroke="#79B6BF" fill-rule="evenodd" fill="#79B6BF" id="svg_133"/>
  <path d="m438,586l1,0l0,1q-1,1 -1,5l0,3l1,1l0,0l-1,0l-1,0l0,3q-1,3 0,4q1,1 -1,1q-1,1 -1,0q0,-1 -1,-1l-1,0l-1,0q0,-1 0,-1q0,0 -3,-6q-2,-5 -3,-5l-2,-1l0,0l0,0l-1,0l0,0l0,-1l-1,0l0,0l0,0l0,0l0,-1l2,0l1,0l1,1l1,1l1,-1q1,-1 2,-1q2,0 2,-1q1,-1 3,-1q2,0 3,0z" stroke-width="1px" stroke="#8BBBC2" fill-rule="evenodd" fill="#8BBBC2" id="svg_134"/>
  <path d="m926,656l-1,0l-1,0q-1,0 -2,2q-2,3 -4,4l-2,0l0,-1q0,-1 -1,-6q-1,-5 0,-7l1,-1l2,-1q1,0 3,2q3,2 3,4q0,1 1,2q1,0 2,1q0,1 -1,1z" stroke-width="1px" stroke="#907D40" fill-rule="evenodd" fill="#907D40" id="svg_135"/>
  <path d="m430,777l1,0l0,0q0,1 1,1l0,0l2,4q2,5 6,10q5,4 12,8q6,3 6,4q0,1 2,3q2,2 2,7q-1,5 -2,5q-1,0 -3,2q-2,3 -11,7q-9,4 -28,10q-20,6 -52,11q-33,5 -82,11q-48,6 -104,15q-56,9 -94,17q-37,8 -39,8l-2,0l-1,1l-2,1l-2,0l-2,0l264,1l263,1l0,0l0,0l-283,0l-282,0l0,-62l0,-61l0,0l0,0l1,-1l0,-1l1,1q2,0 2,-1q0,-1 210,-2q210,-1 213,-1q3,0 3,1z" stroke-width="1px" stroke="#1794EF" fill-rule="evenodd" fill="#1794EF" id="svg_136"/>
  <path d="m744,589l0,-1l2,2q2,2 5,3q3,2 2,5q0,4 -1,4l-1,0l0,0q-1,-1 -1,-1l0,0l0,-1l0,0l-1,0l0,0l-1,0q-1,0 -3,-1q-2,-1 -2,-4q0,-3 -1,-3l-1,0l0,-1q0,-1 1,-1q2,0 2,-1z" stroke-width="1px" stroke="#2F8576" fill-rule="evenodd" fill="#2F8576" id="svg_137"/>
  <path d="m657,638l1,0l0,1q0,1 1,1q1,1 2,2q0,2 -1,2q-1,0 -1,1l0,0l-1,0l-1,1l-2,0q-2,0 -7,-1l-5,0l0,-2l0,-2l1,0l1,-1l6,-1q6,-1 6,-1z" stroke-width="1px" stroke="#477419" fill-rule="evenodd" fill="#477419" id="svg_138"/>
  <path d="m0,156l0,-156l552,0l553,0l0,119l0,119l0,0q-1,0 -1,-30q0,-30 -12,-33q-11,-3 -12,-5q0,-2 1,-8q1,-7 0,-10q-1,-4 -5,-6q-5,-2 -16,-4q-11,-2 -13,-10q-2,-8 -3,-8q-1,0 -12,-1q-11,-1 -31,5q-20,6 -27,7q-7,1 -11,-2q-5,-3 -6,-7q-1,-5 1,-10q2,-4 7,-10q5,-7 5,-8l0,-1l0,0l0,-1l0,0l0,0l1,0l0,0l0,-1l1,0l0,0l0,-1l0,0l0,0l1,-1l0,-1l-1,0l-2,0l0,1l0,0l-1,0l0,-1l-1,0l-1,0l-1,0q-1,0 -2,0q0,0 -5,0q-5,2 -17,6q-12,4 -19,2q-7,0 -15,0q-7,0 -12,2q-5,2 -30,8q-24,8 -40,15q-15,8 -15,9q0,1 -1,1l-1,1l0,0l-1,0l0,0l0,0l0,1l0,0l0,1l0,0l0,0l0,0l0,1l0,0l0,1l0,1l0,1l0,0l-1,0l0,0l0,1l1,0l0,0l0,1l2,0l1,0l0,1l1,0l0,0l0,1l12,0q12,0 17,1q5,1 9,3q5,2 6,3q0,1 1,5q1,4 -1,6q0,2 -6,8q-6,5 -13,9q-7,5 -14,5q-7,0 -8,-2q-1,-2 -2,-1q-2,1 -7,7q-6,7 -9,8l-3,0l-1,0q-1,0 -5,-4q-4,-4 -8,-14q-4,-10 -8,-15q-4,-5 -9,-8q-5,-3 -11,-1q-6,0 -16,8q-11,6 -21,13q-10,7 -11,9q-1,2 0,2q2,1 -9,21l-11,20l0,2l0,2l1,0l0,1l14,3q14,3 15,4l2,1l0,0l0,0l1,0l0,0l0,1l1,0l0,0l0,1l0,0l0,0l1,1l1,1l0,2l0,2l-1,1l-1,1l0,0l0,0l0,1l0,0l-1,0q0,1 -5,3l-6,4l-1,0l-1,0l0,1l0,0l-1,0l0,1l0,0l-1,0l0,0l0,0l0,1l0,0l-1,0l0,1l2,0l2,0l18,4q18,2 21,4q2,0 4,1l1,1l0,0l1,0l0,0l0,0l0,1l0,0l1,1l1,1l0,1l0,1l0,1l0,0l0,1l0,1l-1,1l-1,1l0,0l0,0l0,1l0,0l-1,0l0,1l0,0l-1,0l0,0l0,0l-1,1q-1,1 -3,1q-1,2 -15,2q-14,0 -23,-1q-8,-1 -20,-3q-12,0 -22,2q-10,4 -18,4q-9,0 -12,2q-2,2 -14,9q-11,7 -24,9l-14,3l-2,0q-1,-1 -8,-1q-6,0 -6,-1q1,-1 -42,-1q-42,0 -66,1l-25,1l-1,1l-1,1l0,0l0,0l-5,0q-6,0 -80,0q-73,0 -77,1q-3,1 -8,2l-5,1l0,1l0,0l0,0q-1,-1 -2,-1q-2,-2 -10,-6q-8,-4 -15,-6q-7,-2 -21,-2q-14,0 -21,1q-7,1 -17,6l-9,5l0,0q0,0 -3,0q-3,0 -6,-2q-4,0 -73,-1q-69,-1 -74,-2l-5,-1l0,-156z" stroke-width="1px" stroke="#34AFED" fill-rule="evenodd" fill="#34AFED" id="svg_139"/>
  <path d="m738,461l-2,-1l-2,0q-1,0 -5,-1q-4,-1 -3,-1l1,0l5,-2q5,-2 6,2q1,3 0,3z" stroke-width="1px" stroke="#C2DED6" fill-rule="evenodd" fill="#C2DED6" id="svg_140"/>
  <path d="m787,452l1,0l0,-1l1,0l0,15q-1,15 -1,30l0,14l1,0l0,0l1,1l2,1l0,0l0,0l-2,0l-1,0l0,1l1,1l1,2q1,2 1,4q0,1 -2,2q-2,0 -2,2l0,1l0,0l-1,1l-1,0q0,1 -1,3l-1,2l0,0l0,1l0,0l0,0l-1,1l-1,1l0,0l0,0l-1,1l-1,0l0,-1l0,-1l1,-2l0,-2l-2,0l-2,-1l0,0l1,0l0,0q0,0 1,-1q1,-1 1,-6q2,-5 2,-33l0,-28l1,0l1,0l0,-1l0,0l1,-3q1,-3 2,-4z" stroke-width="1px" stroke="#A38866" fill-rule="evenodd" fill="#A38866" id="svg_141"/>
  <path d="m731,646l0,0l1,0l1,0l2,0q3,1 3,4l0,3l-2,1q-2,1 -2,4l0,2l1,0l0,0l0,1l1,0l0,1l0,0l0,0q0,0 -2,0q-3,0 -7,0l-4,1l0,-1l-1,0l0,-1l0,-1l-1,0l0,0l-1,0q-1,0 -2,0l0,0l0,0q0,0 1,-3l1,-2l1,0l1,-1l3,0q3,-1 4,-4q1,-4 2,-4z" stroke-width="1px" stroke="#728023" fill-rule="evenodd" fill="#728023" id="svg_142"/>
  <path d="m279,350l-6,-11l5,4q5,3 10,3q5,0 75,-1q70,-1 73,-3q3,-2 4,-2l0,0l0,4l0,4l3,3q3,3 10,6q7,3 8,4l1,1l0,0l0,0l1,0l0,0l0,1l1,0l0,0l0,1l0,0l0,0l1,0l0,1l-1,0l0,1l0,0l0,0l0,0l0,1l-1,0l0,1l0,0l-1,0l0,0l0,0l-1,1l-1,1l-1,0q-1,0 -16,5q-15,4 -15,6q-1,3 -14,3q-13,0 -16,-2q-4,-2 -10,-3q-7,-1 -17,4q-10,5 -19,5q-10,0 -36,2l-25,2l0,-1q-1,-1 -3,-15q-4,-14 -9,-26z" stroke-width="1px" stroke="#95D4F8" fill-rule="evenodd" fill="#95D4F8" id="svg_143"/>
  <path d="m456,566l2,0l0,1l0,0l1,0l0,1l1,0l1,0l1,1l0,0l0,0l0,1l0,0l0,0l1,0l0,0l-1,0l-2,0l-1,0l-1,0l0,1l0,0l-1,0l0,1l-1,0l0,0l-4,0q-3,0 -4,0q0,0 -5,1l-5,1l-1,0l-1,0l-1,1l-1,1l-1,0l-1,0l-1,1l-1,1l0,0l0,0l-1,0q-1,0 -3,0q-3,0 -3,1q0,1 -1,1l-1,0l-1,-1l-1,0l0,0q-1,0 -1,1l0,0l0,1q0,1 0,1l0,0l0,1q0,1 -2,3q-2,2 -18,3q-16,1 -19,1q-3,2 -21,2l-19,0l0,1l1,0l0,0l0,1l1,0l1,0l2,1q1,1 2,1l1,0l0,1l0,1l1,0l1,0l-3,1l-2,1l-10,0q-10,0 -30,0q-21,0 -28,-2q-7,-2 -14,-4q-8,0 -16,3q-8,3 -26,4q-17,1 -26,-3q-8,-4 -16,-5q-8,-1 -18,2q-10,3 -42,4q-32,1 -32,2q0,1 -7,1q-7,0 -14,-1q-7,-1 -17,-1q-9,1 -9,4q0,2 -19,2l-19,0l0,0l-1,0l0,0l0,0l0,-20l0,-21l0,0l1,-1l0,0l1,0l0,0l0,0l0,-1l0,0l1,1l0,1l1,0l1,0l0,-1l0,-1l3,-1q2,-2 11,-10q9,-8 15,-8q5,0 36,12q32,12 41,12q9,0 21,-8q11,-6 26,-10q14,-4 20,-4q5,0 10,3q4,3 12,3q7,0 18,-2q12,-2 22,-1q11,1 23,5q12,6 17,5q4,-1 9,-7q5,-6 8,-11q3,-5 7,-7q4,-2 10,0q6,2 11,12q6,10 11,18q4,6 7,8q3,2 10,0q7,0 22,-8q15,-8 23,-14q8,-8 11,-8q3,-2 10,-1q7,1 12,4q5,3 13,11q8,8 9,9q1,1 3,1z" stroke-width="1px" stroke="#D6E9F3" fill-rule="evenodd" fill="#D6E9F3" id="svg_144"/>
  <path d="m824,396l0,-1l0,0l0,0l1,3l1,3l0,1l0,0l-1,0q-1,0 -5,-1l-4,0l0,-1l0,-1l1,-2l1,-2l0,0q2,0 1,-1q0,-1 -1,-1q-1,0 -1,-1q0,-1 2,0q1,2 3,4q2,2 2,0z" stroke-width="1px" stroke="#A0CEC8" fill-rule="evenodd" fill="#A0CEC8" id="svg_145"/>
  <path d="m874,538l5,0l-2,0l-2,0l0,1l1,0l0,2q0,1 2,2q1,0 0,3q0,4 -1,6q-1,1 -2,2q-1,0 -2,1l0,1l-1,0l-1,0l0,1l0,0l-1,0q0,1 -2,1q-2,2 -2,0q0,-1 3,-5q3,-4 4,-4q1,0 1,-1q0,-1 -1,-1q-1,0 -1,-1q-1,-2 -4,1q-4,2 -5,4l-1,2l0,0l0,1l0,0l0,0l-1,0l0,0l-1,0l-1,0l0,0l-1,0l0,-4l0,-4l-1,0l0,0l0,1l-1,0l0,1q0,1 -1,2q0,2 -5,1l-4,-1l0,1q0,1 1,1q1,1 1,3q0,1 -2,2q-1,1 -2,1l-1,0l-1,1l-1,1l0,0l-1,0l0,0l0,0l0,0l-1,0l0,-1l-1,0l0,-1q0,-1 -1,-2q-1,-2 -3,-3l-3,-1l0,-1l-1,-1l0,0l0,0l0,1l0,0l-1,0l0,-1l0,0l-1,0l0,0l0,0l0,-1l0,0l-1,-1l-1,-1l0,0l0,-1l1,0l1,0l0,1l0,0l1,0l0,1l0,0l1,0l0,0l0,0l3,1q3,1 3,1q1,0 1,1l1,0l0,0l0,1l1,0l1,0l1,1l1,0l0,-1l0,-2l-1,-1q-1,-1 -1,-2l0,-1l-1,-1l0,-1l1,0l1,0l0,2q0,1 5,0q4,0 6,-1q1,-1 1,-2q0,-1 5,-2q6,-1 8,-3q3,0 8,0z" stroke-width="1px" stroke="#C2DDDF" fill-rule="evenodd" fill="#C2DDDF" id="svg_146"/>
  <path d="m775,540l4,-4l1,0q1,0 0,5q-2,5 -3,5q-1,0 -1,0l0,0l0,0q-1,0 -2,1q-2,1 -2,-2q0,-2 3,-5z" stroke-width="1px" stroke="#3B6A4C" fill-rule="evenodd" fill="#3B6A4C" id="svg_147"/>
  <path d="m462,581l0,-1l2,0l3,0l11,1q10,1 12,1q3,0 4,0q0,0 1,0l0,1l-1,0q-1,0 -1,1q0,1 -1,1q-1,0 -2,3q0,2 0,4q0,1 0,2l0,1l-1,0l0,1l-1,0l-1,0l0,1l-1,1l0,0l0,0l-1,0q-1,0 -3,-1q-1,-1 0,1q0,2 -3,2q-3,0 -5,0q-2,0 -5,1l-3,1l-1,-1q0,-1 -1,-1l-1,0l-1,0l-1,0l0,0l-1,0l0,0l0,0l0,-1l0,-1l1,-3l0,-3l0,0q1,-1 2,0q1,2 2,-3q0,-5 -3,-6l-3,-1l2,0q1,-1 1,-1zm14,11l-2,0l0,-2q0,-3 -1,-4q-1,-1 5,-1q6,0 5,4q-1,4 -2,5q-2,0 -3,-1q0,-1 -2,-1z" stroke-width="1px" stroke="#93C1CD" fill-rule="evenodd" fill="#93C1CD" id="svg_148"/>
  <path d="m829,562l1,-2l0,0l0,0l0,1l0,0l2,3q0,3 1,0q1,-2 2,-1q1,2 2,2l0,0l-1,4q0,3 3,4q3,0 2,5q-1,5 -3,9q-2,4 -2,4l0,1l0,0l0,0l-1,0l0,0l0,1l-1,0l0,1l0,1l-2,0q-2,0 -2,-1l0,-2l0,-1l0,-1l0,-6q0,-7 -2,-12l-2,-4l0,0l0,0l0,-1l0,0l-1,-1l0,-2l1,0l2,0l0,-1l0,0l1,-1z" stroke-width="1px" stroke="#A2CDCF" fill-rule="evenodd" fill="#A2CDCF" id="svg_149"/>
  <path d="m1021,413l0,-1l0,0l-1,0l-1,-3q-2,-3 1,-3q3,0 4,0q1,2 4,1q3,0 3,1q0,1 -1,1q-1,0 -4,3q-2,2 -3,3q-1,0 -1,-1q0,-1 -1,-1z" stroke-width="1px" stroke="#B1DAD5" fill-rule="evenodd" fill="#B1DAD5" id="svg_150"/>
  <path d="m878,627l3,-1l1,0l2,0l2,1l3,1l1,0l1,0l0,1l1,0l0,0l0,1l0,0l0,0l1,1l0,1l-1,0l-1,0l-1,2q0,1 -2,2q-2,2 -2,6l0,4l-1,0q-1,0 -2,-2q-1,-2 -2,-6q-1,-3 -2,-3q-1,-1 -1,-2q-1,-1 -2,-1l-1,0l0,-1l-1,0l0,0l0,1l-1,0l-1,0l0,-2l0,-1l2,-1q1,0 4,-1z" stroke-width="1px" stroke="#437215" fill-rule="evenodd" fill="#437215" id="svg_151"/>
  <path d="m571,619l-2,-14l0,0l1,0l0,0l0,1l0,0l1,0l5,0l6,0l0,0l1,0l1,8q0,8 -1,8q-1,0 -1,6q0,6 -1,7l0,1l0,0q-1,0 -1,2q-1,1 -5,0l-4,-2l0,0l0,0l1,0l1,0l0,-2q-1,-1 -2,-15z" stroke-width="1px" stroke="#7F910F" fill-rule="evenodd" fill="#7F910F" id="svg_152"/>
  <path d="m914,410l1,0l0,-1l1,0l0,0l0,1l0,0l0,0l1,1l0,1l-1,0q-2,0 -1,2q1,2 2,4l0,1l-2,-2q-2,-1 -3,-2q-1,0 0,3q0,4 1,8l1,4l0,1l0,1l-1,0l0,0l0,-1l-1,0l0,0l0,-1l0,0l0,0l-1,0l0,0l0,-1l-1,0l0,0l0,-1l0,0l0,0l-1,0l0,0l0,-1l-1,0l0,0q0,-1 -3,-3q-3,-3 -8,-4l-5,-2l-4,1l-4,1l-1,0l-1,0l2,1l1,1l1,0l2,0l2,1q2,1 3,1l1,0l0,0q0,1 -3,2l-3,2l-2,0q-1,0 -8,-1q-8,-1 -20,3l-11,2l-1,1l-1,1l-1,0l-1,0l-1,1l-2,0l0,1l0,1l2,0l1,1l1,0l1,0l7,2q8,2 10,2l3,0l0,1q-1,1 -1,3q-1,1 -2,1l-1,0l0,1l0,1l1,0l1,-1l5,0l6,0l-1,1l-1,1l0,0l0,0l-1,0l0,0l-1,1l-1,1l0,0l-1,0l0,0l0,0l0,1q0,0 -2,1q-2,1 -6,7l-4,6l0,1l0,1l-1,1l0,1l2,0l2,-1l1,0l2,0l0,1l0,1l1,2l1,1l0,0l0,-1l4,-3q5,-3 5,-4l1,0l0,0l0,-1l1,0l1,0l0,-1l0,0l1,0l0,-1l0,0l1,0l0,0l0,0l0,-1l0,0l0,1l0,2l0,2l0,1l-1,0l0,1l0,0l1,0l0,1l0,1l-4,7q-2,7 -3,18q-1,11 0,13l1,3l0,1q0,1 0,-6l0,-7l1,-2l1,-2l0,0l0,-1l0,0l0,0l1,1l1,1l0,2q2,2 2,2l0,0l0,1l0,0l1,1l0,1l1,0l1,-1l0,0l-1,0l0,-1l0,-1l-1,-2q-1,-2 -1,-4l0,-3l1,0l0,1l0,0l1,0l1,2q1,2 2,-1q0,-3 1,-1q2,1 2,1l0,1l0,0l0,0l1,-2q1,-1 1,-1l0,-1l0,0l0,0l1,-1l1,-1l0,-2q0,-2 -2,-4l-2,-3l0,-1l0,-2l0,0l0,0l0,1l0,0l1,0l0,1l0,0l1,0l0,1q1,1 2,1l1,0l0,-2q-1,-1 -1,-3l0,-2l1,0l1,0l1,2q1,3 1,3l0,0l1,-1l1,-1l0,-1l0,-1l0,-1l0,-1l0,0l0,0l1,0l1,0l0,0l0,0l0,2l0,3l0,7l0,6l1,-2l1,-1l0,-1q0,-2 1,-4l1,-1l0,-1l0,-1l0,5l0,4l0,8l0,8l0,2l0,3l0,-1l0,-1l1,-1l1,-2l0,-1l0,-1l1,-1q1,-1 1,-2l0,-1l1,30q1,29 0,29q-1,1 -1,1l0,0l0,0q-1,0 -4,5q-4,5 -6,5q-1,0 -1,-4q0,-4 -1,-4q-1,0 -2,3q-1,2 -6,1q-4,-1 -4,-2q0,-1 -2,0q-2,1 -6,0q-4,0 0,-2l3,-2l0,0l1,0l0,0l0,0l-1,-1q-1,-1 -3,-1l-3,-1l0,0l0,-1l1,0l1,0l0,-1q1,-1 2,-1q1,-1 2,-2q1,-2 1,-6q1,-3 0,-3q-2,-1 -2,-2l0,-2l-1,0l0,-1l2,0l2,0l-5,0q-5,0 -8,0q-2,2 -8,3q-5,1 -5,2q0,1 -1,2q-2,1 -6,1q-5,1 -6,0l0,-1l0,-1q0,0 -1,0l0,0l0,0q-1,-1 -4,-6q-3,-4 -7,-5l-4,-1l-1,1l-1,0l0,-1l0,-1l1,0l0,-1l1,0l1,0l1,-1q2,-1 5,-1l3,0l2,-1l2,-1l0,0l0,0l-1,0l0,0l0,-1l-1,0l0,0l0,-1l-2,0l-1,0l-1,-1l-1,-1l-3,0q-4,0 -6,2l-2,0l-1,1l-1,1l0,0l0,0l-1,0l0,0l-1,0l-1,0l0,0l1,0l0,-1l0,-1l0,-1l0,-1l0,0l0,0l1,-1l1,-1l0,0l0,0l1,0l0,0l0,-1l1,0l3,-3q3,-2 3,-4q0,-1 1,-1q1,-1 1,-1l0,0l1,0l0,0l1,-1l1,-1l0,0l1,0l0,-1l0,-1l-2,0l-3,0l0,-2l0,-2l-1,0l-2,0l-1,1l-1,1l0,0q0,0 -5,6l-5,6l0,0l0,0l0,1l0,0l-1,0l0,1l-1,0l-2,0l0,1l0,0l-1,0l0,-1l0,0l-1,0l0,-6l0,-7l-1,0l-1,0l0,1l0,1l-1,1q-1,1 -1,4q0,2 -2,2l-2,0l-2,-1l-1,-1l-1,0l-2,0l0,0l0,0l-2,-1l-1,-1l0,0l-1,0l0,-14q0,-15 1,-30l0,-15l0,-1l1,-2l0,0l0,0l0,1l0,0l1,0l0,1l0,0l1,0l0,0l0,0l1,-1q1,-1 1,1q2,2 2,3l0,1l1,0l0,0l0,-1l1,0l0,-2q1,-3 2,-3q1,0 1,-2q0,-1 1,-2q0,0 0,-2q-1,-1 2,-1q4,-1 5,-1q1,0 5,-1l5,0l0,1l1,1l0,1l0,0l0,2q0,2 2,0q1,0 1,-1l1,0l0,1l0,2l-1,0l0,0l-2,1q-2,1 -2,5l-1,3l0,0l0,1l2,1q1,1 4,1q2,0 1,2q-1,2 1,1q2,0 2,1q0,1 -1,1q-1,1 -1,1l0,0l-1,1l-1,1l0,0l0,0l2,0q2,-1 3,-2l1,-1l0,1l0,2l-1,2l-1,1l0,0l0,1l0,0l0,0l-1,0l0,0l0,1l-1,0l0,1l0,1l1,0l0,-1l0,0l1,0l0,0l0,0l0,-1l0,0l1,0l0,-1l0,0l1,0l0,-1l0,-1l1,0l0,0l0,-1l1,0l0,-1l0,-1l1,-1q1,-2 1,-4q0,-1 1,-6q1,-6 -3,-14q-2,-7 -6,-11q-4,-4 -12,-7l-8,-3l-1,0l0,-1l0,0l-1,0l0,0l0,0l0,-1l0,0l-1,0l0,-1l0,0l-1,0l0,0l0,0l0,-1l0,0l-1,0l0,-1l1,0l1,0l0,1l1,0l0,0l0,1l2,-1q2,0 1,-1q-1,-1 -1,-1l0,-1l2,1q2,1 2,2l0,1l2,0l1,0l0,-2q-1,-1 -1,-2l0,-1l-1,-1l0,-1l1,0l1,0l1,2q1,3 1,3l1,0l0,0l0,0l0,1l0,0l1,-3l1,-4l0,0l0,0l0,1l0,0l1,4q0,4 1,4l1,1l1,0l1,0l1,1l2,0l0,-3q0,-2 2,0q0,1 1,-2l1,-2l0,0l0,0l1,1q1,1 1,3l0,1l1,1l1,2l0,-3q0,-3 -1,-5l0,-1l1,0l1,1l0,0l1,0l0,0l0,0l0,1l0,0l2,1q2,2 2,2l0,0l0,1l0,0l1,0l0,1l0,0l1,0l0,0l0,0l0,1l0,0l1,0l0,1l0,0l1,0l0,-1l0,-1l-1,-1l-1,-1l0,-1q0,-1 -2,-2l0,-1l-1,-1l0,-1l0,-1l1,-1l0,0l0,0l0,1l0,0l1,0l0,1l6,0q6,0 7,-2q2,0 15,0q13,1 13,2q1,0 8,1q7,1 8,0q0,-1 6,0q5,1 6,0q2,-1 4,-1zm-96,50q0,0 0,-1q0,0 0,1q0,0 0,0zm55,58l0,0l0,-1q1,0 1,1l0,0l-1,0z" stroke-width="1px" stroke="#E9F4F5" fill-rule="evenodd" fill="#E9F4F5" id="svg_153"/>
  <path d="m1018,651l1,-3l3,0q2,0 1,2q-1,2 -1,2l0,0l0,1l0,0l-1,1l0,2l1,0l1,0l0,-1l1,0l0,0l0,-1l2,-2q2,-2 5,-2l3,0l0,1l0,0l0,1l0,1l0,0l0,-1l0,0l0,0l-2,0q-1,1 -1,2q-1,1 -1,2l0,1l1,0l0,1l1,0q2,1 3,2q1,0 2,2q1,2 3,2q1,0 1,1l1,0l0,1l0,0l-2,0l-1,0l0,1l-1,0l0,3q0,3 -2,3q-1,1 -2,2q0,1 -4,1q-5,-1 -5,0q0,1 -2,2q-1,0 -5,2l-4,1l0,0l-1,0l0,-1l-1,-1l0,0l0,-1l0,0l0,0l-1,0l0,0l-1,-1l-1,0l0,-1l-1,-2l0,-1q0,-1 -2,-1l-1,-1l0,-1l1,-1l0,0l0,-1l0,0q0,0 1,-1q0,-1 1,-1q1,0 4,-6q3,-6 4,-6q1,0 2,-3z" stroke-width="1px" stroke="#376C1C" fill-rule="evenodd" fill="#376C1C" id="svg_154"/>
  <path d="m421,621l-31,-7l27,2q27,2 41,5q13,3 14,3l2,0l2,1q3,1 6,1l2,0l2,1l2,1l2,0l3,0l0,1l0,0l-5,0q-6,1 -16,1q-10,0 -13,0l-3,-1l-2,0q-2,-1 -33,-8z" stroke-width="1px" stroke="#C7BC6A" fill-rule="evenodd" fill="#C7BC6A" id="svg_155"/>
  <path d="m1097,552l0,-1l2,1q2,0 2,1q-1,1 -1,1l0,0l0,0q-1,0 -2,2q-1,3 -2,3l-2,-1l-1,0l-1,0l0,-1l0,0l-1,0l0,0l0,0q0,-1 -1,-1q-2,0 -2,-1q0,-1 1,-1l1,-1l3,-1q3,0 4,0z" stroke-width="1px" stroke="#D3E4D7" fill-rule="evenodd" fill="#D3E4D7" id="svg_156"/>
  <path d="m727,590l0,0l-2,0q-1,1 -1,2q0,1 0,3l0,2l0,0l-1,-1l0,0l-1,0l0,0l0,0l-1,0l-1,0l0,-1l0,-1l-1,-2q-1,-3 -1,-4q0,0 -2,-4l-2,-5l0,-1l0,-1l2,-1q2,0 2,1q1,1 3,-1q2,0 1,2q0,2 1,2q1,1 3,4q0,4 0,4q0,1 1,2z" stroke-width="1px" stroke="#3A95A7" fill-rule="evenodd" fill="#3A95A7" id="svg_157"/>
 </g>
</svg>